# vtk DataFile Version 3.0
rem electrostatic solution
ASCII
DATASET UNSTRUCTURED_GRID
POINTS 352 double
1.000000000e-3 0.000000000e0 0.000000000e0
9.807852804e-4 1.950903220e-4 0.000000000e0
9.238795325e-4 3.826834324e-4 0.000000000e0
8.314696123e-4 5.555702330e-4 0.000000000e0
7.071067812e-4 7.071067812e-4 0.000000000e0
5.555702330e-4 8.314696123e-4 0.000000000e0
3.826834324e-4 9.238795325e-4 0.000000000e0
1.950903220e-4 9.807852804e-4 0.000000000e0
6.123233996e-20 1.000000000e-3 0.000000000e0
-1.950903220e-4 9.807852804e-4 0.000000000e0
-3.826834324e-4 9.238795325e-4 0.000000000e0
-5.555702330e-4 8.314696123e-4 0.000000000e0
-7.071067812e-4 7.071067812e-4 0.000000000e0
-8.314696123e-4 5.555702330e-4 0.000000000e0
-9.238795325e-4 3.826834324e-4 0.000000000e0
-9.807852804e-4 1.950903220e-4 0.000000000e0
-1.000000000e-3 1.224646799e-19 0.000000000e0
-9.807852804e-4 -1.950903220e-4 0.000000000e0
-9.238795325e-4 -3.826834324e-4 0.000000000e0
-8.314696123e-4 -5.555702330e-4 0.000000000e0
-7.071067812e-4 -7.071067812e-4 0.000000000e0
-5.555702330e-4 -8.314696123e-4 0.000000000e0
-3.826834324e-4 -9.238795325e-4 0.000000000e0
-1.950903220e-4 -9.807852804e-4 0.000000000e0
-1.836970199e-19 -1.000000000e-3 0.000000000e0
1.950903220e-4 -9.807852804e-4 0.000000000e0
3.826834324e-4 -9.238795325e-4 0.000000000e0
5.555702330e-4 -8.314696123e-4 0.000000000e0
7.071067812e-4 -7.071067812e-4 0.000000000e0
8.314696123e-4 -5.555702330e-4 0.000000000e0
9.238795325e-4 -3.826834324e-4 0.000000000e0
9.807852804e-4 -1.950903220e-4 0.000000000e0
1.300000000e-3 0.000000000e0 0.000000000e0
1.275020865e-3 2.536174186e-4 0.000000000e0
1.201043392e-3 4.974884621e-4 0.000000000e0
1.080910496e-3 7.222413029e-4 0.000000000e0
9.192388155e-4 9.192388155e-4 0.000000000e0
7.222413029e-4 1.080910496e-3 0.000000000e0
4.974884621e-4 1.201043392e-3 0.000000000e0
2.536174186e-4 1.275020865e-3 0.000000000e0
7.960204194e-20 1.300000000e-3 0.000000000e0
-2.536174186e-4 1.275020865e-3 0.000000000e0
-4.974884621e-4 1.201043392e-3 0.000000000e0
-7.222413029e-4 1.080910496e-3 0.000000000e0
-9.192388155e-4 9.192388155e-4 0.000000000e0
-1.080910496e-3 7.222413029e-4 0.000000000e0
-1.201043392e-3 4.974884621e-4 0.000000000e0
-1.275020865e-3 2.536174186e-4 0.000000000e0
-1.300000000e-3 1.592040839e-19 0.000000000e0
-1.275020865e-3 -2.536174186e-4 0.000000000e0
-1.201043392e-3 -4.974884621e-4 0.000000000e0
-1.080910496e-3 -7.222413029e-4 0.000000000e0
-9.192388155e-4 -9.192388155e-4 0.000000000e0
-7.222413029e-4 -1.080910496e-3 0.000000000e0
-4.974884621e-4 -1.201043392e-3 0.000000000e0
-2.536174186e-4 -1.275020865e-3 0.000000000e0
-2.388061258e-19 -1.300000000e-3 0.000000000e0
2.536174186e-4 -1.275020865e-3 0.000000000e0
4.974884621e-4 -1.201043392e-3 0.000000000e0
7.222413029e-4 -1.080910496e-3 0.000000000e0
9.192388155e-4 -9.192388155e-4 0.000000000e0
1.080910496e-3 -7.222413029e-4 0.000000000e0
1.201043392e-3 -4.974884621e-4 0.000000000e0
1.275020865e-3 -2.536174186e-4 0.000000000e0
1.600000000e-3 0.000000000e0 0.000000000e0
1.569256449e-3 3.121445152e-4 0.000000000e0
1.478207252e-3 6.122934918e-4 0.000000000e0
1.330351380e-3 8.889123728e-4 0.000000000e0
1.131370850e-3 1.131370850e-3 0.000000000e0
8.889123728e-4 1.330351380e-3 0.000000000e0
6.122934918e-4 1.478207252e-3 0.000000000e0
3.121445152e-4 1.569256449e-3 0.000000000e0
9.797174393e-20 1.600000000e-3 0.000000000e0
-3.121445152e-4 1.569256449e-3 0.000000000e0
-6.122934918e-4 1.478207252e-3 0.000000000e0
-8.889123728e-4 1.330351380e-3 0.000000000e0
-1.131370850e-3 1.131370850e-3 0.000000000e0
-1.330351380e-3 8.889123728e-4 0.000000000e0
-1.478207252e-3 6.122934918e-4 0.000000000e0
-1.569256449e-3 3.121445152e-4 0.000000000e0
-1.600000000e-3 1.959434879e-19 0.000000000e0
-1.569256449e-3 -3.121445152e-4 0.000000000e0
-1.478207252e-3 -6.122934918e-4 0.000000000e0
-1.330351380e-3 -8.889123728e-4 0.000000000e0
-1.131370850e-3 -1.131370850e-3 0.000000000e0
-8.889123728e-4 -1.330351380e-3 0.000000000e0
-6.122934918e-4 -1.478207252e-3 0.000000000e0
-3.121445152e-4 -1.569256449e-3 0.000000000e0
-2.939152318e-19 -1.600000000e-3 0.000000000e0
3.121445152e-4 -1.569256449e-3 0.000000000e0
6.122934918e-4 -1.478207252e-3 0.000000000e0
8.889123728e-4 -1.330351380e-3 0.000000000e0
1.131370850e-3 -1.131370850e-3 0.000000000e0
1.330351380e-3 -8.889123728e-4 0.000000000e0
1.478207252e-3 -6.122934918e-4 0.000000000e0
1.569256449e-3 -3.121445152e-4 0.000000000e0
1.900000000e-3 0.000000000e0 0.000000000e0
1.863492033e-3 3.706716118e-4 0.000000000e0
1.755371112e-3 7.270985215e-4 0.000000000e0
1.579792263e-3 1.055583443e-3 0.000000000e0
1.343502884e-3 1.343502884e-3 0.000000000e0
1.055583443e-3 1.579792263e-3 0.000000000e0
7.270985215e-4 1.755371112e-3 0.000000000e0
3.706716118e-4 1.863492033e-3 0.000000000e0
1.163414459e-19 1.900000000e-3 0.000000000e0
-3.706716118e-4 1.863492033e-3 0.000000000e0
-7.270985215e-4 1.755371112e-3 0.000000000e0
-1.055583443e-3 1.579792263e-3 0.000000000e0
-1.343502884e-3 1.343502884e-3 0.000000000e0
-1.579792263e-3 1.055583443e-3 0.000000000e0
-1.755371112e-3 7.270985215e-4 0.000000000e0
-1.863492033e-3 3.706716118e-4 0.000000000e0
-1.900000000e-3 2.326828918e-19 0.000000000e0
-1.863492033e-3 -3.706716118e-4 0.000000000e0
-1.755371112e-3 -7.270985215e-4 0.000000000e0
-1.579792263e-3 -1.055583443e-3 0.000000000e0
-1.343502884e-3 -1.343502884e-3 0.000000000e0
-1.055583443e-3 -1.579792263e-3 0.000000000e0
-7.270985215e-4 -1.755371112e-3 0.000000000e0
-3.706716118e-4 -1.863492033e-3 0.000000000e0
-3.490243378e-19 -1.900000000e-3 0.000000000e0
3.706716118e-4 -1.863492033e-3 0.000000000e0
7.270985215e-4 -1.755371112e-3 0.000000000e0
1.055583443e-3 -1.579792263e-3 0.000000000e0
1.343502884e-3 -1.343502884e-3 0.000000000e0
1.579792263e-3 -1.055583443e-3 0.000000000e0
1.755371112e-3 -7.270985215e-4 0.000000000e0
1.863492033e-3 -3.706716118e-4 0.000000000e0
2.200000000e-3 0.000000000e0 0.000000000e0
2.157727617e-3 4.291987084e-4 0.000000000e0
2.032534972e-3 8.419035512e-4 0.000000000e0
1.829233147e-3 1.222254513e-3 0.000000000e0
1.555634919e-3 1.555634919e-3 0.000000000e0
1.222254513e-3 1.829233147e-3 0.000000000e0
8.419035512e-4 2.032534972e-3 0.000000000e0
4.291987084e-4 2.157727617e-3 0.000000000e0
1.347111479e-19 2.200000000e-3 0.000000000e0
-4.291987084e-4 2.157727617e-3 0.000000000e0
-8.419035512e-4 2.032534972e-3 0.000000000e0
-1.222254513e-3 1.829233147e-3 0.000000000e0
-1.555634919e-3 1.555634919e-3 0.000000000e0
-1.829233147e-3 1.222254513e-3 0.000000000e0
-2.032534972e-3 8.419035512e-4 0.000000000e0
-2.157727617e-3 4.291987084e-4 0.000000000e0
-2.200000000e-3 2.694222958e-19 0.000000000e0
-2.157727617e-3 -4.291987084e-4 0.000000000e0
-2.032534972e-3 -8.419035512e-4 0.000000000e0
-1.829233147e-3 -1.222254513e-3 0.000000000e0
-1.555634919e-3 -1.555634919e-3 0.000000000e0
-1.222254513e-3 -1.829233147e-3 0.000000000e0
-8.419035512e-4 -2.032534972e-3 0.000000000e0
-4.291987084e-4 -2.157727617e-3 0.000000000e0
-4.041334437e-19 -2.200000000e-3 0.000000000e0
4.291987084e-4 -2.157727617e-3 0.000000000e0
8.419035512e-4 -2.032534972e-3 0.000000000e0
1.222254513e-3 -1.829233147e-3 0.000000000e0
1.555634919e-3 -1.555634919e-3 0.000000000e0
1.829233147e-3 -1.222254513e-3 0.000000000e0
2.032534972e-3 -8.419035512e-4 0.000000000e0
2.157727617e-3 -4.291987084e-4 0.000000000e0
2.500000000e-3 0.000000000e0 0.000000000e0
2.451963201e-3 4.877258050e-4 0.000000000e0
2.309698831e-3 9.567085809e-4 0.000000000e0
2.078674031e-3 1.388925583e-3 0.000000000e0
1.767766953e-3 1.767766953e-3 0.000000000e0
1.388925583e-3 2.078674031e-3 0.000000000e0
9.567085809e-4 2.309698831e-3 0.000000000e0
4.877258050e-4 2.451963201e-3 0.000000000e0
1.530808499e-19 2.500000000e-3 0.000000000e0
-4.877258050e-4 2.451963201e-3 0.000000000e0
-9.567085809e-4 2.309698831e-3 0.000000000e0
-1.388925583e-3 2.078674031e-3 0.000000000e0
-1.767766953e-3 1.767766953e-3 0.000000000e0
-2.078674031e-3 1.388925583e-3 0.000000000e0
-2.309698831e-3 9.567085809e-4 0.000000000e0
-2.451963201e-3 4.877258050e-4 0.000000000e0
-2.500000000e-3 3.061616998e-19 0.000000000e0
-2.451963201e-3 -4.877258050e-4 0.000000000e0
-2.309698831e-3 -9.567085809e-4 0.000000000e0
-2.078674031e-3 -1.388925583e-3 0.000000000e0
-1.767766953e-3 -1.767766953e-3 0.000000000e0
-1.388925583e-3 -2.078674031e-3 0.000000000e0
-9.567085809e-4 -2.309698831e-3 0.000000000e0
-4.877258050e-4 -2.451963201e-3 0.000000000e0
-4.592425497e-19 -2.500000000e-3 0.000000000e0
4.877258050e-4 -2.451963201e-3 0.000000000e0
9.567085809e-4 -2.309698831e-3 0.000000000e0
1.388925583e-3 -2.078674031e-3 0.000000000e0
1.767766953e-3 -1.767766953e-3 0.000000000e0
2.078674031e-3 -1.388925583e-3 0.000000000e0
2.309698831e-3 -9.567085809e-4 0.000000000e0
2.451963201e-3 -4.877258050e-4 0.000000000e0
2.800000000e-3 0.000000000e0 0.000000000e0
2.746198785e-3 5.462529016e-4 0.000000000e0
2.586862691e-3 1.071513611e-3 0.000000000e0
2.328114914e-3 1.555596652e-3 0.000000000e0
1.979898987e-3 1.979898987e-3 0.000000000e0
1.555596652e-3 2.328114914e-3 0.000000000e0
1.071513611e-3 2.586862691e-3 0.000000000e0
5.462529016e-4 2.746198785e-3 0.000000000e0
1.714505519e-19 2.800000000e-3 0.000000000e0
-5.462529016e-4 2.746198785e-3 0.000000000e0
-1.071513611e-3 2.586862691e-3 0.000000000e0
-1.555596652e-3 2.328114914e-3 0.000000000e0
-1.979898987e-3 1.979898987e-3 0.000000000e0
-2.328114914e-3 1.555596652e-3 0.000000000e0
-2.586862691e-3 1.071513611e-3 0.000000000e0
-2.746198785e-3 5.462529016e-4 0.000000000e0
-2.800000000e-3 3.429011038e-19 0.000000000e0
-2.746198785e-3 -5.462529016e-4 0.000000000e0
-2.586862691e-3 -1.071513611e-3 0.000000000e0
-2.328114914e-3 -1.555596652e-3 0.000000000e0
-1.979898987e-3 -1.979898987e-3 0.000000000e0
-1.555596652e-3 -2.328114914e-3 0.000000000e0
-1.071513611e-3 -2.586862691e-3 0.000000000e0
-5.462529016e-4 -2.746198785e-3 0.000000000e0
-5.143516556e-19 -2.800000000e-3 0.000000000e0
5.462529016e-4 -2.746198785e-3 0.000000000e0
1.071513611e-3 -2.586862691e-3 0.000000000e0
1.555596652e-3 -2.328114914e-3 0.000000000e0
1.979898987e-3 -1.979898987e-3 0.000000000e0
2.328114914e-3 -1.555596652e-3 0.000000000e0
2.586862691e-3 -1.071513611e-3 0.000000000e0
2.746198785e-3 -5.462529016e-4 0.000000000e0
3.100000000e-3 0.000000000e0 0.000000000e0
3.040434369e-3 6.047799982e-4 0.000000000e0
2.864026551e-3 1.186318640e-3 0.000000000e0
2.577555798e-3 1.722267722e-3 0.000000000e0
2.192031022e-3 2.192031022e-3 0.000000000e0
1.722267722e-3 2.577555798e-3 0.000000000e0
1.186318640e-3 2.864026551e-3 0.000000000e0
6.047799982e-4 3.040434369e-3 0.000000000e0
1.898202539e-19 3.100000000e-3 0.000000000e0
-6.047799982e-4 3.040434369e-3 0.000000000e0
-1.186318640e-3 2.864026551e-3 0.000000000e0
-1.722267722e-3 2.577555798e-3 0.000000000e0
-2.192031022e-3 2.192031022e-3 0.000000000e0
-2.577555798e-3 1.722267722e-3 0.000000000e0
-2.864026551e-3 1.186318640e-3 0.000000000e0
-3.040434369e-3 6.047799982e-4 0.000000000e0
-3.100000000e-3 3.796405077e-19 0.000000000e0
-3.040434369e-3 -6.047799982e-4 0.000000000e0
-2.864026551e-3 -1.186318640e-3 0.000000000e0
-2.577555798e-3 -1.722267722e-3 0.000000000e0
-2.192031022e-3 -2.192031022e-3 0.000000000e0
-1.722267722e-3 -2.577555798e-3 0.000000000e0
-1.186318640e-3 -2.864026551e-3 0.000000000e0
-6.047799982e-4 -3.040434369e-3 0.000000000e0
-5.694607616e-19 -3.100000000e-3 0.000000000e0
6.047799982e-4 -3.040434369e-3 0.000000000e0
1.186318640e-3 -2.864026551e-3 0.000000000e0
1.722267722e-3 -2.577555798e-3 0.000000000e0
2.192031022e-3 -2.192031022e-3 0.000000000e0
2.577555798e-3 -1.722267722e-3 0.000000000e0
2.864026551e-3 -1.186318640e-3 0.000000000e0
3.040434369e-3 -6.047799982e-4 0.000000000e0
3.400000000e-3 0.000000000e0 0.000000000e0
3.334669953e-3 6.633070949e-4 0.000000000e0
3.141190411e-3 1.301123670e-3 0.000000000e0
2.826996682e-3 1.888938792e-3 0.000000000e0
2.404163056e-3 2.404163056e-3 0.000000000e0
1.888938792e-3 2.826996682e-3 0.000000000e0
1.301123670e-3 3.141190411e-3 0.000000000e0
6.633070949e-4 3.334669953e-3 0.000000000e0
2.081899559e-19 3.400000000e-3 0.000000000e0
-6.633070949e-4 3.334669953e-3 0.000000000e0
-1.301123670e-3 3.141190411e-3 0.000000000e0
-1.888938792e-3 2.826996682e-3 0.000000000e0
-2.404163056e-3 2.404163056e-3 0.000000000e0
-2.826996682e-3 1.888938792e-3 0.000000000e0
-3.141190411e-3 1.301123670e-3 0.000000000e0
-3.334669953e-3 6.633070949e-4 0.000000000e0
-3.400000000e-3 4.163799117e-19 0.000000000e0
-3.334669953e-3 -6.633070949e-4 0.000000000e0
-3.141190411e-3 -1.301123670e-3 0.000000000e0
-2.826996682e-3 -1.888938792e-3 0.000000000e0
-2.404163056e-3 -2.404163056e-3 0.000000000e0
-1.888938792e-3 -2.826996682e-3 0.000000000e0
-1.301123670e-3 -3.141190411e-3 0.000000000e0
-6.633070949e-4 -3.334669953e-3 0.000000000e0
-6.245698676e-19 -3.400000000e-3 0.000000000e0
6.633070949e-4 -3.334669953e-3 0.000000000e0
1.301123670e-3 -3.141190411e-3 0.000000000e0
1.888938792e-3 -2.826996682e-3 0.000000000e0
2.404163056e-3 -2.404163056e-3 0.000000000e0
2.826996682e-3 -1.888938792e-3 0.000000000e0
3.141190411e-3 -1.301123670e-3 0.000000000e0
3.334669953e-3 -6.633070949e-4 0.000000000e0
3.700000000e-3 0.000000000e0 0.000000000e0
3.628905537e-3 7.218341915e-4 0.000000000e0
3.418354270e-3 1.415928700e-3 0.000000000e0
3.076437566e-3 2.055609862e-3 0.000000000e0
2.616295090e-3 2.616295090e-3 0.000000000e0
2.055609862e-3 3.076437566e-3 0.000000000e0
1.415928700e-3 3.418354270e-3 0.000000000e0
7.218341915e-4 3.628905537e-3 0.000000000e0
2.265596578e-19 3.700000000e-3 0.000000000e0
-7.218341915e-4 3.628905537e-3 0.000000000e0
-1.415928700e-3 3.418354270e-3 0.000000000e0
-2.055609862e-3 3.076437566e-3 0.000000000e0
-2.616295090e-3 2.616295090e-3 0.000000000e0
-3.076437566e-3 2.055609862e-3 0.000000000e0
-3.418354270e-3 1.415928700e-3 0.000000000e0
-3.628905537e-3 7.218341915e-4 0.000000000e0
-3.700000000e-3 4.531193157e-19 0.000000000e0
-3.628905537e-3 -7.218341915e-4 0.000000000e0
-3.418354270e-3 -1.415928700e-3 0.000000000e0
-3.076437566e-3 -2.055609862e-3 0.000000000e0
-2.616295090e-3 -2.616295090e-3 0.000000000e0
-2.055609862e-3 -3.076437566e-3 0.000000000e0
-1.415928700e-3 -3.418354270e-3 0.000000000e0
-7.218341915e-4 -3.628905537e-3 0.000000000e0
-6.796789735e-19 -3.700000000e-3 0.000000000e0
7.218341915e-4 -3.628905537e-3 0.000000000e0
1.415928700e-3 -3.418354270e-3 0.000000000e0
2.055609862e-3 -3.076437566e-3 0.000000000e0
2.616295090e-3 -2.616295090e-3 0.000000000e0
3.076437566e-3 -2.055609862e-3 0.000000000e0
3.418354270e-3 -1.415928700e-3 0.000000000e0
3.628905537e-3 -7.218341915e-4 0.000000000e0
4.000000000e-3 0.000000000e0 0.000000000e0
3.923141122e-3 7.803612881e-4 0.000000000e0
3.695518130e-3 1.530733729e-3 0.000000000e0
3.325878449e-3 2.222280932e-3 0.000000000e0
2.828427125e-3 2.828427125e-3 0.000000000e0
2.222280932e-3 3.325878449e-3 0.000000000e0
1.530733729e-3 3.695518130e-3 0.000000000e0
7.803612881e-4 3.923141122e-3 0.000000000e0
2.449293598e-19 4.000000000e-3 0.000000000e0
-7.803612881e-4 3.923141122e-3 0.000000000e0
-1.530733729e-3 3.695518130e-3 0.000000000e0
-2.222280932e-3 3.325878449e-3 0.000000000e0
-2.828427125e-3 2.828427125e-3 0.000000000e0
-3.325878449e-3 2.222280932e-3 0.000000000e0
-3.695518130e-3 1.530733729e-3 0.000000000e0
-3.923141122e-3 7.803612881e-4 0.000000000e0
-4.000000000e-3 4.898587197e-19 0.000000000e0
-3.923141122e-3 -7.803612881e-4 0.000000000e0
-3.695518130e-3 -1.530733729e-3 0.000000000e0
-3.325878449e-3 -2.222280932e-3 0.000000000e0
-2.828427125e-3 -2.828427125e-3 0.000000000e0
-2.222280932e-3 -3.325878449e-3 0.000000000e0
-1.530733729e-3 -3.695518130e-3 0.000000000e0
-7.803612881e-4 -3.923141122e-3 0.000000000e0
-7.347880795e-19 -4.000000000e-3 0.000000000e0
7.803612881e-4 -3.923141122e-3 0.000000000e0
1.530733729e-3 -3.695518130e-3 0.000000000e0
2.222280932e-3 -3.325878449e-3 0.000000000e0
2.828427125e-3 -2.828427125e-3 0.000000000e0
3.325878449e-3 -2.222280932e-3 0.000000000e0
3.695518130e-3 -1.530733729e-3 0.000000000e0
3.923141122e-3 -7.803612881e-4 0.000000000e0
CELLS 640 2560
3 0 32 33
3 0 33 1
3 1 33 34
3 1 34 2
3 2 34 35
3 2 35 3
3 3 35 36
3 3 36 4
3 4 36 37
3 4 37 5
3 5 37 38
3 5 38 6
3 6 38 39
3 6 39 7
3 7 39 40
3 7 40 8
3 8 40 41
3 8 41 9
3 9 41 42
3 9 42 10
3 10 42 43
3 10 43 11
3 11 43 44
3 11 44 12
3 12 44 45
3 12 45 13
3 13 45 46
3 13 46 14
3 14 46 47
3 14 47 15
3 15 47 48
3 15 48 16
3 16 48 49
3 16 49 17
3 17 49 50
3 17 50 18
3 18 50 51
3 18 51 19
3 19 51 52
3 19 52 20
3 20 52 53
3 20 53 21
3 21 53 54
3 21 54 22
3 22 54 55
3 22 55 23
3 23 55 56
3 23 56 24
3 24 56 57
3 24 57 25
3 25 57 58
3 25 58 26
3 26 58 59
3 26 59 27
3 27 59 60
3 27 60 28
3 28 60 61
3 28 61 29
3 29 61 62
3 29 62 30
3 30 62 63
3 30 63 31
3 31 63 32
3 31 32 0
3 32 64 65
3 32 65 33
3 33 65 66
3 33 66 34
3 34 66 67
3 34 67 35
3 35 67 68
3 35 68 36
3 36 68 69
3 36 69 37
3 37 69 70
3 37 70 38
3 38 70 71
3 38 71 39
3 39 71 72
3 39 72 40
3 40 72 73
3 40 73 41
3 41 73 74
3 41 74 42
3 42 74 75
3 42 75 43
3 43 75 76
3 43 76 44
3 44 76 77
3 44 77 45
3 45 77 78
3 45 78 46
3 46 78 79
3 46 79 47
3 47 79 80
3 47 80 48
3 48 80 81
3 48 81 49
3 49 81 82
3 49 82 50
3 50 82 83
3 50 83 51
3 51 83 84
3 51 84 52
3 52 84 85
3 52 85 53
3 53 85 86
3 53 86 54
3 54 86 87
3 54 87 55
3 55 87 88
3 55 88 56
3 56 88 89
3 56 89 57
3 57 89 90
3 57 90 58
3 58 90 91
3 58 91 59
3 59 91 92
3 59 92 60
3 60 92 93
3 60 93 61
3 61 93 94
3 61 94 62
3 62 94 95
3 62 95 63
3 63 95 64
3 63 64 32
3 64 96 97
3 64 97 65
3 65 97 98
3 65 98 66
3 66 98 99
3 66 99 67
3 67 99 100
3 67 100 68
3 68 100 101
3 68 101 69
3 69 101 102
3 69 102 70
3 70 102 103
3 70 103 71
3 71 103 104
3 71 104 72
3 72 104 105
3 72 105 73
3 73 105 106
3 73 106 74
3 74 106 107
3 74 107 75
3 75 107 108
3 75 108 76
3 76 108 109
3 76 109 77
3 77 109 110
3 77 110 78
3 78 110 111
3 78 111 79
3 79 111 112
3 79 112 80
3 80 112 113
3 80 113 81
3 81 113 114
3 81 114 82
3 82 114 115
3 82 115 83
3 83 115 116
3 83 116 84
3 84 116 117
3 84 117 85
3 85 117 118
3 85 118 86
3 86 118 119
3 86 119 87
3 87 119 120
3 87 120 88
3 88 120 121
3 88 121 89
3 89 121 122
3 89 122 90
3 90 122 123
3 90 123 91
3 91 123 124
3 91 124 92
3 92 124 125
3 92 125 93
3 93 125 126
3 93 126 94
3 94 126 127
3 94 127 95
3 95 127 96
3 95 96 64
3 96 128 129
3 96 129 97
3 97 129 130
3 97 130 98
3 98 130 131
3 98 131 99
3 99 131 132
3 99 132 100
3 100 132 133
3 100 133 101
3 101 133 134
3 101 134 102
3 102 134 135
3 102 135 103
3 103 135 136
3 103 136 104
3 104 136 137
3 104 137 105
3 105 137 138
3 105 138 106
3 106 138 139
3 106 139 107
3 107 139 140
3 107 140 108
3 108 140 141
3 108 141 109
3 109 141 142
3 109 142 110
3 110 142 143
3 110 143 111
3 111 143 144
3 111 144 112
3 112 144 145
3 112 145 113
3 113 145 146
3 113 146 114
3 114 146 147
3 114 147 115
3 115 147 148
3 115 148 116
3 116 148 149
3 116 149 117
3 117 149 150
3 117 150 118
3 118 150 151
3 118 151 119
3 119 151 152
3 119 152 120
3 120 152 153
3 120 153 121
3 121 153 154
3 121 154 122
3 122 154 155
3 122 155 123
3 123 155 156
3 123 156 124
3 124 156 157
3 124 157 125
3 125 157 158
3 125 158 126
3 126 158 159
3 126 159 127
3 127 159 128
3 127 128 96
3 128 160 161
3 128 161 129
3 129 161 162
3 129 162 130
3 130 162 163
3 130 163 131
3 131 163 164
3 131 164 132
3 132 164 165
3 132 165 133
3 133 165 166
3 133 166 134
3 134 166 167
3 134 167 135
3 135 167 168
3 135 168 136
3 136 168 169
3 136 169 137
3 137 169 170
3 137 170 138
3 138 170 171
3 138 171 139
3 139 171 172
3 139 172 140
3 140 172 173
3 140 173 141
3 141 173 174
3 141 174 142
3 142 174 175
3 142 175 143
3 143 175 176
3 143 176 144
3 144 176 177
3 144 177 145
3 145 177 178
3 145 178 146
3 146 178 179
3 146 179 147
3 147 179 180
3 147 180 148
3 148 180 181
3 148 181 149
3 149 181 182
3 149 182 150
3 150 182 183
3 150 183 151
3 151 183 184
3 151 184 152
3 152 184 185
3 152 185 153
3 153 185 186
3 153 186 154
3 154 186 187
3 154 187 155
3 155 187 188
3 155 188 156
3 156 188 189
3 156 189 157
3 157 189 190
3 157 190 158
3 158 190 191
3 158 191 159
3 159 191 160
3 159 160 128
3 160 192 193
3 160 193 161
3 161 193 194
3 161 194 162
3 162 194 195
3 162 195 163
3 163 195 196
3 163 196 164
3 164 196 197
3 164 197 165
3 165 197 198
3 165 198 166
3 166 198 199
3 166 199 167
3 167 199 200
3 167 200 168
3 168 200 201
3 168 201 169
3 169 201 202
3 169 202 170
3 170 202 203
3 170 203 171
3 171 203 204
3 171 204 172
3 172 204 205
3 172 205 173
3 173 205 206
3 173 206 174
3 174 206 207
3 174 207 175
3 175 207 208
3 175 208 176
3 176 208 209
3 176 209 177
3 177 209 210
3 177 210 178
3 178 210 211
3 178 211 179
3 179 211 212
3 179 212 180
3 180 212 213
3 180 213 181
3 181 213 214
3 181 214 182
3 182 214 215
3 182 215 183
3 183 215 216
3 183 216 184
3 184 216 217
3 184 217 185
3 185 217 218
3 185 218 186
3 186 218 219
3 186 219 187
3 187 219 220
3 187 220 188
3 188 220 221
3 188 221 189
3 189 221 222
3 189 222 190
3 190 222 223
3 190 223 191
3 191 223 192
3 191 192 160
3 192 224 225
3 192 225 193
3 193 225 226
3 193 226 194
3 194 226 227
3 194 227 195
3 195 227 228
3 195 228 196
3 196 228 229
3 196 229 197
3 197 229 230
3 197 230 198
3 198 230 231
3 198 231 199
3 199 231 232
3 199 232 200
3 200 232 233
3 200 233 201
3 201 233 234
3 201 234 202
3 202 234 235
3 202 235 203
3 203 235 236
3 203 236 204
3 204 236 237
3 204 237 205
3 205 237 238
3 205 238 206
3 206 238 239
3 206 239 207
3 207 239 240
3 207 240 208
3 208 240 241
3 208 241 209
3 209 241 242
3 209 242 210
3 210 242 243
3 210 243 211
3 211 243 244
3 211 244 212
3 212 244 245
3 212 245 213
3 213 245 246
3 213 246 214
3 214 246 247
3 214 247 215
3 215 247 248
3 215 248 216
3 216 248 249
3 216 249 217
3 217 249 250
3 217 250 218
3 218 250 251
3 218 251 219
3 219 251 252
3 219 252 220
3 220 252 253
3 220 253 221
3 221 253 254
3 221 254 222
3 222 254 255
3 222 255 223
3 223 255 224
3 223 224 192
3 224 256 257
3 224 257 225
3 225 257 258
3 225 258 226
3 226 258 259
3 226 259 227
3 227 259 260
3 227 260 228
3 228 260 261
3 228 261 229
3 229 261 262
3 229 262 230
3 230 262 263
3 230 263 231
3 231 263 264
3 231 264 232
3 232 264 265
3 232 265 233
3 233 265 266
3 233 266 234
3 234 266 267
3 234 267 235
3 235 267 268
3 235 268 236
3 236 268 269
3 236 269 237
3 237 269 270
3 237 270 238
3 238 270 271
3 238 271 239
3 239 271 272
3 239 272 240
3 240 272 273
3 240 273 241
3 241 273 274
3 241 274 242
3 242 274 275
3 242 275 243
3 243 275 276
3 243 276 244
3 244 276 277
3 244 277 245
3 245 277 278
3 245 278 246
3 246 278 279
3 246 279 247
3 247 279 280
3 247 280 248
3 248 280 281
3 248 281 249
3 249 281 282
3 249 282 250
3 250 282 283
3 250 283 251
3 251 283 284
3 251 284 252
3 252 284 285
3 252 285 253
3 253 285 286
3 253 286 254
3 254 286 287
3 254 287 255
3 255 287 256
3 255 256 224
3 256 288 289
3 256 289 257
3 257 289 290
3 257 290 258
3 258 290 291
3 258 291 259
3 259 291 292
3 259 292 260
3 260 292 293
3 260 293 261
3 261 293 294
3 261 294 262
3 262 294 295
3 262 295 263
3 263 295 296
3 263 296 264
3 264 296 297
3 264 297 265
3 265 297 298
3 265 298 266
3 266 298 299
3 266 299 267
3 267 299 300
3 267 300 268
3 268 300 301
3 268 301 269
3 269 301 302
3 269 302 270
3 270 302 303
3 270 303 271
3 271 303 304
3 271 304 272
3 272 304 305
3 272 305 273
3 273 305 306
3 273 306 274
3 274 306 307
3 274 307 275
3 275 307 308
3 275 308 276
3 276 308 309
3 276 309 277
3 277 309 310
3 277 310 278
3 278 310 311
3 278 311 279
3 279 311 312
3 279 312 280
3 280 312 313
3 280 313 281
3 281 313 314
3 281 314 282
3 282 314 315
3 282 315 283
3 283 315 316
3 283 316 284
3 284 316 317
3 284 317 285
3 285 317 318
3 285 318 286
3 286 318 319
3 286 319 287
3 287 319 288
3 287 288 256
3 288 320 321
3 288 321 289
3 289 321 322
3 289 322 290
3 290 322 323
3 290 323 291
3 291 323 324
3 291 324 292
3 292 324 325
3 292 325 293
3 293 325 326
3 293 326 294
3 294 326 327
3 294 327 295
3 295 327 328
3 295 328 296
3 296 328 329
3 296 329 297
3 297 329 330
3 297 330 298
3 298 330 331
3 298 331 299
3 299 331 332
3 299 332 300
3 300 332 333
3 300 333 301
3 301 333 334
3 301 334 302
3 302 334 335
3 302 335 303
3 303 335 336
3 303 336 304
3 304 336 337
3 304 337 305
3 305 337 338
3 305 338 306
3 306 338 339
3 306 339 307
3 307 339 340
3 307 340 308
3 308 340 341
3 308 341 309
3 309 341 342
3 309 342 310
3 310 342 343
3 310 343 311
3 311 343 344
3 311 344 312
3 312 344 345
3 312 345 313
3 313 345 346
3 313 346 314
3 314 346 347
3 314 347 315
3 315 347 348
3 315 348 316
3 316 348 349
3 316 349 317
3 317 349 350
3 317 350 318
3 318 350 351
3 318 351 319
3 319 351 320
3 319 320 288
CELL_TYPES 640
5
5
5
5
5
5
5
5
5
5
5
5
5
5
5
5
5
5
5
5
5
5
5
5
5
5
5
5
5
5
5
5
5
5
5
5
5
5
5
5
5
5
5
5
5
5
5
5
5
5
5
5
5
5
5
5
5
5
5
5
5
5
5
5
5
5
5
5
5
5
5
5
5
5
5
5
5
5
5
5
5
5
5
5
5
5
5
5
5
5
5
5
5
5
5
5
5
5
5
5
5
5
5
5
5
5
5
5
5
5
5
5
5
5
5
5
5
5
5
5
5
5
5
5
5
5
5
5
5
5
5
5
5
5
5
5
5
5
5
5
5
5
5
5
5
5
5
5
5
5
5
5
5
5
5
5
5
5
5
5
5
5
5
5
5
5
5
5
5
5
5
5
5
5
5
5
5
5
5
5
5
5
5
5
5
5
5
5
5
5
5
5
5
5
5
5
5
5
5
5
5
5
5
5
5
5
5
5
5
5
5
5
5
5
5
5
5
5
5
5
5
5
5
5
5
5
5
5
5
5
5
5
5
5
5
5
5
5
5
5
5
5
5
5
5
5
5
5
5
5
5
5
5
5
5
5
5
5
5
5
5
5
5
5
5
5
5
5
5
5
5
5
5
5
5
5
5
5
5
5
5
5
5
5
5
5
5
5
5
5
5
5
5
5
5
5
5
5
5
5
5
5
5
5
5
5
5
5
5
5
5
5
5
5
5
5
5
5
5
5
5
5
5
5
5
5
5
5
5
5
5
5
5
5
5
5
5
5
5
5
5
5
5
5
5
5
5
5
5
5
5
5
5
5
5
5
5
5
5
5
5
5
5
5
5
5
5
5
5
5
5
5
5
5
5
5
5
5
5
5
5
5
5
5
5
5
5
5
5
5
5
5
5
5
5
5
5
5
5
5
5
5
5
5
5
5
5
5
5
5
5
5
5
5
5
5
5
5
5
5
5
5
5
5
5
5
5
5
5
5
5
5
5
5
5
5
5
5
5
5
5
5
5
5
5
5
5
5
5
5
5
5
5
5
5
5
5
5
5
5
5
5
5
5
5
5
5
5
5
5
5
5
5
5
5
5
5
5
5
5
5
5
5
5
5
5
5
5
5
5
5
5
5
5
5
5
5
5
5
5
5
5
5
5
5
5
5
5
5
5
5
5
5
5
5
5
5
5
5
5
5
5
5
5
5
5
5
5
5
5
5
5
5
5
5
5
5
5
5
5
5
5
5
5
5
5
5
5
5
5
5
5
5
5
5
5
5
5
5
5
5
5
5
5
5
5
5
5
5
5
5
5
5
5
5
5
5
5
5
5
5
5
5
5
5
5
5
5
5
5
5
5
5
5
5
5
5
5
5
5
5
5
5
5
5
5
5
5
5
5
5
5
5
5
5
5
5
5
5
5
5
5
5
5
5
5
5
5
5
5
5
5
5
5
5
5
5
5
5
5
POINT_DATA 352
SCALARS phi double 1
LOOKUP_TABLE default
1.000000000e0
1.000000000e0
1.000000000e0
1.000000000e0
1.000000000e0
1.000000000e0
1.000000000e0
1.000000000e0
1.000000000e0
1.000000000e0
1.000000000e0
1.000000000e0
1.000000000e0
1.000000000e0
1.000000000e0
1.000000000e0
1.000000000e0
1.000000000e0
1.000000000e0
1.000000000e0
1.000000000e0
1.000000000e0
1.000000000e0
1.000000000e0
1.000000000e0
1.000000000e0
1.000000000e0
1.000000000e0
1.000000000e0
1.000000000e0
1.000000000e0
1.000000000e0
8.113516327e-1
8.113516327e-1
8.113516327e-1
8.113516327e-1
8.113516327e-1
8.113516327e-1
8.113516327e-1
8.113516327e-1
8.113516327e-1
8.113516327e-1
8.113516327e-1
8.113516327e-1
8.113516327e-1
8.113516327e-1
8.113516327e-1
8.113516327e-1
8.113516327e-1
8.113516327e-1
8.113516327e-1
8.113516327e-1
8.113516327e-1
8.113516327e-1
8.113516327e-1
8.113516327e-1
8.113516327e-1
8.113516327e-1
8.113516327e-1
8.113516327e-1
8.113516327e-1
8.113516327e-1
8.113516327e-1
8.113516327e-1
6.617339621e-1
6.617339621e-1
6.617339621e-1
6.617339621e-1
6.617339621e-1
6.617339621e-1
6.617339621e-1
6.617339621e-1
6.617339621e-1
6.617339621e-1
6.617339621e-1
6.617339621e-1
6.617339621e-1
6.617339621e-1
6.617339621e-1
6.617339621e-1
6.617339621e-1
6.617339621e-1
6.617339621e-1
6.617339621e-1
6.617339621e-1
6.617339621e-1
6.617339621e-1
6.617339621e-1
6.617339621e-1
6.617339621e-1
6.617339621e-1
6.617339621e-1
6.617339621e-1
6.617339621e-1
6.617339621e-1
6.617339621e-1
5.377650350e-1
5.377650350e-1
5.377650350e-1
5.377650350e-1
5.377650350e-1
5.377650350e-1
5.377650350e-1
5.377650350e-1
5.377650350e-1
5.377650350e-1
5.377650350e-1
5.377650350e-1
5.377650350e-1
5.377650350e-1
5.377650350e-1
5.377650350e-1
5.377650350e-1
5.377650350e-1
5.377650350e-1
5.377650350e-1
5.377650350e-1
5.377650350e-1
5.377650350e-1
5.377650350e-1
5.377650350e-1
5.377650350e-1
5.377650350e-1
5.377650350e-1
5.377650350e-1
5.377650350e-1
5.377650350e-1
5.377650350e-1
4.319379021e-1
4.319379021e-1
4.319379021e-1
4.319379021e-1
4.319379021e-1
4.319379021e-1
4.319379021e-1
4.319379021e-1
4.319379021e-1
4.319379021e-1
4.319379021e-1
4.319379021e-1
4.319379021e-1
4.319379021e-1
4.319379021e-1
4.319379021e-1
4.319379021e-1
4.319379021e-1
4.319379021e-1
4.319379021e-1
4.319379021e-1
4.319379021e-1
4.319379021e-1
4.319379021e-1
4.319379021e-1
4.319379021e-1
4.319379021e-1
4.319379021e-1
4.319379021e-1
4.319379021e-1
4.319379021e-1
4.319379021e-1
3.396206160e-1
3.396206160e-1
3.396206160e-1
3.396206160e-1
3.396206160e-1
3.396206160e-1
3.396206160e-1
3.396206160e-1
3.396206160e-1
3.396206160e-1
3.396206160e-1
3.396206160e-1
3.396206160e-1
3.396206160e-1
3.396206160e-1
3.396206160e-1
3.396206160e-1
3.396206160e-1
3.396206160e-1
3.396206160e-1
3.396206160e-1
3.396206160e-1
3.396206160e-1
3.396206160e-1
3.396206160e-1
3.396206160e-1
3.396206160e-1
3.396206160e-1
3.396206160e-1
3.396206160e-1
3.396206160e-1
3.396206160e-1
2.577543434e-1
2.577543434e-1
2.577543434e-1
2.577543434e-1
2.577543434e-1
2.577543434e-1
2.577543434e-1
2.577543434e-1
2.577543434e-1
2.577543434e-1
2.577543434e-1
2.577543434e-1
2.577543434e-1
2.577543434e-1
2.577543434e-1
2.577543434e-1
2.577543434e-1
2.577543434e-1
2.577543434e-1
2.577543434e-1
2.577543434e-1
2.577543434e-1
2.577543434e-1
2.577543434e-1
2.577543434e-1
2.577543434e-1
2.577543434e-1
2.577543434e-1
2.577543434e-1
2.577543434e-1
2.577543434e-1
2.577543434e-1
1.842134544e-1
1.842134544e-1
1.842134544e-1
1.842134544e-1
1.842134544e-1
1.842134544e-1
1.842134544e-1
1.842134544e-1
1.842134544e-1
1.842134544e-1
1.842134544e-1
1.842134544e-1
1.842134544e-1
1.842134544e-1
1.842134544e-1
1.842134544e-1
1.842134544e-1
1.842134544e-1
1.842134544e-1
1.842134544e-1
1.842134544e-1
1.842134544e-1
1.842134544e-1
1.842134544e-1
1.842134544e-1
1.842134544e-1
1.842134544e-1
1.842134544e-1
1.842134544e-1
1.842134544e-1
1.842134544e-1
1.842134544e-1
1.174609552e-1
1.174609552e-1
1.174609552e-1
1.174609552e-1
1.174609552e-1
1.174609552e-1
1.174609552e-1
1.174609552e-1
1.174609552e-1
1.174609552e-1
1.174609552e-1
1.174609552e-1
1.174609552e-1
1.174609552e-1
1.174609552e-1
1.174609552e-1
1.174609552e-1
1.174609552e-1
1.174609552e-1
1.174609552e-1
1.174609552e-1
1.174609552e-1
1.174609552e-1
1.174609552e-1
1.174609552e-1
1.174609552e-1
1.174609552e-1
1.174609552e-1
1.174609552e-1
1.174609552e-1
1.174609552e-1
1.174609552e-1
5.634951231e-2
5.634951231e-2
5.634951231e-2
5.634951231e-2
5.634951231e-2
5.634951231e-2
5.634951231e-2
5.634951231e-2
5.634951231e-2
5.634951231e-2
5.634951231e-2
5.634951231e-2
5.634951231e-2
5.634951231e-2
5.634951231e-2
5.634951231e-2
5.634951231e-2
5.634951231e-2
5.634951231e-2
5.634951231e-2
5.634951231e-2
5.634951231e-2
5.634951231e-2
5.634951231e-2
5.634951231e-2
5.634951231e-2
5.634951231e-2
5.634951231e-2
5.634951231e-2
5.634951231e-2
5.634951231e-2
5.634951231e-2
0.000000000e0
0.000000000e0
0.000000000e0
0.000000000e0
0.000000000e0
0.000000000e0
0.000000000e0
0.000000000e0
0.000000000e0
0.000000000e0
0.000000000e0
0.000000000e0
0.000000000e0
0.000000000e0
0.000000000e0
0.000000000e0
0.000000000e0
0.000000000e0
0.000000000e0
0.000000000e0
0.000000000e0
0.000000000e0
0.000000000e0
0.000000000e0
0.000000000e0
0.000000000e0
0.000000000e0
0.000000000e0
0.000000000e0
0.000000000e0
0.000000000e0
0.000000000e0
VECTORS E_field double
6.288278910e2 2.064471382e1 0.000000000e0
6.127175555e2 1.429262672e2 0.000000000e0
5.730608280e2 2.597152442e2 0.000000000e0
5.113816943e2 3.665235101e2 0.000000000e0
4.300504488e2 4.592464831e2 0.000000000e0
3.321926057e2 5.343208712e2 0.000000000e0
2.215687871e2 5.888616079e2 0.000000000e0
1.024302043e2 6.207727233e2 0.000000000e0
-2.064471382e1 6.288278910e2 0.000000000e0
-1.429262672e2 6.127175555e2 0.000000000e0
-2.597152442e2 5.730608280e2 0.000000000e0
-3.665235101e2 5.113816943e2 0.000000000e0
-4.592464831e2 4.300504488e2 0.000000000e0
-5.343208712e2 3.321926057e2 0.000000000e0
-5.888616079e2 2.215687871e2 0.000000000e0
-6.207727233e2 1.024302043e2 0.000000000e0
-6.288278910e2 -2.064471382e1 0.000000000e0
-6.127175555e2 -1.429262672e2 0.000000000e0
-5.730608280e2 -2.597152442e2 0.000000000e0
-5.113816943e2 -3.665235101e2 0.000000000e0
-4.300504488e2 -4.592464831e2 0.000000000e0
-3.321926057e2 -5.343208712e2 0.000000000e0
-2.215687871e2 -5.888616079e2 0.000000000e0
-1.024302043e2 -6.207727233e2 0.000000000e0
2.064471382e1 -6.288278910e2 0.000000000e0
1.429262672e2 -6.127175555e2 0.000000000e0
2.597152442e2 -5.730608280e2 0.000000000e0
3.665235101e2 -5.113816943e2 0.000000000e0
4.592464831e2 -4.300504488e2 0.000000000e0
5.343208712e2 -3.321926057e2 0.000000000e0
5.888616079e2 -2.215687871e2 0.000000000e0
6.207727233e2 -1.024302043e2 0.000000000e0
5.637767299e2 -2.135660050e0 0.000000000e0
5.533605647e2 1.078927598e2 0.000000000e0
5.216790634e2 2.137749215e2 0.000000000e0
4.699497282e2 3.114418328e2 0.000000000e0
4.001604885e2 3.971402091e2 0.000000000e0
3.149933056e2 4.675767099e2 0.000000000e0
2.177211067e2 5.200444999e2 0.000000000e0
1.120820077e2 5.525272715e2 0.000000000e0
2.135660050e0 5.637767299e2 0.000000000e0
-1.078927598e2 5.533605647e2 0.000000000e0
-2.137749215e2 5.216790634e2 0.000000000e0
-3.114418328e2 4.699497282e2 0.000000000e0
-3.971402091e2 4.001604885e2 0.000000000e0
-4.675767099e2 3.149933056e2 0.000000000e0
-5.200444999e2 2.177211067e2 0.000000000e0
-5.525272715e2 1.120820077e2 0.000000000e0
-5.637767299e2 2.135660050e0 0.000000000e0
-5.533605647e2 -1.078927598e2 0.000000000e0
-5.216790634e2 -2.137749215e2 0.000000000e0
-4.699497282e2 -3.114418328e2 0.000000000e0
-4.001604885e2 -3.971402091e2 0.000000000e0
-3.149933056e2 -4.675767099e2 0.000000000e0
-2.177211067e2 -5.200444999e2 0.000000000e0
-1.120820077e2 -5.525272715e2 0.000000000e0
-2.135660051e0 -5.637767299e2 0.000000000e0
1.078927598e2 -5.533605647e2 0.000000000e0
2.137749215e2 -5.216790634e2 0.000000000e0
3.114418328e2 -4.699497282e2 0.000000000e0
3.971402091e2 -4.001604885e2 0.000000000e0
4.675767099e2 -3.149933056e2 0.000000000e0
5.200444999e2 -2.177211067e2 0.000000000e0
5.525272715e2 -1.120820077e2 0.000000000e0
4.559776628e2 -1.403433747e0 0.000000000e0
4.474899762e2 8.758036191e1 0.000000000e0
4.218055008e2 1.731984934e2 0.000000000e0
3.799112766e2 2.521607039e2 0.000000000e0
3.234172750e2 3.214325199e2 0.000000000e0
2.544945289e2 3.783518645e2 0.000000000e0
1.757917008e2 4.207313591e2 0.000000000e0
9.033329624e1 4.469423836e2 0.000000000e0
1.403433747e0 4.559776628e2 0.000000000e0
-8.758036191e1 4.474899762e2 0.000000000e0
-1.731984934e2 4.218055008e2 0.000000000e0
-2.521607039e2 3.799112766e2 0.000000000e0
-3.214325199e2 3.234172750e2 0.000000000e0
-3.783518645e2 2.544945289e2 0.000000000e0
-4.207313591e2 1.757917008e2 0.000000000e0
-4.469423836e2 9.033329624e1 0.000000000e0
-4.559776628e2 1.403433747e0 0.000000000e0
-4.474899762e2 -8.758036191e1 0.000000000e0
-4.218055008e2 -1.731984934e2 0.000000000e0
-3.799112766e2 -2.521607039e2 0.000000000e0
-3.234172750e2 -3.214325199e2 0.000000000e0
-2.544945289e2 -3.783518645e2 0.000000000e0
-1.757917008e2 -4.207313591e2 0.000000000e0
-9.033329624e1 -4.469423836e2 0.000000000e0
-1.403433747e0 -4.559776628e2 0.000000000e0
8.758036191e1 -4.474899762e2 0.000000000e0
1.731984934e2 -4.218055008e2 0.000000000e0
2.521607039e2 -3.799112766e2 0.000000000e0
3.214325199e2 -3.234172750e2 0.000000000e0
3.783518645e2 -2.544945289e2 0.000000000e0
4.207313591e2 -1.757917008e2 0.000000000e0
4.469423836e2 -9.033329624e1 0.000000000e0
3.829934333e2 -9.926726505e-1 0.000000000e0
3.758279827e2 7.374471350e1 0.000000000e0
3.542196735e2 1.456481317e2 0.000000000e0
3.189989009e2 2.119543738e2 0.000000000e0
2.715191794e2 2.701153283e2 0.000000000e0
2.136051281e2 3.178959021e2 0.000000000e0
1.474823516e2 3.534599147e2 0.000000000e0
7.569191095e1 3.754406610e2 0.000000000e0
9.926726505e-1 3.829934333e2 0.000000000e0
-7.374471350e1 3.758279827e2 0.000000000e0
-1.456481317e2 3.542196735e2 0.000000000e0
-2.119543738e2 3.189989009e2 0.000000000e0
-2.701153283e2 2.715191794e2 0.000000000e0
-3.178959021e2 2.136051281e2 0.000000000e0
-3.534599147e2 1.474823516e2 0.000000000e0
-3.754406610e2 7.569191095e1 0.000000000e0
-3.829934333e2 9.926726505e-1 0.000000000e0
-3.758279827e2 -7.374471350e1 0.000000000e0
-3.542196735e2 -1.456481317e2 0.000000000e0
-3.189989009e2 -2.119543738e2 0.000000000e0
-2.715191794e2 -2.701153283e2 0.000000000e0
-2.136051281e2 -3.178959021e2 0.000000000e0
-1.474823516e2 -3.534599147e2 0.000000000e0
-7.569191095e1 -3.754406610e2 0.000000000e0
-9.926726504e-1 -3.829934333e2 0.000000000e0
7.374471350e1 -3.758279827e2 0.000000000e0
1.456481317e2 -3.542196735e2 0.000000000e0
2.119543738e2 -3.189989009e2 0.000000000e0
2.701153283e2 -2.715191794e2 0.000000000e0
3.178959021e2 -2.136051281e2 0.000000000e0
3.534599147e2 -1.474823516e2 0.000000000e0
3.754406610e2 -7.569191095e1 0.000000000e0
3.302406983e2 -7.392243143e-1 0.000000000e0
3.240394314e2 6.370174386e1 0.000000000e0
3.053855109e2 1.256946897e2 0.000000000e0
2.749957964e2 1.828572592e2 0.000000000e0
2.340381477e2 2.329927267e2 0.000000000e0
1.840865443e2 2.741744144e2 0.000000000e0
1.270605982e2 3.048197331e2 0.000000000e0
6.515178451e1 3.237510004e2 0.000000000e0
7.392243142e-1 3.302406983e2 0.000000000e0
-6.370174386e1 3.240394314e2 0.000000000e0
-1.256946897e2 3.053855109e2 0.000000000e0
-1.828572592e2 2.749957964e2 0.000000000e0
-2.329927267e2 2.340381477e2 0.000000000e0
-2.741744144e2 1.840865443e2 0.000000000e0
-3.048197331e2 1.270605982e2 0.000000000e0
-3.237510004e2 6.515178451e1 0.000000000e0
-3.302406983e2 7.392243142e-1 0.000000000e0
-3.240394314e2 -6.370174386e1 0.000000000e0
-3.053855109e2 -1.256946897e2 0.000000000e0
-2.749957964e2 -1.828572592e2 0.000000000e0
-2.340381477e2 -2.329927267e2 0.000000000e0
-1.840865443e2 -2.741744144e2 0.000000000e0
-1.270605982e2 -3.048197331e2 0.000000000e0
-6.515178451e1 -3.237510004e2 0.000000000e0
-7.392243143e-1 -3.302406983e2 0.000000000e0
6.370174386e1 -3.240394314e2 0.000000000e0
1.256946897e2 -3.053855109e2 0.000000000e0
1.828572592e2 -2.749957964e2 0.000000000e0
2.329927267e2 -2.340381477e2 0.000000000e0
2.741744144e2 -1.840865443e2 0.000000000e0
3.048197331e2 -1.270605982e2 0.000000000e0
3.237510004e2 -6.515178451e1 0.000000000e0
2.903059312e2 -5.718527713e-1 0.000000000e0
2.848393471e2 5.607501282e1 0.000000000e0
2.684265466e2 1.105669471e2 0.000000000e0
2.416982645e2 1.608098557e2 0.000000000e0
2.056816536e2 2.048729316e2 0.000000000e0
1.617608121e2 2.410628557e2 0.000000000e0
1.116235933e2 2.679888694e2 0.000000000e0
5.719674238e1 2.846162212e2 0.000000000e0
5.718527714e-1 2.903059312e2 0.000000000e0
-5.607501282e1 2.848393471e2 0.000000000e0
-1.105669471e2 2.684265466e2 0.000000000e0
-1.608098557e2 2.416982645e2 0.000000000e0
-2.048729316e2 2.056816536e2 0.000000000e0
-2.410628557e2 1.617608121e2 0.000000000e0
-2.679888694e2 1.116235933e2 0.000000000e0
-2.846162212e2 5.719674238e1 0.000000000e0
-2.903059312e2 5.718527714e-1 0.000000000e0
-2.848393471e2 -5.607501282e1 0.000000000e0
-2.684265466e2 -1.105669471e2 0.000000000e0
-2.416982645e2 -1.608098557e2 0.000000000e0
-2.056816536e2 -2.048729316e2 0.000000000e0
-1.617608121e2 -2.410628557e2 0.000000000e0
-1.116235933e2 -2.679888694e2 0.000000000e0
-5.719674238e1 -2.846162212e2 0.000000000e0
-5.718527713e-1 -2.903059312e2 0.000000000e0
5.607501282e1 -2.848393471e2 0.000000000e0
1.105669471e2 -2.684265466e2 0.000000000e0
1.608098557e2 -2.416982645e2 0.000000000e0
2.048729316e2 -2.056816536e2 0.000000000e0
2.410628557e2 -1.617608121e2 0.000000000e0
2.679888694e2 -1.116235933e2 0.000000000e0
2.846162212e2 -5.719674238e1 0.000000000e0
2.590119359e2 -4.555437331e-1 0.000000000e0
2.541239664e2 5.008393140e1 0.000000000e0
2.394701553e2 9.869870913e1 0.000000000e0
2.156136405e2 1.435205508e2 0.000000000e0
1.834712144e2 1.828269782e2 0.000000000e0
1.442780924e2 2.151074674e2 0.000000000e0
9.954044419e1 2.391214972e2 0.000000000e0
5.097751257e1 2.539462220e2 0.000000000e0
4.555437331e-1 2.590119359e2 0.000000000e0
-5.008393140e1 2.541239664e2 0.000000000e0
-9.869870913e1 2.394701553e2 0.000000000e0
-1.435205508e2 2.156136405e2 0.000000000e0
-1.828269782e2 1.834712144e2 0.000000000e0
-2.151074674e2 1.442780924e2 0.000000000e0
-2.391214972e2 9.954044419e1 0.000000000e0
-2.539462220e2 5.097751257e1 0.000000000e0
-2.590119359e2 4.555437331e-1 0.000000000e0
-2.541239664e2 -5.008393140e1 0.000000000e0
-2.394701553e2 -9.869870913e1 0.000000000e0
-2.156136405e2 -1.435205508e2 0.000000000e0
-1.834712144e2 -1.828269782e2 0.000000000e0
-1.442780924e2 -2.151074674e2 0.000000000e0
-9.954044419e1 -2.391214972e2 0.000000000e0
-5.097751257e1 -2.539462220e2 0.000000000e0
-4.555437332e-1 -2.590119359e2 0.000000000e0
5.008393140e1 -2.541239664e2 0.000000000e0
9.869870913e1 -2.394701553e2 0.000000000e0
1.435205508e2 -2.156136405e2 0.000000000e0
1.828269782e2 -1.834712144e2 0.000000000e0
2.151074674e2 -1.442780924e2 0.000000000e0
2.391214972e2 -9.954044419e1 0.000000000e0
2.539462220e2 -5.097751257e1 0.000000000e0
2.338223136e2 -3.714433516e-1 0.000000000e0
2.294019484e2 4.525216428e1 0.000000000e0
2.161657950e2 8.913675661e1 0.000000000e0
1.946225113e2 1.295958734e2 0.000000000e0
1.655999936e2 1.650746934e2 0.000000000e0
1.302135611e2 1.942097856e2 0.000000000e0
8.982309443e1 2.158815045e2 0.000000000e0
4.598077662e1 2.292570184e2 0.000000000e0
3.714433516e-1 2.338223136e2 0.000000000e0
-4.525216428e1 2.294019484e2 0.000000000e0
-8.913675661e1 2.161657950e2 0.000000000e0
-1.295958734e2 1.946225113e2 0.000000000e0
-1.650746934e2 1.655999936e2 0.000000000e0
-1.942097856e2 1.302135611e2 0.000000000e0
-2.158815045e2 8.982309443e1 0.000000000e0
-2.292570184e2 4.598077662e1 0.000000000e0
-2.338223136e2 3.714433516e-1 0.000000000e0
-2.294019484e2 -4.525216428e1 0.000000000e0
-2.161657950e2 -8.913675661e1 0.000000000e0
-1.946225113e2 -1.295958734e2 0.000000000e0
-1.655999936e2 -1.650746934e2 0.000000000e0
-1.302135611e2 -1.942097856e2 0.000000000e0
-8.982309443e1 -2.158815045e2 0.000000000e0
-4.598077662e1 -2.292570184e2 0.000000000e0
-3.714433516e-1 -2.338223136e2 0.000000000e0
4.525216428e1 -2.294019484e2 0.000000000e0
8.913675661e1 -2.161657950e2 0.000000000e0
1.295958734e2 -1.946225113e2 0.000000000e0
1.650746934e2 -1.655999936e2 0.000000000e0
1.942097856e2 -1.302135611e2 0.000000000e0
2.158815045e2 -8.982309443e1 0.000000000e0
2.292570184e2 -4.598077662e1 0.000000000e0
2.131065702e2 -3.086641936e-1 0.000000000e0
2.090720046e2 4.127229611e1 0.000000000e0
1.970029191e2 8.126718522e1 0.000000000e0
1.773631220e2 1.181390220e2 0.000000000e0
1.509073595e2 1.504708424e2 0.000000000e0
1.186523118e2 1.770201527e2 0.000000000e0
8.183752228e1 1.967666778e2 0.000000000e0
4.187776270e1 2.089515698e2 0.000000000e0
3.086641936e-1 2.131065702e2 0.000000000e0
-4.127229611e1 2.090720046e2 0.000000000e0
-8.126718522e1 1.970029191e2 0.000000000e0
-1.181390220e2 1.773631220e2 0.000000000e0
-1.504708424e2 1.509073595e2 0.000000000e0
-1.770201527e2 1.186523118e2 0.000000000e0
-1.967666778e2 8.183752228e1 0.000000000e0
-2.089515698e2 4.187776270e1 0.000000000e0
-2.131065702e2 3.086641936e-1 0.000000000e0
-2.090720046e2 -4.127229611e1 0.000000000e0
-1.970029191e2 -8.126718522e1 0.000000000e0
-1.773631220e2 -1.181390220e2 0.000000000e0
-1.509073595e2 -1.504708424e2 0.000000000e0
-1.186523118e2 -1.770201527e2 0.000000000e0
-8.183752228e1 -1.967666778e2 0.000000000e0
-4.187776270e1 -2.089515698e2 0.000000000e0
-3.086641936e-1 -2.131065702e2 0.000000000e0
4.127229611e1 -2.090720046e2 0.000000000e0
8.126718522e1 -1.970029191e2 0.000000000e0
1.181390220e2 -1.773631220e2 0.000000000e0
1.504708424e2 -1.509073595e2 0.000000000e0
1.770201527e2 -1.186523118e2 0.000000000e0
1.967666778e2 -8.183752228e1 0.000000000e0
2.089515698e2 -4.187776270e1 0.000000000e0
1.957682587e2 -2.605606829e-1 0.000000000e0
1.920574594e2 3.793693855e1 0.000000000e0
1.809659996e2 7.467654252e1 0.000000000e0
1.629201179e2 1.085463688e2 0.000000000e0
1.386133075e2 1.382448191e2 0.000000000e0
1.089796654e2 1.626305984e2 0.000000000e0
7.515799588e1 1.807665751e2 0.000000000e0
3.844804672e1 1.919557937e2 0.000000000e0
2.605606829e-1 1.957682587e2 0.000000000e0
-3.793693855e1 1.920574594e2 0.000000000e0
-7.467654252e1 1.809659996e2 0.000000000e0
-1.085463688e2 1.629201179e2 0.000000000e0
-1.382448191e2 1.386133075e2 0.000000000e0
-1.626305984e2 1.089796654e2 0.000000000e0
-1.807665751e2 7.515799588e1 0.000000000e0
-1.919557937e2 3.844804672e1 0.000000000e0
-1.957682587e2 2.605606829e-1 0.000000000e0
-1.920574594e2 -3.793693855e1 0.000000000e0
-1.809659996e2 -7.467654252e1 0.000000000e0
-1.629201179e2 -1.085463688e2 0.000000000e0
-1.386133075e2 -1.382448191e2 0.000000000e0
-1.089796654e2 -1.626305984e2 0.000000000e0
-7.515799588e1 -1.807665751e2 0.000000000e0
-3.844804672e1 -1.919557937e2 0.000000000e0
-2.605606829e-1 -1.957682587e2 0.000000000e0
3.793693855e1 -1.920574594e2 0.000000000e0
7.467654252e1 -1.809659996e2 0.000000000e0
1.085463688e2 -1.629201179e2 0.000000000e0
1.382448191e2 -1.386133075e2 0.000000000e0
1.626305984e2 -1.089796654e2 0.000000000e0
1.807665751e2 -7.515799588e1 0.000000000e0
1.919557937e2 -3.844804672e1 0.000000000e0
1.878317077e2 -6.166602829e0 0.000000000e0
1.854256186e2 3.059603506e1 0.000000000e0
1.758937270e2 6.618288447e1 0.000000000e0
1.596023382e2 9.922636275e1 0.000000000e0
1.371775209e2 1.284566276e2 0.000000000e0
1.094810485e2 1.527503762e2 0.000000000e0
7.757728075e1 1.711740136e2 0.000000000e0
4.269226163e1 1.830195296e2 0.000000000e0
6.166602829e0 1.878317077e2 0.000000000e0
-3.059603506e1 1.854256186e2 0.000000000e0
-6.618288447e1 1.758937270e2 0.000000000e0
-9.922636275e1 1.596023382e2 0.000000000e0
-1.284566276e2 1.371775209e2 0.000000000e0
-1.527503762e2 1.094810485e2 0.000000000e0
-1.711740136e2 7.757728075e1 0.000000000e0
-1.830195296e2 4.269226163e1 0.000000000e0
-1.878317077e2 6.166602829e0 0.000000000e0
-1.854256186e2 -3.059603506e1 0.000000000e0
-1.758937270e2 -6.618288447e1 0.000000000e0
-1.596023382e2 -9.922636275e1 0.000000000e0
-1.371775209e2 -1.284566276e2 0.000000000e0
-1.094810485e2 -1.527503762e2 0.000000000e0
-7.757728075e1 -1.711740136e2 0.000000000e0
-4.269226163e1 -1.830195296e2 0.000000000e0
-6.166602829e0 -1.878317077e2 0.000000000e0
3.059603506e1 -1.854256186e2 0.000000000e0
6.618288447e1 -1.758937270e2 0.000000000e0
9.922636275e1 -1.596023382e2 0.000000000e0
1.284566276e2 -1.371775209e2 0.000000000e0
1.527503762e2 -1.094810485e2 0.000000000e0
1.711740136e2 -7.757728075e1 0.000000000e0
1.830195296e2 -4.269226163e1 0.000000000e0
