# vtk DataFile Version 3.0
rem magnetostatic solution
ASCII
DATASET UNSTRUCTURED_GRID
POINTS 441 double
0.000000000e0 0.000000000e0 0.000000000e0
5.000000000e-5 0.000000000e0 0.000000000e0
1.000000000e-4 0.000000000e0 0.000000000e0
1.500000000e-4 0.000000000e0 0.000000000e0
2.000000000e-4 0.000000000e0 0.000000000e0
2.500000000e-4 0.000000000e0 0.000000000e0
3.000000000e-4 0.000000000e0 0.000000000e0
3.500000000e-4 0.000000000e0 0.000000000e0
4.000000000e-4 0.000000000e0 0.000000000e0
4.500000000e-4 0.000000000e0 0.000000000e0
5.000000000e-4 0.000000000e0 0.000000000e0
5.500000000e-4 0.000000000e0 0.000000000e0
6.000000000e-4 0.000000000e0 0.000000000e0
6.500000000e-4 0.000000000e0 0.000000000e0
7.000000000e-4 0.000000000e0 0.000000000e0
7.500000000e-4 0.000000000e0 0.000000000e0
8.000000000e-4 0.000000000e0 0.000000000e0
8.500000000e-4 0.000000000e0 0.000000000e0
9.000000000e-4 0.000000000e0 0.000000000e0
9.500000000e-4 0.000000000e0 0.000000000e0
1.000000000e-3 0.000000000e0 0.000000000e0
0.000000000e0 5.000000000e-5 0.000000000e0
5.000000000e-5 5.000000000e-5 0.000000000e0
1.000000000e-4 5.000000000e-5 0.000000000e0
1.500000000e-4 5.000000000e-5 0.000000000e0
2.000000000e-4 5.000000000e-5 0.000000000e0
2.500000000e-4 5.000000000e-5 0.000000000e0
3.000000000e-4 5.000000000e-5 0.000000000e0
3.500000000e-4 5.000000000e-5 0.000000000e0
4.000000000e-4 5.000000000e-5 0.000000000e0
4.500000000e-4 5.000000000e-5 0.000000000e0
5.000000000e-4 5.000000000e-5 0.000000000e0
5.500000000e-4 5.000000000e-5 0.000000000e0
6.000000000e-4 5.000000000e-5 0.000000000e0
6.500000000e-4 5.000000000e-5 0.000000000e0
7.000000000e-4 5.000000000e-5 0.000000000e0
7.500000000e-4 5.000000000e-5 0.000000000e0
8.000000000e-4 5.000000000e-5 0.000000000e0
8.500000000e-4 5.000000000e-5 0.000000000e0
9.000000000e-4 5.000000000e-5 0.000000000e0
9.500000000e-4 5.000000000e-5 0.000000000e0
1.000000000e-3 5.000000000e-5 0.000000000e0
0.000000000e0 1.000000000e-4 0.000000000e0
5.000000000e-5 1.000000000e-4 0.000000000e0
1.000000000e-4 1.000000000e-4 0.000000000e0
1.500000000e-4 1.000000000e-4 0.000000000e0
2.000000000e-4 1.000000000e-4 0.000000000e0
2.500000000e-4 1.000000000e-4 0.000000000e0
3.000000000e-4 1.000000000e-4 0.000000000e0
3.500000000e-4 1.000000000e-4 0.000000000e0
4.000000000e-4 1.000000000e-4 0.000000000e0
4.500000000e-4 1.000000000e-4 0.000000000e0
5.000000000e-4 1.000000000e-4 0.000000000e0
5.500000000e-4 1.000000000e-4 0.000000000e0
6.000000000e-4 1.000000000e-4 0.000000000e0
6.500000000e-4 1.000000000e-4 0.000000000e0
7.000000000e-4 1.000000000e-4 0.000000000e0
7.500000000e-4 1.000000000e-4 0.000000000e0
8.000000000e-4 1.000000000e-4 0.000000000e0
8.500000000e-4 1.000000000e-4 0.000000000e0
9.000000000e-4 1.000000000e-4 0.000000000e0
9.500000000e-4 1.000000000e-4 0.000000000e0
1.000000000e-3 1.000000000e-4 0.000000000e0
0.000000000e0 1.500000000e-4 0.000000000e0
5.000000000e-5 1.500000000e-4 0.000000000e0
1.000000000e-4 1.500000000e-4 0.000000000e0
1.500000000e-4 1.500000000e-4 0.000000000e0
2.000000000e-4 1.500000000e-4 0.000000000e0
2.500000000e-4 1.500000000e-4 0.000000000e0
3.000000000e-4 1.500000000e-4 0.000000000e0
3.500000000e-4 1.500000000e-4 0.000000000e0
4.000000000e-4 1.500000000e-4 0.000000000e0
4.500000000e-4 1.500000000e-4 0.000000000e0
5.000000000e-4 1.500000000e-4 0.000000000e0
5.500000000e-4 1.500000000e-4 0.000000000e0
6.000000000e-4 1.500000000e-4 0.000000000e0
6.500000000e-4 1.500000000e-4 0.000000000e0
7.000000000e-4 1.500000000e-4 0.000000000e0
7.500000000e-4 1.500000000e-4 0.000000000e0
8.000000000e-4 1.500000000e-4 0.000000000e0
8.500000000e-4 1.500000000e-4 0.000000000e0
9.000000000e-4 1.500000000e-4 0.000000000e0
9.500000000e-4 1.500000000e-4 0.000000000e0
1.000000000e-3 1.500000000e-4 0.000000000e0
0.000000000e0 2.000000000e-4 0.000000000e0
5.000000000e-5 2.000000000e-4 0.000000000e0
1.000000000e-4 2.000000000e-4 0.000000000e0
1.500000000e-4 2.000000000e-4 0.000000000e0
2.000000000e-4 2.000000000e-4 0.000000000e0
2.500000000e-4 2.000000000e-4 0.000000000e0
3.000000000e-4 2.000000000e-4 0.000000000e0
3.500000000e-4 2.000000000e-4 0.000000000e0
4.000000000e-4 2.000000000e-4 0.000000000e0
4.500000000e-4 2.000000000e-4 0.000000000e0
5.000000000e-4 2.000000000e-4 0.000000000e0
5.500000000e-4 2.000000000e-4 0.000000000e0
6.000000000e-4 2.000000000e-4 0.000000000e0
6.500000000e-4 2.000000000e-4 0.000000000e0
7.000000000e-4 2.000000000e-4 0.000000000e0
7.500000000e-4 2.000000000e-4 0.000000000e0
8.000000000e-4 2.000000000e-4 0.000000000e0
8.500000000e-4 2.000000000e-4 0.000000000e0
9.000000000e-4 2.000000000e-4 0.000000000e0
9.500000000e-4 2.000000000e-4 0.000000000e0
1.000000000e-3 2.000000000e-4 0.000000000e0
0.000000000e0 2.500000000e-4 0.000000000e0
5.000000000e-5 2.500000000e-4 0.000000000e0
1.000000000e-4 2.500000000e-4 0.000000000e0
1.500000000e-4 2.500000000e-4 0.000000000e0
2.000000000e-4 2.500000000e-4 0.000000000e0
2.500000000e-4 2.500000000e-4 0.000000000e0
3.000000000e-4 2.500000000e-4 0.000000000e0
3.500000000e-4 2.500000000e-4 0.000000000e0
4.000000000e-4 2.500000000e-4 0.000000000e0
4.500000000e-4 2.500000000e-4 0.000000000e0
5.000000000e-4 2.500000000e-4 0.000000000e0
5.500000000e-4 2.500000000e-4 0.000000000e0
6.000000000e-4 2.500000000e-4 0.000000000e0
6.500000000e-4 2.500000000e-4 0.000000000e0
7.000000000e-4 2.500000000e-4 0.000000000e0
7.500000000e-4 2.500000000e-4 0.000000000e0
8.000000000e-4 2.500000000e-4 0.000000000e0
8.500000000e-4 2.500000000e-4 0.000000000e0
9.000000000e-4 2.500000000e-4 0.000000000e0
9.500000000e-4 2.500000000e-4 0.000000000e0
1.000000000e-3 2.500000000e-4 0.000000000e0
0.000000000e0 3.000000000e-4 0.000000000e0
5.000000000e-5 3.000000000e-4 0.000000000e0
1.000000000e-4 3.000000000e-4 0.000000000e0
1.500000000e-4 3.000000000e-4 0.000000000e0
2.000000000e-4 3.000000000e-4 0.000000000e0
2.500000000e-4 3.000000000e-4 0.000000000e0
3.000000000e-4 3.000000000e-4 0.000000000e0
3.500000000e-4 3.000000000e-4 0.000000000e0
4.000000000e-4 3.000000000e-4 0.000000000e0
4.500000000e-4 3.000000000e-4 0.000000000e0
5.000000000e-4 3.000000000e-4 0.000000000e0
5.500000000e-4 3.000000000e-4 0.000000000e0
6.000000000e-4 3.000000000e-4 0.000000000e0
6.500000000e-4 3.000000000e-4 0.000000000e0
7.000000000e-4 3.000000000e-4 0.000000000e0
7.500000000e-4 3.000000000e-4 0.000000000e0
8.000000000e-4 3.000000000e-4 0.000000000e0
8.500000000e-4 3.000000000e-4 0.000000000e0
9.000000000e-4 3.000000000e-4 0.000000000e0
9.500000000e-4 3.000000000e-4 0.000000000e0
1.000000000e-3 3.000000000e-4 0.000000000e0
0.000000000e0 3.500000000e-4 0.000000000e0
5.000000000e-5 3.500000000e-4 0.000000000e0
1.000000000e-4 3.500000000e-4 0.000000000e0
1.500000000e-4 3.500000000e-4 0.000000000e0
2.000000000e-4 3.500000000e-4 0.000000000e0
2.500000000e-4 3.500000000e-4 0.000000000e0
3.000000000e-4 3.500000000e-4 0.000000000e0
3.500000000e-4 3.500000000e-4 0.000000000e0
4.000000000e-4 3.500000000e-4 0.000000000e0
4.500000000e-4 3.500000000e-4 0.000000000e0
5.000000000e-4 3.500000000e-4 0.000000000e0
5.500000000e-4 3.500000000e-4 0.000000000e0
6.000000000e-4 3.500000000e-4 0.000000000e0
6.500000000e-4 3.500000000e-4 0.000000000e0
7.000000000e-4 3.500000000e-4 0.000000000e0
7.500000000e-4 3.500000000e-4 0.000000000e0
8.000000000e-4 3.500000000e-4 0.000000000e0
8.500000000e-4 3.500000000e-4 0.000000000e0
9.000000000e-4 3.500000000e-4 0.000000000e0
9.500000000e-4 3.500000000e-4 0.000000000e0
1.000000000e-3 3.500000000e-4 0.000000000e0
0.000000000e0 4.000000000e-4 0.000000000e0
5.000000000e-5 4.000000000e-4 0.000000000e0
1.000000000e-4 4.000000000e-4 0.000000000e0
1.500000000e-4 4.000000000e-4 0.000000000e0
2.000000000e-4 4.000000000e-4 0.000000000e0
2.500000000e-4 4.000000000e-4 0.000000000e0
3.000000000e-4 4.000000000e-4 0.000000000e0
3.500000000e-4 4.000000000e-4 0.000000000e0
4.000000000e-4 4.000000000e-4 0.000000000e0
4.500000000e-4 4.000000000e-4 0.000000000e0
5.000000000e-4 4.000000000e-4 0.000000000e0
5.500000000e-4 4.000000000e-4 0.000000000e0
6.000000000e-4 4.000000000e-4 0.000000000e0
6.500000000e-4 4.000000000e-4 0.000000000e0
7.000000000e-4 4.000000000e-4 0.000000000e0
7.500000000e-4 4.000000000e-4 0.000000000e0
8.000000000e-4 4.000000000e-4 0.000000000e0
8.500000000e-4 4.000000000e-4 0.000000000e0
9.000000000e-4 4.000000000e-4 0.000000000e0
9.500000000e-4 4.000000000e-4 0.000000000e0
1.000000000e-3 4.000000000e-4 0.000000000e0
0.000000000e0 4.500000000e-4 0.000000000e0
5.000000000e-5 4.500000000e-4 0.000000000e0
1.000000000e-4 4.500000000e-4 0.000000000e0
1.500000000e-4 4.500000000e-4 0.000000000e0
2.000000000e-4 4.500000000e-4 0.000000000e0
2.500000000e-4 4.500000000e-4 0.000000000e0
3.000000000e-4 4.500000000e-4 0.000000000e0
3.500000000e-4 4.500000000e-4 0.000000000e0
4.000000000e-4 4.500000000e-4 0.000000000e0
4.500000000e-4 4.500000000e-4 0.000000000e0
5.000000000e-4 4.500000000e-4 0.000000000e0
5.500000000e-4 4.500000000e-4 0.000000000e0
6.000000000e-4 4.500000000e-4 0.000000000e0
6.500000000e-4 4.500000000e-4 0.000000000e0
7.000000000e-4 4.500000000e-4 0.000000000e0
7.500000000e-4 4.500000000e-4 0.000000000e0
8.000000000e-4 4.500000000e-4 0.000000000e0
8.500000000e-4 4.500000000e-4 0.000000000e0
9.000000000e-4 4.500000000e-4 0.000000000e0
9.500000000e-4 4.500000000e-4 0.000000000e0
1.000000000e-3 4.500000000e-4 0.000000000e0
0.000000000e0 5.000000000e-4 0.000000000e0
5.000000000e-5 5.000000000e-4 0.000000000e0
1.000000000e-4 5.000000000e-4 0.000000000e0
1.500000000e-4 5.000000000e-4 0.000000000e0
2.000000000e-4 5.000000000e-4 0.000000000e0
2.500000000e-4 5.000000000e-4 0.000000000e0
3.000000000e-4 5.000000000e-4 0.000000000e0
3.500000000e-4 5.000000000e-4 0.000000000e0
4.000000000e-4 5.000000000e-4 0.000000000e0
4.500000000e-4 5.000000000e-4 0.000000000e0
5.000000000e-4 5.000000000e-4 0.000000000e0
5.500000000e-4 5.000000000e-4 0.000000000e0
6.000000000e-4 5.000000000e-4 0.000000000e0
6.500000000e-4 5.000000000e-4 0.000000000e0
7.000000000e-4 5.000000000e-4 0.000000000e0
7.500000000e-4 5.000000000e-4 0.000000000e0
8.000000000e-4 5.000000000e-4 0.000000000e0
8.500000000e-4 5.000000000e-4 0.000000000e0
9.000000000e-4 5.000000000e-4 0.000000000e0
9.500000000e-4 5.000000000e-4 0.000000000e0
1.000000000e-3 5.000000000e-4 0.000000000e0
0.000000000e0 5.500000000e-4 0.000000000e0
5.000000000e-5 5.500000000e-4 0.000000000e0
1.000000000e-4 5.500000000e-4 0.000000000e0
1.500000000e-4 5.500000000e-4 0.000000000e0
2.000000000e-4 5.500000000e-4 0.000000000e0
2.500000000e-4 5.500000000e-4 0.000000000e0
3.000000000e-4 5.500000000e-4 0.000000000e0
3.500000000e-4 5.500000000e-4 0.000000000e0
4.000000000e-4 5.500000000e-4 0.000000000e0
4.500000000e-4 5.500000000e-4 0.000000000e0
5.000000000e-4 5.500000000e-4 0.000000000e0
5.500000000e-4 5.500000000e-4 0.000000000e0
6.000000000e-4 5.500000000e-4 0.000000000e0
6.500000000e-4 5.500000000e-4 0.000000000e0
7.000000000e-4 5.500000000e-4 0.000000000e0
7.500000000e-4 5.500000000e-4 0.000000000e0
8.000000000e-4 5.500000000e-4 0.000000000e0
8.500000000e-4 5.500000000e-4 0.000000000e0
9.000000000e-4 5.500000000e-4 0.000000000e0
9.500000000e-4 5.500000000e-4 0.000000000e0
1.000000000e-3 5.500000000e-4 0.000000000e0
0.000000000e0 6.000000000e-4 0.000000000e0
5.000000000e-5 6.000000000e-4 0.000000000e0
1.000000000e-4 6.000000000e-4 0.000000000e0
1.500000000e-4 6.000000000e-4 0.000000000e0
2.000000000e-4 6.000000000e-4 0.000000000e0
2.500000000e-4 6.000000000e-4 0.000000000e0
3.000000000e-4 6.000000000e-4 0.000000000e0
3.500000000e-4 6.000000000e-4 0.000000000e0
4.000000000e-4 6.000000000e-4 0.000000000e0
4.500000000e-4 6.000000000e-4 0.000000000e0
5.000000000e-4 6.000000000e-4 0.000000000e0
5.500000000e-4 6.000000000e-4 0.000000000e0
6.000000000e-4 6.000000000e-4 0.000000000e0
6.500000000e-4 6.000000000e-4 0.000000000e0
7.000000000e-4 6.000000000e-4 0.000000000e0
7.500000000e-4 6.000000000e-4 0.000000000e0
8.000000000e-4 6.000000000e-4 0.000000000e0
8.500000000e-4 6.000000000e-4 0.000000000e0
9.000000000e-4 6.000000000e-4 0.000000000e0
9.500000000e-4 6.000000000e-4 0.000000000e0
1.000000000e-3 6.000000000e-4 0.000000000e0
0.000000000e0 6.500000000e-4 0.000000000e0
5.000000000e-5 6.500000000e-4 0.000000000e0
1.000000000e-4 6.500000000e-4 0.000000000e0
1.500000000e-4 6.500000000e-4 0.000000000e0
2.000000000e-4 6.500000000e-4 0.000000000e0
2.500000000e-4 6.500000000e-4 0.000000000e0
3.000000000e-4 6.500000000e-4 0.000000000e0
3.500000000e-4 6.500000000e-4 0.000000000e0
4.000000000e-4 6.500000000e-4 0.000000000e0
4.500000000e-4 6.500000000e-4 0.000000000e0
5.000000000e-4 6.500000000e-4 0.000000000e0
5.500000000e-4 6.500000000e-4 0.000000000e0
6.000000000e-4 6.500000000e-4 0.000000000e0
6.500000000e-4 6.500000000e-4 0.000000000e0
7.000000000e-4 6.500000000e-4 0.000000000e0
7.500000000e-4 6.500000000e-4 0.000000000e0
8.000000000e-4 6.500000000e-4 0.000000000e0
8.500000000e-4 6.500000000e-4 0.000000000e0
9.000000000e-4 6.500000000e-4 0.000000000e0
9.500000000e-4 6.500000000e-4 0.000000000e0
1.000000000e-3 6.500000000e-4 0.000000000e0
0.000000000e0 7.000000000e-4 0.000000000e0
5.000000000e-5 7.000000000e-4 0.000000000e0
1.000000000e-4 7.000000000e-4 0.000000000e0
1.500000000e-4 7.000000000e-4 0.000000000e0
2.000000000e-4 7.000000000e-4 0.000000000e0
2.500000000e-4 7.000000000e-4 0.000000000e0
3.000000000e-4 7.000000000e-4 0.000000000e0
3.500000000e-4 7.000000000e-4 0.000000000e0
4.000000000e-4 7.000000000e-4 0.000000000e0
4.500000000e-4 7.000000000e-4 0.000000000e0
5.000000000e-4 7.000000000e-4 0.000000000e0
5.500000000e-4 7.000000000e-4 0.000000000e0
6.000000000e-4 7.000000000e-4 0.000000000e0
6.500000000e-4 7.000000000e-4 0.000000000e0
7.000000000e-4 7.000000000e-4 0.000000000e0
7.500000000e-4 7.000000000e-4 0.000000000e0
8.000000000e-4 7.000000000e-4 0.000000000e0
8.500000000e-4 7.000000000e-4 0.000000000e0
9.000000000e-4 7.000000000e-4 0.000000000e0
9.500000000e-4 7.000000000e-4 0.000000000e0
1.000000000e-3 7.000000000e-4 0.000000000e0
0.000000000e0 7.500000000e-4 0.000000000e0
5.000000000e-5 7.500000000e-4 0.000000000e0
1.000000000e-4 7.500000000e-4 0.000000000e0
1.500000000e-4 7.500000000e-4 0.000000000e0
2.000000000e-4 7.500000000e-4 0.000000000e0
2.500000000e-4 7.500000000e-4 0.000000000e0
3.000000000e-4 7.500000000e-4 0.000000000e0
3.500000000e-4 7.500000000e-4 0.000000000e0
4.000000000e-4 7.500000000e-4 0.000000000e0
4.500000000e-4 7.500000000e-4 0.000000000e0
5.000000000e-4 7.500000000e-4 0.000000000e0
5.500000000e-4 7.500000000e-4 0.000000000e0
6.000000000e-4 7.500000000e-4 0.000000000e0
6.500000000e-4 7.500000000e-4 0.000000000e0
7.000000000e-4 7.500000000e-4 0.000000000e0
7.500000000e-4 7.500000000e-4 0.000000000e0
8.000000000e-4 7.500000000e-4 0.000000000e0
8.500000000e-4 7.500000000e-4 0.000000000e0
9.000000000e-4 7.500000000e-4 0.000000000e0
9.500000000e-4 7.500000000e-4 0.000000000e0
1.000000000e-3 7.500000000e-4 0.000000000e0
0.000000000e0 8.000000000e-4 0.000000000e0
5.000000000e-5 8.000000000e-4 0.000000000e0
1.000000000e-4 8.000000000e-4 0.000000000e0
1.500000000e-4 8.000000000e-4 0.000000000e0
2.000000000e-4 8.000000000e-4 0.000000000e0
2.500000000e-4 8.000000000e-4 0.000000000e0
3.000000000e-4 8.000000000e-4 0.000000000e0
3.500000000e-4 8.000000000e-4 0.000000000e0
4.000000000e-4 8.000000000e-4 0.000000000e0
4.500000000e-4 8.000000000e-4 0.000000000e0
5.000000000e-4 8.000000000e-4 0.000000000e0
5.500000000e-4 8.000000000e-4 0.000000000e0
6.000000000e-4 8.000000000e-4 0.000000000e0
6.500000000e-4 8.000000000e-4 0.000000000e0
7.000000000e-4 8.000000000e-4 0.000000000e0
7.500000000e-4 8.000000000e-4 0.000000000e0
8.000000000e-4 8.000000000e-4 0.000000000e0
8.500000000e-4 8.000000000e-4 0.000000000e0
9.000000000e-4 8.000000000e-4 0.000000000e0
9.500000000e-4 8.000000000e-4 0.000000000e0
1.000000000e-3 8.000000000e-4 0.000000000e0
0.000000000e0 8.500000000e-4 0.000000000e0
5.000000000e-5 8.500000000e-4 0.000000000e0
1.000000000e-4 8.500000000e-4 0.000000000e0
1.500000000e-4 8.500000000e-4 0.000000000e0
2.000000000e-4 8.500000000e-4 0.000000000e0
2.500000000e-4 8.500000000e-4 0.000000000e0
3.000000000e-4 8.500000000e-4 0.000000000e0
3.500000000e-4 8.500000000e-4 0.000000000e0
4.000000000e-4 8.500000000e-4 0.000000000e0
4.500000000e-4 8.500000000e-4 0.000000000e0
5.000000000e-4 8.500000000e-4 0.000000000e0
5.500000000e-4 8.500000000e-4 0.000000000e0
6.000000000e-4 8.500000000e-4 0.000000000e0
6.500000000e-4 8.500000000e-4 0.000000000e0
7.000000000e-4 8.500000000e-4 0.000000000e0
7.500000000e-4 8.500000000e-4 0.000000000e0
8.000000000e-4 8.500000000e-4 0.000000000e0
8.500000000e-4 8.500000000e-4 0.000000000e0
9.000000000e-4 8.500000000e-4 0.000000000e0
9.500000000e-4 8.500000000e-4 0.000000000e0
1.000000000e-3 8.500000000e-4 0.000000000e0
0.000000000e0 9.000000000e-4 0.000000000e0
5.000000000e-5 9.000000000e-4 0.000000000e0
1.000000000e-4 9.000000000e-4 0.000000000e0
1.500000000e-4 9.000000000e-4 0.000000000e0
2.000000000e-4 9.000000000e-4 0.000000000e0
2.500000000e-4 9.000000000e-4 0.000000000e0
3.000000000e-4 9.000000000e-4 0.000000000e0
3.500000000e-4 9.000000000e-4 0.000000000e0
4.000000000e-4 9.000000000e-4 0.000000000e0
4.500000000e-4 9.000000000e-4 0.000000000e0
5.000000000e-4 9.000000000e-4 0.000000000e0
5.500000000e-4 9.000000000e-4 0.000000000e0
6.000000000e-4 9.000000000e-4 0.000000000e0
6.500000000e-4 9.000000000e-4 0.000000000e0
7.000000000e-4 9.000000000e-4 0.000000000e0
7.500000000e-4 9.000000000e-4 0.000000000e0
8.000000000e-4 9.000000000e-4 0.000000000e0
8.500000000e-4 9.000000000e-4 0.000000000e0
9.000000000e-4 9.000000000e-4 0.000000000e0
9.500000000e-4 9.000000000e-4 0.000000000e0
1.000000000e-3 9.000000000e-4 0.000000000e0
0.000000000e0 9.500000000e-4 0.000000000e0
5.000000000e-5 9.500000000e-4 0.000000000e0
1.000000000e-4 9.500000000e-4 0.000000000e0
1.500000000e-4 9.500000000e-4 0.000000000e0
2.000000000e-4 9.500000000e-4 0.000000000e0
2.500000000e-4 9.500000000e-4 0.000000000e0
3.000000000e-4 9.500000000e-4 0.000000000e0
3.500000000e-4 9.500000000e-4 0.000000000e0
4.000000000e-4 9.500000000e-4 0.000000000e0
4.500000000e-4 9.500000000e-4 0.000000000e0
5.000000000e-4 9.500000000e-4 0.000000000e0
5.500000000e-4 9.500000000e-4 0.000000000e0
6.000000000e-4 9.500000000e-4 0.000000000e0
6.500000000e-4 9.500000000e-4 0.000000000e0
7.000000000e-4 9.500000000e-4 0.000000000e0
7.500000000e-4 9.500000000e-4 0.000000000e0
8.000000000e-4 9.500000000e-4 0.000000000e0
8.500000000e-4 9.500000000e-4 0.000000000e0
9.000000000e-4 9.500000000e-4 0.000000000e0
9.500000000e-4 9.500000000e-4 0.000000000e0
1.000000000e-3 9.500000000e-4 0.000000000e0
0.000000000e0 1.000000000e-3 0.000000000e0
5.000000000e-5 1.000000000e-3 0.000000000e0
1.000000000e-4 1.000000000e-3 0.000000000e0
1.500000000e-4 1.000000000e-3 0.000000000e0
2.000000000e-4 1.000000000e-3 0.000000000e0
2.500000000e-4 1.000000000e-3 0.000000000e0
3.000000000e-4 1.000000000e-3 0.000000000e0
3.500000000e-4 1.000000000e-3 0.000000000e0
4.000000000e-4 1.000000000e-3 0.000000000e0
4.500000000e-4 1.000000000e-3 0.000000000e0
5.000000000e-4 1.000000000e-3 0.000000000e0
5.500000000e-4 1.000000000e-3 0.000000000e0
6.000000000e-4 1.000000000e-3 0.000000000e0
6.500000000e-4 1.000000000e-3 0.000000000e0
7.000000000e-4 1.000000000e-3 0.000000000e0
7.500000000e-4 1.000000000e-3 0.000000000e0
8.000000000e-4 1.000000000e-3 0.000000000e0
8.500000000e-4 1.000000000e-3 0.000000000e0
9.000000000e-4 1.000000000e-3 0.000000000e0
9.500000000e-4 1.000000000e-3 0.000000000e0
1.000000000e-3 1.000000000e-3 0.000000000e0
CELLS 800 3200
3 0 1 22
3 0 22 21
3 1 2 23
3 1 23 22
3 2 3 24
3 2 24 23
3 3 4 25
3 3 25 24
3 4 5 26
3 4 26 25
3 5 6 27
3 5 27 26
3 6 7 28
3 6 28 27
3 7 8 29
3 7 29 28
3 8 9 30
3 8 30 29
3 9 10 31
3 9 31 30
3 10 11 32
3 10 32 31
3 11 12 33
3 11 33 32
3 12 13 34
3 12 34 33
3 13 14 35
3 13 35 34
3 14 15 36
3 14 36 35
3 15 16 37
3 15 37 36
3 16 17 38
3 16 38 37
3 17 18 39
3 17 39 38
3 18 19 40
3 18 40 39
3 19 20 41
3 19 41 40
3 21 22 43
3 21 43 42
3 22 23 44
3 22 44 43
3 23 24 45
3 23 45 44
3 24 25 46
3 24 46 45
3 25 26 47
3 25 47 46
3 26 27 48
3 26 48 47
3 27 28 49
3 27 49 48
3 28 29 50
3 28 50 49
3 29 30 51
3 29 51 50
3 30 31 52
3 30 52 51
3 31 32 53
3 31 53 52
3 32 33 54
3 32 54 53
3 33 34 55
3 33 55 54
3 34 35 56
3 34 56 55
3 35 36 57
3 35 57 56
3 36 37 58
3 36 58 57
3 37 38 59
3 37 59 58
3 38 39 60
3 38 60 59
3 39 40 61
3 39 61 60
3 40 41 62
3 40 62 61
3 42 43 64
3 42 64 63
3 43 44 65
3 43 65 64
3 44 45 66
3 44 66 65
3 45 46 67
3 45 67 66
3 46 47 68
3 46 68 67
3 47 48 69
3 47 69 68
3 48 49 70
3 48 70 69
3 49 50 71
3 49 71 70
3 50 51 72
3 50 72 71
3 51 52 73
3 51 73 72
3 52 53 74
3 52 74 73
3 53 54 75
3 53 75 74
3 54 55 76
3 54 76 75
3 55 56 77
3 55 77 76
3 56 57 78
3 56 78 77
3 57 58 79
3 57 79 78
3 58 59 80
3 58 80 79
3 59 60 81
3 59 81 80
3 60 61 82
3 60 82 81
3 61 62 83
3 61 83 82
3 63 64 85
3 63 85 84
3 64 65 86
3 64 86 85
3 65 66 87
3 65 87 86
3 66 67 88
3 66 88 87
3 67 68 89
3 67 89 88
3 68 69 90
3 68 90 89
3 69 70 91
3 69 91 90
3 70 71 92
3 70 92 91
3 71 72 93
3 71 93 92
3 72 73 94
3 72 94 93
3 73 74 95
3 73 95 94
3 74 75 96
3 74 96 95
3 75 76 97
3 75 97 96
3 76 77 98
3 76 98 97
3 77 78 99
3 77 99 98
3 78 79 100
3 78 100 99
3 79 80 101
3 79 101 100
3 80 81 102
3 80 102 101
3 81 82 103
3 81 103 102
3 82 83 104
3 82 104 103
3 84 85 106
3 84 106 105
3 85 86 107
3 85 107 106
3 86 87 108
3 86 108 107
3 87 88 109
3 87 109 108
3 88 89 110
3 88 110 109
3 89 90 111
3 89 111 110
3 90 91 112
3 90 112 111
3 91 92 113
3 91 113 112
3 92 93 114
3 92 114 113
3 93 94 115
3 93 115 114
3 94 95 116
3 94 116 115
3 95 96 117
3 95 117 116
3 96 97 118
3 96 118 117
3 97 98 119
3 97 119 118
3 98 99 120
3 98 120 119
3 99 100 121
3 99 121 120
3 100 101 122
3 100 122 121
3 101 102 123
3 101 123 122
3 102 103 124
3 102 124 123
3 103 104 125
3 103 125 124
3 105 106 127
3 105 127 126
3 106 107 128
3 106 128 127
3 107 108 129
3 107 129 128
3 108 109 130
3 108 130 129
3 109 110 131
3 109 131 130
3 110 111 132
3 110 132 131
3 111 112 133
3 111 133 132
3 112 113 134
3 112 134 133
3 113 114 135
3 113 135 134
3 114 115 136
3 114 136 135
3 115 116 137
3 115 137 136
3 116 117 138
3 116 138 137
3 117 118 139
3 117 139 138
3 118 119 140
3 118 140 139
3 119 120 141
3 119 141 140
3 120 121 142
3 120 142 141
3 121 122 143
3 121 143 142
3 122 123 144
3 122 144 143
3 123 124 145
3 123 145 144
3 124 125 146
3 124 146 145
3 126 127 148
3 126 148 147
3 127 128 149
3 127 149 148
3 128 129 150
3 128 150 149
3 129 130 151
3 129 151 150
3 130 131 152
3 130 152 151
3 131 132 153
3 131 153 152
3 132 133 154
3 132 154 153
3 133 134 155
3 133 155 154
3 134 135 156
3 134 156 155
3 135 136 157
3 135 157 156
3 136 137 158
3 136 158 157
3 137 138 159
3 137 159 158
3 138 139 160
3 138 160 159
3 139 140 161
3 139 161 160
3 140 141 162
3 140 162 161
3 141 142 163
3 141 163 162
3 142 143 164
3 142 164 163
3 143 144 165
3 143 165 164
3 144 145 166
3 144 166 165
3 145 146 167
3 145 167 166
3 147 148 169
3 147 169 168
3 148 149 170
3 148 170 169
3 149 150 171
3 149 171 170
3 150 151 172
3 150 172 171
3 151 152 173
3 151 173 172
3 152 153 174
3 152 174 173
3 153 154 175
3 153 175 174
3 154 155 176
3 154 176 175
3 155 156 177
3 155 177 176
3 156 157 178
3 156 178 177
3 157 158 179
3 157 179 178
3 158 159 180
3 158 180 179
3 159 160 181
3 159 181 180
3 160 161 182
3 160 182 181
3 161 162 183
3 161 183 182
3 162 163 184
3 162 184 183
3 163 164 185
3 163 185 184
3 164 165 186
3 164 186 185
3 165 166 187
3 165 187 186
3 166 167 188
3 166 188 187
3 168 169 190
3 168 190 189
3 169 170 191
3 169 191 190
3 170 171 192
3 170 192 191
3 171 172 193
3 171 193 192
3 172 173 194
3 172 194 193
3 173 174 195
3 173 195 194
3 174 175 196
3 174 196 195
3 175 176 197
3 175 197 196
3 176 177 198
3 176 198 197
3 177 178 199
3 177 199 198
3 178 179 200
3 178 200 199
3 179 180 201
3 179 201 200
3 180 181 202
3 180 202 201
3 181 182 203
3 181 203 202
3 182 183 204
3 182 204 203
3 183 184 205
3 183 205 204
3 184 185 206
3 184 206 205
3 185 186 207
3 185 207 206
3 186 187 208
3 186 208 207
3 187 188 209
3 187 209 208
3 189 190 211
3 189 211 210
3 190 191 212
3 190 212 211
3 191 192 213
3 191 213 212
3 192 193 214
3 192 214 213
3 193 194 215
3 193 215 214
3 194 195 216
3 194 216 215
3 195 196 217
3 195 217 216
3 196 197 218
3 196 218 217
3 197 198 219
3 197 219 218
3 198 199 220
3 198 220 219
3 199 200 221
3 199 221 220
3 200 201 222
3 200 222 221
3 201 202 223
3 201 223 222
3 202 203 224
3 202 224 223
3 203 204 225
3 203 225 224
3 204 205 226
3 204 226 225
3 205 206 227
3 205 227 226
3 206 207 228
3 206 228 227
3 207 208 229
3 207 229 228
3 208 209 230
3 208 230 229
3 210 211 232
3 210 232 231
3 211 212 233
3 211 233 232
3 212 213 234
3 212 234 233
3 213 214 235
3 213 235 234
3 214 215 236
3 214 236 235
3 215 216 237
3 215 237 236
3 216 217 238
3 216 238 237
3 217 218 239
3 217 239 238
3 218 219 240
3 218 240 239
3 219 220 241
3 219 241 240
3 220 221 242
3 220 242 241
3 221 222 243
3 221 243 242
3 222 223 244
3 222 244 243
3 223 224 245
3 223 245 244
3 224 225 246
3 224 246 245
3 225 226 247
3 225 247 246
3 226 227 248
3 226 248 247
3 227 228 249
3 227 249 248
3 228 229 250
3 228 250 249
3 229 230 251
3 229 251 250
3 231 232 253
3 231 253 252
3 232 233 254
3 232 254 253
3 233 234 255
3 233 255 254
3 234 235 256
3 234 256 255
3 235 236 257
3 235 257 256
3 236 237 258
3 236 258 257
3 237 238 259
3 237 259 258
3 238 239 260
3 238 260 259
3 239 240 261
3 239 261 260
3 240 241 262
3 240 262 261
3 241 242 263
3 241 263 262
3 242 243 264
3 242 264 263
3 243 244 265
3 243 265 264
3 244 245 266
3 244 266 265
3 245 246 267
3 245 267 266
3 246 247 268
3 246 268 267
3 247 248 269
3 247 269 268
3 248 249 270
3 248 270 269
3 249 250 271
3 249 271 270
3 250 251 272
3 250 272 271
3 252 253 274
3 252 274 273
3 253 254 275
3 253 275 274
3 254 255 276
3 254 276 275
3 255 256 277
3 255 277 276
3 256 257 278
3 256 278 277
3 257 258 279
3 257 279 278
3 258 259 280
3 258 280 279
3 259 260 281
3 259 281 280
3 260 261 282
3 260 282 281
3 261 262 283
3 261 283 282
3 262 263 284
3 262 284 283
3 263 264 285
3 263 285 284
3 264 265 286
3 264 286 285
3 265 266 287
3 265 287 286
3 266 267 288
3 266 288 287
3 267 268 289
3 267 289 288
3 268 269 290
3 268 290 289
3 269 270 291
3 269 291 290
3 270 271 292
3 270 292 291
3 271 272 293
3 271 293 292
3 273 274 295
3 273 295 294
3 274 275 296
3 274 296 295
3 275 276 297
3 275 297 296
3 276 277 298
3 276 298 297
3 277 278 299
3 277 299 298
3 278 279 300
3 278 300 299
3 279 280 301
3 279 301 300
3 280 281 302
3 280 302 301
3 281 282 303
3 281 303 302
3 282 283 304
3 282 304 303
3 283 284 305
3 283 305 304
3 284 285 306
3 284 306 305
3 285 286 307
3 285 307 306
3 286 287 308
3 286 308 307
3 287 288 309
3 287 309 308
3 288 289 310
3 288 310 309
3 289 290 311
3 289 311 310
3 290 291 312
3 290 312 311
3 291 292 313
3 291 313 312
3 292 293 314
3 292 314 313
3 294 295 316
3 294 316 315
3 295 296 317
3 295 317 316
3 296 297 318
3 296 318 317
3 297 298 319
3 297 319 318
3 298 299 320
3 298 320 319
3 299 300 321
3 299 321 320
3 300 301 322
3 300 322 321
3 301 302 323
3 301 323 322
3 302 303 324
3 302 324 323
3 303 304 325
3 303 325 324
3 304 305 326
3 304 326 325
3 305 306 327
3 305 327 326
3 306 307 328
3 306 328 327
3 307 308 329
3 307 329 328
3 308 309 330
3 308 330 329
3 309 310 331
3 309 331 330
3 310 311 332
3 310 332 331
3 311 312 333
3 311 333 332
3 312 313 334
3 312 334 333
3 313 314 335
3 313 335 334
3 315 316 337
3 315 337 336
3 316 317 338
3 316 338 337
3 317 318 339
3 317 339 338
3 318 319 340
3 318 340 339
3 319 320 341
3 319 341 340
3 320 321 342
3 320 342 341
3 321 322 343
3 321 343 342
3 322 323 344
3 322 344 343
3 323 324 345
3 323 345 344
3 324 325 346
3 324 346 345
3 325 326 347
3 325 347 346
3 326 327 348
3 326 348 347
3 327 328 349
3 327 349 348
3 328 329 350
3 328 350 349
3 329 330 351
3 329 351 350
3 330 331 352
3 330 352 351
3 331 332 353
3 331 353 352
3 332 333 354
3 332 354 353
3 333 334 355
3 333 355 354
3 334 335 356
3 334 356 355
3 336 337 358
3 336 358 357
3 337 338 359
3 337 359 358
3 338 339 360
3 338 360 359
3 339 340 361
3 339 361 360
3 340 341 362
3 340 362 361
3 341 342 363
3 341 363 362
3 342 343 364
3 342 364 363
3 343 344 365
3 343 365 364
3 344 345 366
3 344 366 365
3 345 346 367
3 345 367 366
3 346 347 368
3 346 368 367
3 347 348 369
3 347 369 368
3 348 349 370
3 348 370 369
3 349 350 371
3 349 371 370
3 350 351 372
3 350 372 371
3 351 352 373
3 351 373 372
3 352 353 374
3 352 374 373
3 353 354 375
3 353 375 374
3 354 355 376
3 354 376 375
3 355 356 377
3 355 377 376
3 357 358 379
3 357 379 378
3 358 359 380
3 358 380 379
3 359 360 381
3 359 381 380
3 360 361 382
3 360 382 381
3 361 362 383
3 361 383 382
3 362 363 384
3 362 384 383
3 363 364 385
3 363 385 384
3 364 365 386
3 364 386 385
3 365 366 387
3 365 387 386
3 366 367 388
3 366 388 387
3 367 368 389
3 367 389 388
3 368 369 390
3 368 390 389
3 369 370 391
3 369 391 390
3 370 371 392
3 370 392 391
3 371 372 393
3 371 393 392
3 372 373 394
3 372 394 393
3 373 374 395
3 373 395 394
3 374 375 396
3 374 396 395
3 375 376 397
3 375 397 396
3 376 377 398
3 376 398 397
3 378 379 400
3 378 400 399
3 379 380 401
3 379 401 400
3 380 381 402
3 380 402 401
3 381 382 403
3 381 403 402
3 382 383 404
3 382 404 403
3 383 384 405
3 383 405 404
3 384 385 406
3 384 406 405
3 385 386 407
3 385 407 406
3 386 387 408
3 386 408 407
3 387 388 409
3 387 409 408
3 388 389 410
3 388 410 409
3 389 390 411
3 389 411 410
3 390 391 412
3 390 412 411
3 391 392 413
3 391 413 412
3 392 393 414
3 392 414 413
3 393 394 415
3 393 415 414
3 394 395 416
3 394 416 415
3 395 396 417
3 395 417 416
3 396 397 418
3 396 418 417
3 397 398 419
3 397 419 418
3 399 400 421
3 399 421 420
3 400 401 422
3 400 422 421
3 401 402 423
3 401 423 422
3 402 403 424
3 402 424 423
3 403 404 425
3 403 425 424
3 404 405 426
3 404 426 425
3 405 406 427
3 405 427 426
3 406 407 428
3 406 428 427
3 407 408 429
3 407 429 428
3 408 409 430
3 408 430 429
3 409 410 431
3 409 431 430
3 410 411 432
3 410 432 431
3 411 412 433
3 411 433 432
3 412 413 434
3 412 434 433
3 413 414 435
3 413 435 434
3 414 415 436
3 414 436 435
3 415 416 437
3 415 437 436
3 416 417 438
3 416 438 437
3 417 418 439
3 417 439 438
3 418 419 440
3 418 440 439
CELL_TYPES 800
5
5
5
5
5
5
5
5
5
5
5
5
5
5
5
5
5
5
5
5
5
5
5
5
5
5
5
5
5
5
5
5
5
5
5
5
5
5
5
5
5
5
5
5
5
5
5
5
5
5
5
5
5
5
5
5
5
5
5
5
5
5
5
5
5
5
5
5
5
5
5
5
5
5
5
5
5
5
5
5
5
5
5
5
5
5
5
5
5
5
5
5
5
5
5
5
5
5
5
5
5
5
5
5
5
5
5
5
5
5
5
5
5
5
5
5
5
5
5
5
5
5
5
5
5
5
5
5
5
5
5
5
5
5
5
5
5
5
5
5
5
5
5
5
5
5
5
5
5
5
5
5
5
5
5
5
5
5
5
5
5
5
5
5
5
5
5
5
5
5
5
5
5
5
5
5
5
5
5
5
5
5
5
5
5
5
5
5
5
5
5
5
5
5
5
5
5
5
5
5
5
5
5
5
5
5
5
5
5
5
5
5
5
5
5
5
5
5
5
5
5
5
5
5
5
5
5
5
5
5
5
5
5
5
5
5
5
5
5
5
5
5
5
5
5
5
5
5
5
5
5
5
5
5
5
5
5
5
5
5
5
5
5
5
5
5
5
5
5
5
5
5
5
5
5
5
5
5
5
5
5
5
5
5
5
5
5
5
5
5
5
5
5
5
5
5
5
5
5
5
5
5
5
5
5
5
5
5
5
5
5
5
5
5
5
5
5
5
5
5
5
5
5
5
5
5
5
5
5
5
5
5
5
5
5
5
5
5
5
5
5
5
5
5
5
5
5
5
5
5
5
5
5
5
5
5
5
5
5
5
5
5
5
5
5
5
5
5
5
5
5
5
5
5
5
5
5
5
5
5
5
5
5
5
5
5
5
5
5
5
5
5
5
5
5
5
5
5
5
5
5
5
5
5
5
5
5
5
5
5
5
5
5
5
5
5
5
5
5
5
5
5
5
5
5
5
5
5
5
5
5
5
5
5
5
5
5
5
5
5
5
5
5
5
5
5
5
5
5
5
5
5
5
5
5
5
5
5
5
5
5
5
5
5
5
5
5
5
5
5
5
5
5
5
5
5
5
5
5
5
5
5
5
5
5
5
5
5
5
5
5
5
5
5
5
5
5
5
5
5
5
5
5
5
5
5
5
5
5
5
5
5
5
5
5
5
5
5
5
5
5
5
5
5
5
5
5
5
5
5
5
5
5
5
5
5
5
5
5
5
5
5
5
5
5
5
5
5
5
5
5
5
5
5
5
5
5
5
5
5
5
5
5
5
5
5
5
5
5
5
5
5
5
5
5
5
5
5
5
5
5
5
5
5
5
5
5
5
5
5
5
5
5
5
5
5
5
5
5
5
5
5
5
5
5
5
5
5
5
5
5
5
5
5
5
5
5
5
5
5
5
5
5
5
5
5
5
5
5
5
5
5
5
5
5
5
5
5
5
5
5
5
5
5
5
5
5
5
5
5
5
5
5
5
5
5
5
5
5
5
5
5
5
5
5
5
5
5
5
5
5
5
5
5
5
5
5
5
5
5
5
5
5
5
5
5
5
5
5
5
5
5
5
5
5
5
5
5
5
5
5
5
5
5
5
5
5
5
5
5
5
5
5
5
5
5
5
5
5
5
5
5
5
5
5
5
5
5
5
5
5
5
5
5
5
5
5
5
5
5
5
5
5
5
5
5
5
5
5
5
5
5
5
5
5
5
5
5
5
5
5
5
5
5
5
5
5
5
5
5
5
5
5
5
5
5
5
5
5
5
5
5
5
5
5
5
5
5
5
5
5
5
5
5
5
5
5
5
5
5
POINT_DATA 441
SCALARS Az double 1
LOOKUP_TABLE default
0.000000000e0
0.000000000e0
0.000000000e0
0.000000000e0
0.000000000e0
0.000000000e0
0.000000000e0
0.000000000e0
0.000000000e0
0.000000000e0
0.000000000e0
0.000000000e0
0.000000000e0
0.000000000e0
0.000000000e0
0.000000000e0
0.000000000e0
0.000000000e0
0.000000000e0
0.000000000e0
0.000000000e0
9.990009990e-2
9.990009990e-2
9.990009990e-2
9.990009990e-2
9.990009990e-2
9.990009990e-2
9.990009990e-2
9.990009990e-2
9.990009990e-2
9.990009990e-2
9.990009990e-2
9.990009990e-2
9.990009990e-2
9.990009990e-2
9.990009990e-2
9.990009990e-2
9.990009990e-2
9.990009990e-2
9.990009990e-2
9.990009990e-2
9.990009990e-2
1.998001998e-1
1.998001998e-1
1.998001998e-1
1.998001998e-1
1.998001998e-1
1.998001998e-1
1.998001998e-1
1.998001998e-1
1.998001998e-1
1.998001998e-1
1.998001998e-1
1.998001998e-1
1.998001998e-1
1.998001998e-1
1.998001998e-1
1.998001998e-1
1.998001998e-1
1.998001998e-1
1.998001998e-1
1.998001998e-1
1.998001998e-1
2.997002997e-1
2.997002997e-1
2.997002997e-1
2.997002997e-1
2.997002997e-1
2.997002997e-1
2.997002997e-1
2.997002997e-1
2.997002997e-1
2.997002997e-1
2.997002997e-1
2.997002997e-1
2.997002997e-1
2.997002997e-1
2.997002997e-1
2.997002997e-1
2.997002997e-1
2.997002997e-1
2.997002997e-1
2.997002997e-1
2.997002997e-1
3.996003996e-1
3.996003996e-1
3.996003996e-1
3.996003996e-1
3.996003996e-1
3.996003996e-1
3.996003996e-1
3.996003996e-1
3.996003996e-1
3.996003996e-1
3.996003996e-1
3.996003996e-1
3.996003996e-1
3.996003996e-1
3.996003996e-1
3.996003996e-1
3.996003996e-1
3.996003996e-1
3.996003996e-1
3.996003996e-1
3.996003996e-1
4.995004995e-1
4.995004995e-1
4.995004995e-1
4.995004995e-1
4.995004995e-1
4.995004995e-1
4.995004995e-1
4.995004995e-1
4.995004995e-1
4.995004995e-1
4.995004995e-1
4.995004995e-1
4.995004995e-1
4.995004995e-1
4.995004995e-1
4.995004995e-1
4.995004995e-1
4.995004995e-1
4.995004995e-1
4.995004995e-1
4.995004995e-1
5.994005994e-1
5.994005994e-1
5.994005994e-1
5.994005994e-1
5.994005994e-1
5.994005994e-1
5.994005994e-1
5.994005994e-1
5.994005994e-1
5.994005994e-1
5.994005994e-1
5.994005994e-1
5.994005994e-1
5.994005994e-1
5.994005994e-1
5.994005994e-1
5.994005994e-1
5.994005994e-1
5.994005994e-1
5.994005994e-1
5.994005994e-1
6.993006993e-1
6.993006993e-1
6.993006993e-1
6.993006993e-1
6.993006993e-1
6.993006993e-1
6.993006993e-1
6.993006993e-1
6.993006993e-1
6.993006993e-1
6.993006993e-1
6.993006993e-1
6.993006993e-1
6.993006993e-1
6.993006993e-1
6.993006993e-1
6.993006993e-1
6.993006993e-1
6.993006993e-1
6.993006993e-1
6.993006993e-1
7.992007992e-1
7.992007992e-1
7.992007992e-1
7.992007992e-1
7.992007992e-1
7.992007992e-1
7.992007992e-1
7.992007992e-1
7.992007992e-1
7.992007992e-1
7.992007992e-1
7.992007992e-1
7.992007992e-1
7.992007992e-1
7.992007992e-1
7.992007992e-1
7.992007992e-1
7.992007992e-1
7.992007992e-1
7.992007992e-1
7.992007992e-1
8.991008991e-1
8.991008991e-1
8.991008991e-1
8.991008991e-1
8.991008991e-1
8.991008991e-1
8.991008991e-1
8.991008991e-1
8.991008991e-1
8.991008991e-1
8.991008991e-1
8.991008991e-1
8.991008991e-1
8.991008991e-1
8.991008991e-1
8.991008991e-1
8.991008991e-1
8.991008991e-1
8.991008991e-1
8.991008991e-1
8.991008991e-1
9.990009990e-1
9.990009990e-1
9.990009990e-1
9.990009990e-1
9.990009990e-1
9.990009990e-1
9.990009990e-1
9.990009990e-1
9.990009990e-1
9.990009990e-1
9.990009990e-1
9.990009990e-1
9.990009990e-1
9.990009990e-1
9.990009990e-1
9.990009990e-1
9.990009990e-1
9.990009990e-1
9.990009990e-1
9.990009990e-1
9.990009990e-1
9.991008991e-1
9.991008991e-1
9.991008991e-1
9.991008991e-1
9.991008991e-1
9.991008991e-1
9.991008991e-1
9.991008991e-1
9.991008991e-1
9.991008991e-1
9.991008991e-1
9.991008991e-1
9.991008991e-1
9.991008991e-1
9.991008991e-1
9.991008991e-1
9.991008991e-1
9.991008991e-1
9.991008991e-1
9.991008991e-1
9.991008991e-1
9.992007992e-1
9.992007992e-1
9.992007992e-1
9.992007992e-1
9.992007992e-1
9.992007992e-1
9.992007992e-1
9.992007992e-1
9.992007992e-1
9.992007992e-1
9.992007992e-1
9.992007992e-1
9.992007992e-1
9.992007992e-1
9.992007992e-1
9.992007992e-1
9.992007992e-1
9.992007992e-1
9.992007992e-1
9.992007992e-1
9.992007992e-1
9.993006993e-1
9.993006993e-1
9.993006993e-1
9.993006993e-1
9.993006993e-1
9.993006993e-1
9.993006993e-1
9.993006993e-1
9.993006993e-1
9.993006993e-1
9.993006993e-1
9.993006993e-1
9.993006993e-1
9.993006993e-1
9.993006993e-1
9.993006993e-1
9.993006993e-1
9.993006993e-1
9.993006993e-1
9.993006993e-1
9.993006993e-1
9.994005994e-1
9.994005994e-1
9.994005994e-1
9.994005994e-1
9.994005994e-1
9.994005994e-1
9.994005994e-1
9.994005994e-1
9.994005994e-1
9.994005994e-1
9.994005994e-1
9.994005994e-1
9.994005994e-1
9.994005994e-1
9.994005994e-1
9.994005994e-1
9.994005994e-1
9.994005994e-1
9.994005994e-1
9.994005994e-1
9.994005994e-1
9.995004995e-1
9.995004995e-1
9.995004995e-1
9.995004995e-1
9.995004995e-1
9.995004995e-1
9.995004995e-1
9.995004995e-1
9.995004995e-1
9.995004995e-1
9.995004995e-1
9.995004995e-1
9.995004995e-1
9.995004995e-1
9.995004995e-1
9.995004995e-1
9.995004995e-1
9.995004995e-1
9.995004995e-1
9.995004995e-1
9.995004995e-1
9.996003996e-1
9.996003996e-1
9.996003996e-1
9.996003996e-1
9.996003996e-1
9.996003996e-1
9.996003996e-1
9.996003996e-1
9.996003996e-1
9.996003996e-1
9.996003996e-1
9.996003996e-1
9.996003996e-1
9.996003996e-1
9.996003996e-1
9.996003996e-1
9.996003996e-1
9.996003996e-1
9.996003996e-1
9.996003996e-1
9.996003996e-1
9.997002997e-1
9.997002997e-1
9.997002997e-1
9.997002997e-1
9.997002997e-1
9.997002997e-1
9.997002997e-1
9.997002997e-1
9.997002997e-1
9.997002997e-1
9.997002997e-1
9.997002997e-1
9.997002997e-1
9.997002997e-1
9.997002997e-1
9.997002997e-1
9.997002997e-1
9.997002997e-1
9.997002997e-1
9.997002997e-1
9.997002997e-1
9.998001998e-1
9.998001998e-1
9.998001998e-1
9.998001998e-1
9.998001998e-1
9.998001998e-1
9.998001998e-1
9.998001998e-1
9.998001998e-1
9.998001998e-1
9.998001998e-1
9.998001998e-1
9.998001998e-1
9.998001998e-1
9.998001998e-1
9.998001998e-1
9.998001998e-1
9.998001998e-1
9.998001998e-1
9.998001998e-1
9.998001998e-1
9.999000999e-1
9.999000999e-1
9.999000999e-1
9.999000999e-1
9.999000999e-1
9.999000999e-1
9.999000999e-1
9.999000999e-1
9.999000999e-1
9.999000999e-1
9.999000999e-1
9.999000999e-1
9.999000999e-1
9.999000999e-1
9.999000999e-1
9.999000999e-1
9.999000999e-1
9.999000999e-1
9.999000999e-1
9.999000999e-1
9.999000999e-1
1.000000000e0
1.000000000e0
1.000000000e0
1.000000000e0
1.000000000e0
1.000000000e0
1.000000000e0
1.000000000e0
1.000000000e0
1.000000000e0
1.000000000e0
1.000000000e0
1.000000000e0
1.000000000e0
1.000000000e0
1.000000000e0
1.000000000e0
1.000000000e0
1.000000000e0
1.000000000e0
1.000000000e0
VECTORS B_field double
1.998001998e3 3.080913302e-11 0.000000000e0
1.998001998e3 -3.979039320e-11 0.000000000e0
1.998001998e3 6.722681671e-11 0.000000000e0
1.998001998e3 -8.715990892e-11 0.000000000e0
1.998001998e3 9.284425081e-11 0.000000000e0
1.998001998e3 -8.905468955e-11 0.000000000e0
1.998001998e3 8.966101935e-11 0.000000000e0
1.998001998e3 -1.017118241e-10 0.000000000e0
1.998001998e3 1.190680147e-10 0.000000000e0
1.998001998e3 -1.208112129e-10 0.000000000e0
1.998001998e3 7.882287415e-11 0.000000000e0
1.998001998e3 1.955413609e-11 0.000000000e0
1.998001998e3 -1.585552430e-10 0.000000000e0
1.998001998e3 2.910383046e-10 0.000000000e0
1.998001998e3 -3.581135388e-10 0.000000000e0
1.998001998e3 3.177168158e-10 0.000000000e0
1.998001998e3 -1.654522445e-10 0.000000000e0
1.998001998e3 -5.525180313e-11 0.000000000e0
1.998001998e3 2.703473001e-10 0.000000000e0
1.998001998e3 -4.023756143e-10 0.000000000e0
1.998001998e3 0.000000000e0 0.000000000e0
1.998001998e3 -1.382431947e-10 0.000000000e0
1.998001998e3 1.009539119e-10 0.000000000e0
1.998001998e3 -1.366515789e-10 0.000000000e0
1.998001998e3 1.815957755e-10 0.000000000e0
1.998001998e3 -2.155502443e-10 0.000000000e0
1.998001998e3 2.378328645e-10 0.000000000e0
1.998001998e3 -2.541279779e-10 0.000000000e0
1.998001998e3 2.718631246e-10 0.000000000e0
1.998001998e3 -2.789117085e-10 0.000000000e0
1.998001998e3 2.476857238e-10 0.000000000e0
1.998001998e3 -1.474139329e-10 0.000000000e0
1.998001998e3 -4.342837201e-11 0.000000000e0
1.998001998e3 3.036954392e-10 0.000000000e0
1.998001998e3 -5.700258043e-10 0.000000000e0
1.998001998e3 7.431329626e-10 0.000000000e0
1.998001998e3 -7.288842122e-10 0.000000000e0
1.998001998e3 4.923397986e-10 0.000000000e0
1.998001998e3 -7.730704965e-11 0.000000000e0
1.998001998e3 -3.922953814e-10 0.000000000e0
1.998001998e3 7.591249111e-10 0.000000000e0
1.998001998e3 -8.047512286e-10 0.000000000e0
1.998001998e3 6.227007058e-10 0.000000000e0
1.998001998e3 -4.763099544e-10 0.000000000e0
1.998001998e3 5.335323294e-10 0.000000000e0
1.998001998e3 -6.342588676e-10 0.000000000e0
1.998001998e3 7.646576705e-10 0.000000000e0
1.998001998e3 -8.968754628e-10 0.000000000e0
1.998001998e3 1.015033983e-9 0.000000000e0
1.998001998e3 -1.077637535e-9 0.000000000e0
1.998001998e3 1.019922517e-9 0.000000000e0
1.998001998e3 -7.640134451e-10 0.000000000e0
1.998001998e3 2.644355845e-10 0.000000000e0
1.998001998e3 4.527767790e-10 0.000000000e0
1.998001998e3 -1.287162377e-9 0.000000000e0
1.998001998e3 2.038480792e-9 0.000000000e0
1.998001998e3 -2.462456905e-9 0.000000000e0
1.998001998e3 2.340698302e-9 0.000000000e0
1.998001998e3 -1.581611286e-9 0.000000000e0
1.998001998e3 3.171483816e-10 0.000000000e0
1.998001998e3 1.119095335e-9 0.000000000e0
1.998001998e3 -2.283930674e-9 0.000000000e0
1.998001998e3 3.162237287e-9 0.000000000e0
1.998001998e3 -1.863857809e-9 0.000000000e0
1.998001998e3 1.739635991e-9 0.000000000e0
1.998001998e3 -1.736376968e-9 0.000000000e0
1.998001998e3 1.914562138e-9 0.000000000e0
1.998001998e3 -2.283210658e-9 0.000000000e0
1.998001998e3 2.762665948e-9 0.000000000e0
1.998001998e3 -3.174591257e-9 0.000000000e0
1.998001998e3 3.293659271e-9 0.000000000e0
1.998001998e3 -2.881430798e-9 0.000000000e0
1.998001998e3 1.789658199e-9 0.000000000e0
1.998001998e3 -4.736951572e-11 0.000000000e0
1.998001998e3 -2.096006331e-9 0.000000000e0
1.998001998e3 4.224981846e-9 0.000000000e0
1.998001998e3 -5.876775807e-9 0.000000000e0
1.998001998e3 6.600430424e-9 0.000000000e0
1.998001998e3 -6.056325219e-9 0.000000000e0
1.998001998e3 4.153813885e-9 0.000000000e0
1.998001998e3 -1.164380592e-9 0.000000000e0
1.998001998e3 -2.238569626e-9 0.000000000e0
1.998001998e3 5.146830517e-9 0.000000000e0
1.998001998e3 -1.016420962e-8 0.000000000e0
1.998001998e3 3.487002687e-9 0.000000000e0
1.998001998e3 -4.853518476e-9 0.000000000e0
1.998001998e3 4.632208099e-9 0.000000000e0
1.998001998e3 -4.785912703e-9 0.000000000e0
1.998001998e3 5.529727787e-9 0.000000000e0
1.998001998e3 -6.634460685e-9 0.000000000e0
1.998001998e3 7.505301861e-9 0.000000000e0
1.998001998e3 -7.427994812e-9 0.000000000e0
1.998001998e3 5.864421837e-9 0.000000000e0
1.998001998e3 -2.670124862e-9 0.000000000e0
1.998001998e3 -1.741985519e-9 0.000000000e0
1.998001998e3 6.493185841e-9 0.000000000e0
1.998001998e3 -1.051103027e-8 0.000000000e0
1.998001998e3 1.292164598e-8 0.000000000e0
1.998001998e3 -1.330893914e-8 0.000000000e0
1.998001998e3 1.164668599e-8 0.000000000e0
1.998001998e3 -8.156196903e-9 0.000000000e0
1.998001998e3 3.302072097e-9 0.000000000e0
1.998001998e3 2.151561299e-9 0.000000000e0
1.998001998e3 -7.182279660e-9 0.000000000e0
1.998001998e3 2.433838138e-8 0.000000000e0
1.998001998e3 -2.327700107e-9 0.000000000e0
1.998001998e3 1.029851167e-8 0.000000000e0
1.998001998e3 -9.904700467e-9 0.000000000e0
1.998001998e3 9.871807075e-9 0.000000000e0
1.998001998e3 -1.068716908e-8 0.000000000e0
1.998001998e3 1.203716238e-8 0.000000000e0
1.998001998e3 -1.274050495e-8 0.000000000e0
1.998001998e3 1.144538449e-8 0.000000000e0
1.998001998e3 -7.415565051e-9 0.000000000e0
1.998001998e3 9.191959786e-10 0.000000000e0
1.998001998e3 6.853345743e-9 0.000000000e0
1.998001998e3 -1.405366371e-8 0.000000000e0
1.998001998e3 1.882002228e-8 0.000000000e0
1.998001998e3 -2.011681014e-8 0.000000000e0
1.998001998e3 1.827402230e-8 0.000000000e0
1.998001998e3 -1.466772422e-8 0.000000000e0
1.998001998e3 1.068792699e-8 0.000000000e0
1.998001998e3 -6.956421809e-9 0.000000000e0
1.998001998e3 3.239771710e-9 0.000000000e0
1.998001998e3 1.013480263e-9 0.000000000e0
1.998001998e3 -3.931563697e-8 0.000000000e0
1.998001998e3 -7.771329062e-9 0.000000000e0
1.998001998e3 -1.611321447e-8 0.000000000e0
1.998001998e3 1.656129219e-8 0.000000000e0
1.998001998e3 -1.645821612e-8 0.000000000e0
1.998001998e3 1.614444045e-8 0.000000000e0
1.998001998e3 -1.546747323e-8 0.000000000e0
1.998001998e3 1.340686140e-8 0.000000000e0
1.998001998e3 -8.821795442e-9 0.000000000e0
1.998001998e3 1.638303123e-9 0.000000000e0
1.998001998e3 6.875173616e-9 0.000000000e0
1.998001998e3 -1.469197741e-8 0.000000000e0
1.998001998e3 1.978787623e-8 0.000000000e0
1.998001998e3 -2.067311774e-8 0.000000000e0
1.998001998e3 1.714367196e-8 0.000000000e0
1.998001998e3 -1.104550999e-8 0.000000000e0
1.998001998e3 5.986597292e-9 0.000000000e0
1.998001998e3 -5.367231400e-9 0.000000000e0
1.998001998e3 9.987767650e-9 0.000000000e0
1.998001998e3 -1.724220056e-8 0.000000000e0
1.998001998e3 2.233355190e-8 0.000000000e0
1.998001998e3 2.670943407e-8 0.000000000e0
1.998001998e3 2.905774939e-8 0.000000000e0
1.998001998e3 1.731981077e-8 0.000000000e0
1.998001998e3 -2.057822712e-8 0.000000000e0
1.998001998e3 2.138040145e-8 0.000000000e0
1.998001998e3 -1.828963529e-8 0.000000000e0
1.998001998e3 1.171338226e-8 0.000000000e0
1.998001998e3 -2.849446901e-9 0.000000000e0
1.998001998e3 -6.781798826e-9 0.000000000e0
1.998001998e3 1.501151322e-8 0.000000000e0
1.998001998e3 -1.929280794e-8 0.000000000e0
1.998001998e3 1.808408949e-8 0.000000000e0
1.998001998e3 -1.184647166e-8 0.000000000e0
1.998001998e3 2.567503543e-9 0.000000000e0
1.998001998e3 7.456947060e-9 0.000000000e0
1.998001998e3 -1.562239049e-8 0.000000000e0
1.998001998e3 1.810591736e-8 0.000000000e0
1.998001998e3 -1.080631288e-8 0.000000000e0
1.998001998e3 -7.444820464e-9 0.000000000e0
1.998001998e3 3.256657995e-8 0.000000000e0
1.998001998e3 -5.591391528e-8 0.000000000e0
1.998001998e3 5.573201634e-8 0.000000000e0
1.998001998e3 -4.995672498e-8 0.000000000e0
1.998001998e3 -1.025758441e-8 0.000000000e0
1.998001998e3 1.660646376e-8 0.000000000e0
1.998001998e3 -1.975301226e-8 0.000000000e0
1.998001998e3 1.425966426e-8 0.000000000e0
1.998001998e3 -5.848050932e-10 0.000000000e0
1.998001998e3 -1.585794962e-8 0.000000000e0
1.998001998e3 2.847294430e-8 0.000000000e0
1.998001998e3 -3.213881428e-8 0.000000000e0
1.998001998e3 2.432716428e-8 0.000000000e0
1.998001998e3 -6.092098677e-9 0.000000000e0
1.998001998e3 -1.687355204e-8 0.000000000e0
1.998001998e3 3.615878086e-8 0.000000000e0
1.998001998e3 -4.585460071e-8 0.000000000e0
1.998001998e3 4.568482836e-8 0.000000000e0
1.998001998e3 -3.815269641e-8 0.000000000e0
1.998001998e3 2.398731643e-8 0.000000000e0
1.998001998e3 -2.103661245e-9 0.000000000e0
1.998001998e3 -2.740125638e-8 0.000000000e0
1.998001998e3 6.077455813e-8 0.000000000e0
1.998001998e3 -2.009279948e-7 0.000000000e0
1.998001998e3 5.208615524e-8 0.000000000e0
1.998001998e3 -5.226562886e-10 0.000000000e0
1.998001998e3 -3.290248666e-9 0.000000000e0
1.998001998e3 8.331274633e-9 0.000000000e0
1.998001998e3 -5.126215304e-9 0.000000000e0
1.998001998e3 -8.198185242e-9 0.000000000e0
1.998001998e3 2.394972398e-8 0.000000000e0
1.998001998e3 -3.174621573e-8 0.000000000e0
1.998001998e3 2.613493659e-8 0.000000000e0
1.998001998e3 -7.520308524e-9 0.000000000e0
1.998001998e3 -1.986397062e-8 0.000000000e0
1.998001998e3 4.771330471e-8 0.000000000e0
1.998001998e3 -6.400902445e-8 0.000000000e0
1.998001998e3 6.022310117e-8 0.000000000e0
1.998001998e3 -4.005475300e-8 0.000000000e0
1.998001998e3 1.755900788e-8 0.000000000e0
1.998001998e3 -5.467275817e-9 0.000000000e0
1.998001998e3 5.921113673e-9 0.000000000e0
1.998001998e3 -1.000322906e-8 0.000000000e0
1.998001998e3 3.470025452e-9 0.000000000e0
1.998001998e3 2.781343937e-7 0.000000000e0
6.673326673e2 -5.414525125e-8 0.000000000e0
1.000000000e3 8.354012001e-9 0.000000000e0
1.000000000e3 -1.157665489e-8 0.000000000e0
1.000000000e3 -1.590403069e-9 0.000000000e0
1.000000000e3 1.986215163e-8 0.000000000e0
9.999999999e2 -2.700471669e-8 0.000000000e0
1.000000000e3 1.828448148e-8 0.000000000e0
1.000000000e3 -1.792917222e-9 0.000000000e0
1.000000000e3 -1.317312126e-8 0.000000000e0
1.000000000e3 2.171994614e-8 0.000000000e0
1.000000000e3 -2.017077350e-8 0.000000000e0
1.000000000e3 6.579891002e-9 0.000000000e0
1.000000000e3 1.398135889e-8 0.000000000e0
1.000000000e3 -2.911959503e-8 0.000000000e0
1.000000000e3 2.828104092e-8 0.000000000e0
1.000000000e3 -1.340655823e-8 0.000000000e0
1.000000000e3 -1.793523552e-9 0.000000000e0
1.000000000e3 3.122598476e-9 0.000000000e0
1.000000000e3 1.382795745e-8 0.000000000e0
1.000000000e3 -4.028879630e-8 0.000000000e0
1.332667333e3 -1.134721970e-7 0.000000000e0
1.998002061e0 5.446054274e-8 0.000000000e0
1.998001998e0 -4.513519040e-9 0.000000000e0
1.998002010e0 2.282043473e-8 0.000000000e0
1.998001995e0 -2.267188393e-8 0.000000000e0
1.998001974e0 -4.705119257e-10 0.000000000e0
1.998002049e0 3.445832893e-8 0.000000000e0
1.998001938e0 -6.237617830e-8 0.000000000e0
1.998002048e0 7.266256337e-8 0.000000000e0
1.998001973e0 -5.924145322e-8 0.000000000e0
1.998001989e0 2.193761854e-8 0.000000000e0
1.998002043e0 2.888494540e-8 0.000000000e0
1.998001929e0 -7.269227353e-8 0.000000000e0
1.998002062e0 9.080152571e-8 0.000000000e0
1.998001965e0 -8.022288966e-8 0.000000000e0
1.998001996e0 5.298898031e-8 0.000000000e0
1.998002020e0 -2.266460797e-8 0.000000000e0
1.998001972e0 -4.612957127e-9 0.000000000e0
1.998002020e0 2.874912752e-8 0.000000000e0
1.998001977e0 -5.238750115e-8 0.000000000e0
1.998002031e0 7.596827345e-8 0.000000000e0
1.998002019e0 5.044663946e-9 0.000000000e0
1.998001932e0 -8.305384351e-8 0.000000000e0
1.998001978e0 -7.182582825e-9 0.000000000e0
1.998002004e0 -1.395649936e-8 0.000000000e0
1.998002004e0 2.758012367e-8 0.000000000e0
1.998001996e0 -1.857794511e-8 0.000000000e0
1.998001983e0 -8.455875407e-9 0.000000000e0
1.998002029e0 3.860683743e-8 0.000000000e0
1.998001960e0 -5.912746322e-8 0.000000000e0
1.998002033e0 6.249441261e-8 0.000000000e0
1.998001974e0 -4.377276734e-8 0.000000000e0
1.998001998e0 3.111684540e-9 0.000000000e0
1.998002032e0 4.525827535e-8 0.000000000e0
1.998001944e0 -7.500057109e-8 0.000000000e0
1.998002039e0 7.044339630e-8 0.000000000e0
1.998001986e0 -4.218175794e-8 0.000000000e0
1.998001987e0 1.250433949e-8 0.000000000e0
1.998002017e0 4.610531808e-9 0.000000000e0
1.998001985e0 -7.268075327e-9 0.000000000e0
1.998001997e0 5.061034850e-9 0.000000000e0
1.998001999e0 -1.465681028e-8 0.000000000e0
1.998002007e0 1.418641962e-7 0.000000000e0
1.998002074e0 1.135461692e-7 0.000000000e0
1.998002030e0 1.175855383e-8 0.000000000e0
1.998001971e0 -3.582196465e-9 0.000000000e0
1.998002002e0 -1.364181420e-8 0.000000000e0
1.998002012e0 1.993066689e-8 0.000000000e0
1.998001986e0 -1.062532344e-8 0.000000000e0
1.998001996e0 -3.707706734e-9 0.000000000e0
1.998002007e0 1.288996524e-8 0.000000000e0
1.998001988e0 -1.820202063e-8 0.000000000e0
1.998002018e0 2.373659906e-8 0.000000000e0
1.998001971e0 -2.116454804e-8 0.000000000e0
1.998002008e0 2.510205377e-9 0.000000000e0
1.998002015e0 1.595556872e-8 0.000000000e0
1.998001980e0 -1.001050502e-8 0.000000000e0
1.998001994e0 -1.851185516e-8 0.000000000e0
1.998002025e0 4.697540135e-8 0.000000000e0
1.998001955e0 -5.545977425e-8 0.000000000e0
1.998002036e0 3.193842228e-8 0.000000000e0
1.998001998e0 1.885625049e-8 0.000000000e0
1.998001956e0 -6.609601163e-8 0.000000000e0
1.998002075e0 2.171509550e-8 0.000000000e0
1.998001916e0 -1.184889697e-7 0.000000000e0
1.998001972e0 -5.942638381e-9 0.000000000e0
1.998002039e0 1.821111558e-8 0.000000000e0
1.998001979e0 -6.523502331e-9 0.000000000e0
1.998001984e0 -1.107582648e-8 0.000000000e0
1.998002021e0 1.686021278e-8 0.000000000e0
1.998001988e0 -1.375459154e-8 0.000000000e0
1.998002005e0 1.587371419e-8 0.000000000e0
1.998001981e0 -1.767633269e-8 0.000000000e0
1.998002000e0 -1.632846155e-9 0.000000000e0
1.998002035e0 3.491913958e-8 0.000000000e0
1.998001950e0 -4.789277834e-8 0.000000000e0
1.998002021e0 3.267511299e-8 0.000000000e0
1.998001998e0 -1.583854707e-8 0.000000000e0
1.998001991e0 1.504304237e-8 0.000000000e0
1.998001998e0 -2.967256781e-8 0.000000000e0
1.998002027e0 5.349405304e-8 0.000000000e0
1.998001940e0 -6.434068685e-8 0.000000000e0
1.998002043e0 3.670781249e-8 0.000000000e0
1.998002001e0 1.979303003e-8 0.000000000e0
1.998001866e0 -2.511187631e-7 0.000000000e0
1.998002070e0 8.798087947e-8 0.000000000e0
1.998002002e0 -9.138602763e-9 0.000000000e0
1.998001959e0 -1.864827937e-8 0.000000000e0
1.998002030e0 1.765571748e-8 0.000000000e0
1.998002008e0 4.950682827e-9 0.000000000e0
1.998001969e0 -1.690144321e-8 0.000000000e0
1.998002006e0 9.085852071e-9 0.000000000e0
1.998002000e0 -7.642180814e-9 0.000000000e0
1.998002018e0 1.970026157e-8 0.000000000e0
1.998001978e0 -1.112918350e-8 0.000000000e0
1.998001973e0 -2.872548066e-8 0.000000000e0
1.998002055e0 5.702107349e-8 0.000000000e0
1.998001956e0 -4.260497614e-8 0.000000000e0
1.998002004e0 8.415857640e-10 0.000000000e0
1.998002032e0 4.313490839e-8 0.000000000e0
1.998001936e0 -6.495550527e-8 0.000000000e0
1.998002039e0 3.771189464e-8 0.000000000e0
1.998002022e0 2.853812475e-8 0.000000000e0
1.998001928e0 -8.332426660e-8 0.000000000e0
1.998002070e0 9.544298033e-8 0.000000000e0
1.998002038e0 1.485180595e-7 0.000000000e0
1.998001951e0 -3.168800807e-8 0.000000000e0
1.998002019e0 2.387181060e-8 0.000000000e0
1.998002022e0 7.716153050e-9 0.000000000e0
1.998001961e0 -1.882290235e-8 0.000000000e0
1.998001993e0 -3.650105403e-9 0.000000000e0
1.998002034e0 1.963720327e-8 0.000000000e0
1.998001990e0 -1.808681797e-9 0.000000000e0
1.998001976e0 -1.463195076e-8 0.000000000e0
1.998001997e0 -3.182625126e-9 0.000000000e0
1.998002027e0 2.277314100e-8 0.000000000e0
1.998001991e0 -7.325070328e-9 0.000000000e0
1.998001972e0 -2.114393283e-8 0.000000000e0
1.998002030e0 2.901409365e-8 0.000000000e0
1.998001977e0 -1.213872262e-8 0.000000000e0
1.998001988e0 -2.894436572e-8 0.000000000e0
1.998002058e0 7.991244881e-8 0.000000000e0
1.998001922e0 -9.427943345e-8 0.000000000e0
1.998002030e0 4.887745793e-8 0.000000000e0
1.998002022e0 2.298717542e-8 0.000000000e0
1.998001938e0 -8.364440873e-8 0.000000000e0
1.998002071e0 1.657984588e-7 0.000000000e0
1.998002013e0 -1.970208056e-8 0.000000000e0
1.998001964e0 -2.751100207e-8 0.000000000e0
1.998001992e0 1.758356423e-9 0.000000000e0
1.998002037e0 2.116757969e-8 0.000000000e0
1.998001991e0 -3.379075982e-9 0.000000000e0
1.998001961e0 -2.198188061e-8 0.000000000e0
1.998002017e0 7.754958157e-9 0.000000000e0
1.998002024e0 2.122942533e-8 0.000000000e0
1.998001979e0 -1.250979646e-8 0.000000000e0
1.998001977e0 -2.241237477e-8 0.000000000e0
1.998002030e0 3.773372252e-8 0.000000000e0
1.998001980e0 -2.480798382e-8 0.000000000e0
1.998001996e0 -5.858964869e-9 0.000000000e0
1.998002033e0 4.684443411e-8 0.000000000e0
1.998001942e0 -6.694123537e-8 0.000000000e0
1.998002027e0 3.790288853e-8 0.000000000e0
1.998002013e0 1.493026502e-8 0.000000000e0
1.998001965e0 -5.109965665e-8 0.000000000e0
1.998002033e0 6.359611386e-8 0.000000000e0
1.998001967e0 -5.277494589e-8 0.000000000e0
1.998001969e0 -1.756828472e-7 0.000000000e0
1.998002007e0 3.484819899e-8 0.000000000e0
1.998002031e0 2.216863019e-8 0.000000000e0
1.998001987e0 -7.323857668e-9 0.000000000e0
1.998001964e0 -2.421681226e-8 0.000000000e0
1.998002023e0 1.832449925e-8 0.000000000e0
1.998002022e0 1.529042493e-8 0.000000000e0
1.998001967e0 -2.144467241e-8 0.000000000e0
1.998001991e0 -4.762114258e-9 0.000000000e0
1.998002021e0 1.765329216e-8 0.000000000e0
1.998001996e0 -1.691053815e-9 0.000000000e0
1.998001981e0 -2.096809718e-8 0.000000000e0
1.998002023e0 3.551031114e-8 0.000000000e0
1.998001972e0 -2.788995819e-8 0.000000000e0
1.998001992e0 -1.811955978e-8 0.000000000e0
1.998002055e0 7.910299852e-8 0.000000000e0
1.998001923e0 -1.056135564e-7 0.000000000e0
1.998002051e0 8.434108167e-8 0.000000000e0
1.998001977e0 -3.367252551e-8 0.000000000e0
1.998001980e0 -3.094707305e-8 0.000000000e0
1.998002055e0 8.552645644e-8 0.000000000e0
1.998001915e0 -1.361319543e-7 0.000000000e0
1.998001978e0 -2.156836369e-8 0.000000000e0
1.998001977e0 -1.504364870e-8 0.000000000e0
1.998002023e0 1.480596742e-8 0.000000000e0
1.998002014e0 1.504304237e-8 0.000000000e0
1.998001963e0 -2.724603595e-8 0.000000000e0
1.998002000e0 1.663768974e-9 0.000000000e0
1.998002028e0 2.479040025e-8 0.000000000e0
1.998001977e0 -2.002222269e-8 0.000000000e0
1.998001994e0 -3.471238112e-9 0.000000000e0
1.998002013e0 2.223168849e-8 0.000000000e0
1.998001978e0 -2.463760514e-8 0.000000000e0
1.998002010e0 1.834147649e-9 0.000000000e0
1.998002018e0 3.707221670e-8 0.000000000e0
1.998001956e0 -5.704714567e-8 0.000000000e0
1.998002024e0 3.870142488e-8 0.000000000e0
1.998002000e0 7.391160276e-10 0.000000000e0
1.998001976e0 -3.943508394e-8 0.000000000e0
1.998002036e0 6.505554969e-8 0.000000000e0
1.998001958e0 -6.523381065e-8 0.000000000e0
1.998002019e0 4.107641871e-8 0.000000000e0
1.998002053e0 2.000354774e-7 0.000000000e0
1.998002032e0 0.000000000e0 0.000000000e0
1.998002010e0 -1.078660716e-8 0.000000000e0
1.998001968e0 -1.566634940e-8 0.000000000e0
1.998001995e0 2.156593837e-8 0.000000000e0
1.998002034e0 8.299442319e-9 0.000000000e0
1.998001981e0 -3.041229017e-8 0.000000000e0
1.998001974e0 1.168154995e-8 0.000000000e0
1.998002031e0 2.246451913e-8 0.000000000e0
1.998001987e0 -3.286671320e-8 0.000000000e0
1.998001983e0 1.414688692e-8 0.000000000e0
1.998002035e0 1.926188512e-8 0.000000000e0
1.998001960e0 -4.714335470e-8 0.000000000e0
1.998001993e0 3.984556921e-8 0.000000000e0
1.998002057e0 1.232304688e-8 0.000000000e0
1.998001921e0 -7.460645672e-8 0.000000000e0
1.998002057e0 1.056772210e-7 0.000000000e0
1.998001974e0 -9.455349452e-8 0.000000000e0
1.998001974e0 4.742832971e-8 0.000000000e0
1.998002063e0 2.063704111e-8 0.000000000e0
1.998001923e0 -8.034597461e-8 0.000000000e0
1.998002008e0 1.653261279e-7 0.000000000e0
