# vtk DataFile Version 2.0
REM HCurl Driven step 1
ASCII
DATASET UNSTRUCTURED_GRID
POINTS 45 double
0.000000e0 0.000000e0 0.0
5.000000e-4 0.000000e0 0.0
1.000000e-3 0.000000e0 0.0
1.500000e-3 0.000000e0 0.0
2.000000e-3 0.000000e0 0.0
2.500000e-3 0.000000e0 0.0
3.000000e-3 0.000000e0 0.0
3.500000e-3 0.000000e0 0.0
4.000000e-3 0.000000e0 0.0
0.000000e0 5.000000e-4 0.0
5.000000e-4 5.000000e-4 0.0
1.000000e-3 5.000000e-4 0.0
1.500000e-3 5.000000e-4 0.0
2.000000e-3 5.000000e-4 0.0
2.500000e-3 5.000000e-4 0.0
3.000000e-3 5.000000e-4 0.0
3.500000e-3 5.000000e-4 0.0
4.000000e-3 5.000000e-4 0.0
0.000000e0 1.000000e-3 0.0
5.000000e-4 1.000000e-3 0.0
1.000000e-3 1.000000e-3 0.0
1.500000e-3 1.000000e-3 0.0
2.000000e-3 1.000000e-3 0.0
2.500000e-3 1.000000e-3 0.0
3.000000e-3 1.000000e-3 0.0
3.500000e-3 1.000000e-3 0.0
4.000000e-3 1.000000e-3 0.0
0.000000e0 1.500000e-3 0.0
5.000000e-4 1.500000e-3 0.0
1.000000e-3 1.500000e-3 0.0
1.500000e-3 1.500000e-3 0.0
2.000000e-3 1.500000e-3 0.0
2.500000e-3 1.500000e-3 0.0
3.000000e-3 1.500000e-3 0.0
3.500000e-3 1.500000e-3 0.0
4.000000e-3 1.500000e-3 0.0
0.000000e0 2.000000e-3 0.0
5.000000e-4 2.000000e-3 0.0
1.000000e-3 2.000000e-3 0.0
1.500000e-3 2.000000e-3 0.0
2.000000e-3 2.000000e-3 0.0
2.500000e-3 2.000000e-3 0.0
3.000000e-3 2.000000e-3 0.0
3.500000e-3 2.000000e-3 0.0
4.000000e-3 2.000000e-3 0.0
CELLS 64 256
3 0 1 10
3 0 10 9
3 1 2 11
3 1 11 10
3 2 3 12
3 2 12 11
3 3 4 13
3 3 13 12
3 4 5 14
3 4 14 13
3 5 6 15
3 5 15 14
3 6 7 16
3 6 16 15
3 7 8 17
3 7 17 16
3 9 10 19
3 9 19 18
3 10 11 20
3 10 20 19
3 11 12 21
3 11 21 20
3 12 13 22
3 12 22 21
3 13 14 23
3 13 23 22
3 14 15 24
3 14 24 23
3 15 16 25
3 15 25 24
3 16 17 26
3 16 26 25
3 18 19 28
3 18 28 27
3 19 20 29
3 19 29 28
3 20 21 30
3 20 30 29
3 21 22 31
3 21 31 30
3 22 23 32
3 22 32 31
3 23 24 33
3 23 33 32
3 24 25 34
3 24 34 33
3 25 26 35
3 25 35 34
3 27 28 37
3 27 37 36
3 28 29 38
3 28 38 37
3 29 30 39
3 29 39 38
3 30 31 40
3 30 40 39
3 31 32 41
3 31 41 40
3 32 33 42
3 32 42 41
3 33 34 43
3 33 43 42
3 34 35 44
3 34 44 43
CELL_TYPES 64
5
5
5
5
5
5
5
5
5
5
5
5
5
5
5
5
5
5
5
5
5
5
5
5
5
5
5
5
5
5
5
5
5
5
5
5
5
5
5
5
5
5
5
5
5
5
5
5
5
5
5
5
5
5
5
5
5
5
5
5
5
5
5
5
CELL_DATA 64
VECTORS E_real double
1.947013e-3 1.428217e-2 0.000000e0
1.622951e-2 -1.180870e-7 0.000000e0
-3.691050e-3 1.370024e-2 0.000000e0
-4.272744e-3 1.428205e-2 0.000000e0
9.709505e-4 -6.361964e-4 0.000000e0
-1.336537e-2 1.370014e-2 0.000000e0
8.121745e-4 -5.358298e-4 0.000000e0
9.124812e-4 -6.362038e-4 0.000000e0
4.576411e-4 -3.333669e-4 0.000000e0
6.597374e-4 -5.356516e-4 0.000000e0
2.889371e-4 -2.351619e-4 0.000000e0
3.867906e-4 -3.331954e-4 0.000000e0
1.587478e-4 -1.025925e-4 0.000000e0
2.910954e-4 -2.350149e-4 0.000000e0
3.251356e-5 1.669200e-7 0.000000e0
1.354925e-4 -1.026013e-4 0.000000e0
1.622972e-2 -1.968440e-2 0.000000e0
-3.454150e-3 -2.195146e-7 0.000000e0
-4.272706e-3 1.973395e-3 0.000000e0
1.738525e-2 -1.968452e-2 0.000000e0
-1.336524e-2 1.527301e-2 0.000000e0
-6.541405e-5 1.973339e-3 0.000000e0
9.125722e-4 2.660547e-3 0.000000e0
-1.169944e-2 1.527276e-2 0.000000e0
6.596009e-4 4.153152e-4 0.000000e0
-1.585481e-3 2.660414e-3 0.000000e0
3.866533e-4 -6.639125e-5 0.000000e0
-9.515149e-5 4.153555e-4 0.000000e0
2.910457e-4 -1.444657e-4 0.000000e0
2.128046e-4 -6.628058e-5 0.000000e0
1.356095e-4 7.323004e-8 0.000000e0
2.802236e-4 -1.444617e-4 0.000000e0
-3.453930e-3 1.579353e-4 0.000000e0
-3.295687e-3 -1.535606e-7 0.000000e0
1.738524e-2 -1.539745e-2 0.000000e0
1.829662e-3 1.580051e-4 0.000000e0
-6.528422e-5 -3.604819e-3 0.000000e0
1.172733e-2 -1.539737e-2 0.000000e0
-1.169924e-2 8.945774e-3 0.000000e0
8.515594e-4 -3.604936e-3 0.000000e0
-1.585263e-3 3.626996e-3 0.000000e0
-6.903671e-3 8.945638e-3 0.000000e0
-9.510259e-5 1.193118e-3 0.000000e0
-2.528606e-3 3.626753e-3 0.000000e0
2.127802e-4 1.564273e-4 0.000000e0
-8.238274e-4 1.193066e-3 0.000000e0
2.803811e-4 1.515401e-7 0.000000e0
1.242682e-4 1.564108e-4 0.000000e0
-3.295387e-3 1.827388e-3 0.000000e0
-1.467558e-3 -1.474550e-7 0.000000e0
1.829578e-3 -2.075000e-3 0.000000e0
-2.072462e-3 1.827134e-3 0.000000e0
1.172719e-2 -1.082612e-2 0.000000e0
2.975845e-3 -2.074930e-3 0.000000e0
8.515393e-4 -4.590623e-3 0.000000e0
7.086621e-3 -1.082589e-2 0.000000e0
-6.903448e-3 3.655349e-3 0.000000e0
1.342588e-3 -4.590556e-3 0.000000e0
-2.528416e-3 2.864392e-3 0.000000e0
-3.318802e-3 3.655042e-3 0.000000e0
-8.237767e-4 1.362998e-3 0.000000e0
-2.324762e-3 2.864157e-3 0.000000e0
1.243260e-4 6.291524e-8 0.000000e0
-1.238374e-3 1.362891e-3 0.000000e0
VECTORS E_imag double
0.000000e0 0.000000e0 0.000000e0
0.000000e0 0.000000e0 0.000000e0
0.000000e0 0.000000e0 0.000000e0
0.000000e0 0.000000e0 0.000000e0
0.000000e0 0.000000e0 0.000000e0
0.000000e0 0.000000e0 0.000000e0
0.000000e0 0.000000e0 0.000000e0
0.000000e0 0.000000e0 0.000000e0
0.000000e0 0.000000e0 0.000000e0
0.000000e0 0.000000e0 0.000000e0
0.000000e0 0.000000e0 0.000000e0
0.000000e0 0.000000e0 0.000000e0
0.000000e0 0.000000e0 0.000000e0
0.000000e0 0.000000e0 0.000000e0
0.000000e0 0.000000e0 0.000000e0
0.000000e0 0.000000e0 0.000000e0
0.000000e0 0.000000e0 0.000000e0
0.000000e0 0.000000e0 0.000000e0
0.000000e0 0.000000e0 0.000000e0
0.000000e0 0.000000e0 0.000000e0
0.000000e0 0.000000e0 0.000000e0
0.000000e0 0.000000e0 0.000000e0
0.000000e0 0.000000e0 0.000000e0
0.000000e0 0.000000e0 0.000000e0
0.000000e0 0.000000e0 0.000000e0
0.000000e0 0.000000e0 0.000000e0
0.000000e0 0.000000e0 0.000000e0
0.000000e0 0.000000e0 0.000000e0
0.000000e0 0.000000e0 0.000000e0
0.000000e0 0.000000e0 0.000000e0
0.000000e0 0.000000e0 0.000000e0
0.000000e0 0.000000e0 0.000000e0
0.000000e0 0.000000e0 0.000000e0
0.000000e0 0.000000e0 0.000000e0
0.000000e0 0.000000e0 0.000000e0
0.000000e0 0.000000e0 0.000000e0
0.000000e0 0.000000e0 0.000000e0
0.000000e0 0.000000e0 0.000000e0
0.000000e0 0.000000e0 0.000000e0
0.000000e0 0.000000e0 0.000000e0
0.000000e0 0.000000e0 0.000000e0
0.000000e0 0.000000e0 0.000000e0
0.000000e0 0.000000e0 0.000000e0
0.000000e0 0.000000e0 0.000000e0
0.000000e0 0.000000e0 0.000000e0
0.000000e0 0.000000e0 0.000000e0
0.000000e0 0.000000e0 0.000000e0
0.000000e0 0.000000e0 0.000000e0
0.000000e0 0.000000e0 0.000000e0
0.000000e0 0.000000e0 0.000000e0
0.000000e0 0.000000e0 0.000000e0
0.000000e0 0.000000e0 0.000000e0
0.000000e0 0.000000e0 0.000000e0
0.000000e0 0.000000e0 0.000000e0
0.000000e0 0.000000e0 0.000000e0
0.000000e0 0.000000e0 0.000000e0
0.000000e0 0.000000e0 0.000000e0
0.000000e0 0.000000e0 0.000000e0
0.000000e0 0.000000e0 0.000000e0
0.000000e0 0.000000e0 0.000000e0
0.000000e0 0.000000e0 0.000000e0
0.000000e0 0.000000e0 0.000000e0
0.000000e0 0.000000e0 0.000000e0
0.000000e0 0.000000e0 0.000000e0
