$MeshFormat
4.1 0 8
$EndMeshFormat
$Nodes
1 441 1 441
2 1 0 441
1
2
3
4
5
6
7
8
9
10
11
12
13
14
15
16
17
18
19
20
21
22
23
24
25
26
27
28
29
30
31
32
33
34
35
36
37
38
39
40
41
42
43
44
45
46
47
48
49
50
51
52
53
54
55
56
57
58
59
60
61
62
63
64
65
66
67
68
69
70
71
72
73
74
75
76
77
78
79
80
81
82
83
84
85
86
87
88
89
90
91
92
93
94
95
96
97
98
99
100
101
102
103
104
105
106
107
108
109
110
111
112
113
114
115
116
117
118
119
120
121
122
123
124
125
126
127
128
129
130
131
132
133
134
135
136
137
138
139
140
141
142
143
144
145
146
147
148
149
150
151
152
153
154
155
156
157
158
159
160
161
162
163
164
165
166
167
168
169
170
171
172
173
174
175
176
177
178
179
180
181
182
183
184
185
186
187
188
189
190
191
192
193
194
195
196
197
198
199
200
201
202
203
204
205
206
207
208
209
210
211
212
213
214
215
216
217
218
219
220
221
222
223
224
225
226
227
228
229
230
231
232
233
234
235
236
237
238
239
240
241
242
243
244
245
246
247
248
249
250
251
252
253
254
255
256
257
258
259
260
261
262
263
264
265
266
267
268
269
270
271
272
273
274
275
276
277
278
279
280
281
282
283
284
285
286
287
288
289
290
291
292
293
294
295
296
297
298
299
300
301
302
303
304
305
306
307
308
309
310
311
312
313
314
315
316
317
318
319
320
321
322
323
324
325
326
327
328
329
330
331
332
333
334
335
336
337
338
339
340
341
342
343
344
345
346
347
348
349
350
351
352
353
354
355
356
357
358
359
360
361
362
363
364
365
366
367
368
369
370
371
372
373
374
375
376
377
378
379
380
381
382
383
384
385
386
387
388
389
390
391
392
393
394
395
396
397
398
399
400
401
402
403
404
405
406
407
408
409
410
411
412
413
414
415
416
417
418
419
420
421
422
423
424
425
426
427
428
429
430
431
432
433
434
435
436
437
438
439
440
441
0.000000000000000e0 0.000000000000000e0 0.000000000000000e0
5.000000000000000e-2 0.000000000000000e0 0.000000000000000e0
1.000000000000000e-1 0.000000000000000e0 0.000000000000000e0
1.500000000000000e-1 0.000000000000000e0 0.000000000000000e0
2.000000000000000e-1 0.000000000000000e0 0.000000000000000e0
2.500000000000000e-1 0.000000000000000e0 0.000000000000000e0
3.000000000000000e-1 0.000000000000000e0 0.000000000000000e0
3.500000000000000e-1 0.000000000000000e0 0.000000000000000e0
4.000000000000000e-1 0.000000000000000e0 0.000000000000000e0
4.500000000000000e-1 0.000000000000000e0 0.000000000000000e0
5.000000000000000e-1 0.000000000000000e0 0.000000000000000e0
5.500000000000000e-1 0.000000000000000e0 0.000000000000000e0
6.000000000000000e-1 0.000000000000000e0 0.000000000000000e0
6.500000000000000e-1 0.000000000000000e0 0.000000000000000e0
7.000000000000000e-1 0.000000000000000e0 0.000000000000000e0
7.500000000000000e-1 0.000000000000000e0 0.000000000000000e0
8.000000000000000e-1 0.000000000000000e0 0.000000000000000e0
8.500000000000000e-1 0.000000000000000e0 0.000000000000000e0
9.000000000000000e-1 0.000000000000000e0 0.000000000000000e0
9.500000000000000e-1 0.000000000000000e0 0.000000000000000e0
1.000000000000000e0 0.000000000000000e0 0.000000000000000e0
0.000000000000000e0 5.000000000000000e-2 0.000000000000000e0
5.000000000000000e-2 5.000000000000000e-2 0.000000000000000e0
1.000000000000000e-1 5.000000000000000e-2 0.000000000000000e0
1.500000000000000e-1 5.000000000000000e-2 0.000000000000000e0
2.000000000000000e-1 5.000000000000000e-2 0.000000000000000e0
2.500000000000000e-1 5.000000000000000e-2 0.000000000000000e0
3.000000000000000e-1 5.000000000000000e-2 0.000000000000000e0
3.500000000000000e-1 5.000000000000000e-2 0.000000000000000e0
4.000000000000000e-1 5.000000000000000e-2 0.000000000000000e0
4.500000000000000e-1 5.000000000000000e-2 0.000000000000000e0
5.000000000000000e-1 5.000000000000000e-2 0.000000000000000e0
5.500000000000000e-1 5.000000000000000e-2 0.000000000000000e0
6.000000000000000e-1 5.000000000000000e-2 0.000000000000000e0
6.500000000000000e-1 5.000000000000000e-2 0.000000000000000e0
7.000000000000000e-1 5.000000000000000e-2 0.000000000000000e0
7.500000000000000e-1 5.000000000000000e-2 0.000000000000000e0
8.000000000000000e-1 5.000000000000000e-2 0.000000000000000e0
8.500000000000000e-1 5.000000000000000e-2 0.000000000000000e0
9.000000000000000e-1 5.000000000000000e-2 0.000000000000000e0
9.500000000000000e-1 5.000000000000000e-2 0.000000000000000e0
1.000000000000000e0 5.000000000000000e-2 0.000000000000000e0
0.000000000000000e0 1.000000000000000e-1 0.000000000000000e0
5.000000000000000e-2 1.000000000000000e-1 0.000000000000000e0
1.000000000000000e-1 1.000000000000000e-1 0.000000000000000e0
1.500000000000000e-1 1.000000000000000e-1 0.000000000000000e0
2.000000000000000e-1 1.000000000000000e-1 0.000000000000000e0
2.500000000000000e-1 1.000000000000000e-1 0.000000000000000e0
3.000000000000000e-1 1.000000000000000e-1 0.000000000000000e0
3.500000000000000e-1 1.000000000000000e-1 0.000000000000000e0
4.000000000000000e-1 1.000000000000000e-1 0.000000000000000e0
4.500000000000000e-1 1.000000000000000e-1 0.000000000000000e0
5.000000000000000e-1 1.000000000000000e-1 0.000000000000000e0
5.500000000000000e-1 1.000000000000000e-1 0.000000000000000e0
6.000000000000000e-1 1.000000000000000e-1 0.000000000000000e0
6.500000000000000e-1 1.000000000000000e-1 0.000000000000000e0
7.000000000000000e-1 1.000000000000000e-1 0.000000000000000e0
7.500000000000000e-1 1.000000000000000e-1 0.000000000000000e0
8.000000000000000e-1 1.000000000000000e-1 0.000000000000000e0
8.500000000000000e-1 1.000000000000000e-1 0.000000000000000e0
9.000000000000000e-1 1.000000000000000e-1 0.000000000000000e0
9.500000000000000e-1 1.000000000000000e-1 0.000000000000000e0
1.000000000000000e0 1.000000000000000e-1 0.000000000000000e0
0.000000000000000e0 1.500000000000000e-1 0.000000000000000e0
5.000000000000000e-2 1.500000000000000e-1 0.000000000000000e0
1.000000000000000e-1 1.500000000000000e-1 0.000000000000000e0
1.500000000000000e-1 1.500000000000000e-1 0.000000000000000e0
2.000000000000000e-1 1.500000000000000e-1 0.000000000000000e0
2.500000000000000e-1 1.500000000000000e-1 0.000000000000000e0
3.000000000000000e-1 1.500000000000000e-1 0.000000000000000e0
3.500000000000000e-1 1.500000000000000e-1 0.000000000000000e0
4.000000000000000e-1 1.500000000000000e-1 0.000000000000000e0
4.500000000000000e-1 1.500000000000000e-1 0.000000000000000e0
5.000000000000000e-1 1.500000000000000e-1 0.000000000000000e0
5.500000000000000e-1 1.500000000000000e-1 0.000000000000000e0
6.000000000000000e-1 1.500000000000000e-1 0.000000000000000e0
6.500000000000000e-1 1.500000000000000e-1 0.000000000000000e0
7.000000000000000e-1 1.500000000000000e-1 0.000000000000000e0
7.500000000000000e-1 1.500000000000000e-1 0.000000000000000e0
8.000000000000000e-1 1.500000000000000e-1 0.000000000000000e0
8.500000000000000e-1 1.500000000000000e-1 0.000000000000000e0
9.000000000000000e-1 1.500000000000000e-1 0.000000000000000e0
9.500000000000000e-1 1.500000000000000e-1 0.000000000000000e0
1.000000000000000e0 1.500000000000000e-1 0.000000000000000e0
0.000000000000000e0 2.000000000000000e-1 0.000000000000000e0
5.000000000000000e-2 2.000000000000000e-1 0.000000000000000e0
1.000000000000000e-1 2.000000000000000e-1 0.000000000000000e0
1.500000000000000e-1 2.000000000000000e-1 0.000000000000000e0
2.000000000000000e-1 2.000000000000000e-1 0.000000000000000e0
2.500000000000000e-1 2.000000000000000e-1 0.000000000000000e0
3.000000000000000e-1 2.000000000000000e-1 0.000000000000000e0
3.500000000000000e-1 2.000000000000000e-1 0.000000000000000e0
4.000000000000000e-1 2.000000000000000e-1 0.000000000000000e0
4.500000000000000e-1 2.000000000000000e-1 0.000000000000000e0
5.000000000000000e-1 2.000000000000000e-1 0.000000000000000e0
5.500000000000000e-1 2.000000000000000e-1 0.000000000000000e0
6.000000000000000e-1 2.000000000000000e-1 0.000000000000000e0
6.500000000000000e-1 2.000000000000000e-1 0.000000000000000e0
7.000000000000000e-1 2.000000000000000e-1 0.000000000000000e0
7.500000000000000e-1 2.000000000000000e-1 0.000000000000000e0
8.000000000000000e-1 2.000000000000000e-1 0.000000000000000e0
8.500000000000000e-1 2.000000000000000e-1 0.000000000000000e0
9.000000000000000e-1 2.000000000000000e-1 0.000000000000000e0
9.500000000000000e-1 2.000000000000000e-1 0.000000000000000e0
1.000000000000000e0 2.000000000000000e-1 0.000000000000000e0
0.000000000000000e0 2.500000000000000e-1 0.000000000000000e0
5.000000000000000e-2 2.500000000000000e-1 0.000000000000000e0
1.000000000000000e-1 2.500000000000000e-1 0.000000000000000e0
1.500000000000000e-1 2.500000000000000e-1 0.000000000000000e0
2.000000000000000e-1 2.500000000000000e-1 0.000000000000000e0
2.500000000000000e-1 2.500000000000000e-1 0.000000000000000e0
3.000000000000000e-1 2.500000000000000e-1 0.000000000000000e0
3.500000000000000e-1 2.500000000000000e-1 0.000000000000000e0
4.000000000000000e-1 2.500000000000000e-1 0.000000000000000e0
4.500000000000000e-1 2.500000000000000e-1 0.000000000000000e0
5.000000000000000e-1 2.500000000000000e-1 0.000000000000000e0
5.500000000000000e-1 2.500000000000000e-1 0.000000000000000e0
6.000000000000000e-1 2.500000000000000e-1 0.000000000000000e0
6.500000000000000e-1 2.500000000000000e-1 0.000000000000000e0
7.000000000000000e-1 2.500000000000000e-1 0.000000000000000e0
7.500000000000000e-1 2.500000000000000e-1 0.000000000000000e0
8.000000000000000e-1 2.500000000000000e-1 0.000000000000000e0
8.500000000000000e-1 2.500000000000000e-1 0.000000000000000e0
9.000000000000000e-1 2.500000000000000e-1 0.000000000000000e0
9.500000000000000e-1 2.500000000000000e-1 0.000000000000000e0
1.000000000000000e0 2.500000000000000e-1 0.000000000000000e0
0.000000000000000e0 3.000000000000000e-1 0.000000000000000e0
5.000000000000000e-2 3.000000000000000e-1 0.000000000000000e0
1.000000000000000e-1 3.000000000000000e-1 0.000000000000000e0
1.500000000000000e-1 3.000000000000000e-1 0.000000000000000e0
2.000000000000000e-1 3.000000000000000e-1 0.000000000000000e0
2.500000000000000e-1 3.000000000000000e-1 0.000000000000000e0
3.000000000000000e-1 3.000000000000000e-1 0.000000000000000e0
3.500000000000000e-1 3.000000000000000e-1 0.000000000000000e0
4.000000000000000e-1 3.000000000000000e-1 0.000000000000000e0
4.500000000000000e-1 3.000000000000000e-1 0.000000000000000e0
5.000000000000000e-1 3.000000000000000e-1 0.000000000000000e0
5.500000000000000e-1 3.000000000000000e-1 0.000000000000000e0
6.000000000000000e-1 3.000000000000000e-1 0.000000000000000e0
6.500000000000000e-1 3.000000000000000e-1 0.000000000000000e0
7.000000000000000e-1 3.000000000000000e-1 0.000000000000000e0
7.500000000000000e-1 3.000000000000000e-1 0.000000000000000e0
8.000000000000000e-1 3.000000000000000e-1 0.000000000000000e0
8.500000000000000e-1 3.000000000000000e-1 0.000000000000000e0
9.000000000000000e-1 3.000000000000000e-1 0.000000000000000e0
9.500000000000000e-1 3.000000000000000e-1 0.000000000000000e0
1.000000000000000e0 3.000000000000000e-1 0.000000000000000e0
0.000000000000000e0 3.500000000000000e-1 0.000000000000000e0
5.000000000000000e-2 3.500000000000000e-1 0.000000000000000e0
1.000000000000000e-1 3.500000000000000e-1 0.000000000000000e0
1.500000000000000e-1 3.500000000000000e-1 0.000000000000000e0
2.000000000000000e-1 3.500000000000000e-1 0.000000000000000e0
2.500000000000000e-1 3.500000000000000e-1 0.000000000000000e0
3.000000000000000e-1 3.500000000000000e-1 0.000000000000000e0
3.500000000000000e-1 3.500000000000000e-1 0.000000000000000e0
4.000000000000000e-1 3.500000000000000e-1 0.000000000000000e0
4.500000000000000e-1 3.500000000000000e-1 0.000000000000000e0
5.000000000000000e-1 3.500000000000000e-1 0.000000000000000e0
5.500000000000000e-1 3.500000000000000e-1 0.000000000000000e0
6.000000000000000e-1 3.500000000000000e-1 0.000000000000000e0
6.500000000000000e-1 3.500000000000000e-1 0.000000000000000e0
7.000000000000000e-1 3.500000000000000e-1 0.000000000000000e0
7.500000000000000e-1 3.500000000000000e-1 0.000000000000000e0
8.000000000000000e-1 3.500000000000000e-1 0.000000000000000e0
8.500000000000000e-1 3.500000000000000e-1 0.000000000000000e0
9.000000000000000e-1 3.500000000000000e-1 0.000000000000000e0
9.500000000000000e-1 3.500000000000000e-1 0.000000000000000e0
1.000000000000000e0 3.500000000000000e-1 0.000000000000000e0
0.000000000000000e0 4.000000000000000e-1 0.000000000000000e0
5.000000000000000e-2 4.000000000000000e-1 0.000000000000000e0
1.000000000000000e-1 4.000000000000000e-1 0.000000000000000e0
1.500000000000000e-1 4.000000000000000e-1 0.000000000000000e0
2.000000000000000e-1 4.000000000000000e-1 0.000000000000000e0
2.500000000000000e-1 4.000000000000000e-1 0.000000000000000e0
3.000000000000000e-1 4.000000000000000e-1 0.000000000000000e0
3.500000000000000e-1 4.000000000000000e-1 0.000000000000000e0
4.000000000000000e-1 4.000000000000000e-1 0.000000000000000e0
4.500000000000000e-1 4.000000000000000e-1 0.000000000000000e0
5.000000000000000e-1 4.000000000000000e-1 0.000000000000000e0
5.500000000000000e-1 4.000000000000000e-1 0.000000000000000e0
6.000000000000000e-1 4.000000000000000e-1 0.000000000000000e0
6.500000000000000e-1 4.000000000000000e-1 0.000000000000000e0
7.000000000000000e-1 4.000000000000000e-1 0.000000000000000e0
7.500000000000000e-1 4.000000000000000e-1 0.000000000000000e0
8.000000000000000e-1 4.000000000000000e-1 0.000000000000000e0
8.500000000000000e-1 4.000000000000000e-1 0.000000000000000e0
9.000000000000000e-1 4.000000000000000e-1 0.000000000000000e0
9.500000000000000e-1 4.000000000000000e-1 0.000000000000000e0
1.000000000000000e0 4.000000000000000e-1 0.000000000000000e0
0.000000000000000e0 4.500000000000000e-1 0.000000000000000e0
5.000000000000000e-2 4.500000000000000e-1 0.000000000000000e0
1.000000000000000e-1 4.500000000000000e-1 0.000000000000000e0
1.500000000000000e-1 4.500000000000000e-1 0.000000000000000e0
2.000000000000000e-1 4.500000000000000e-1 0.000000000000000e0
2.500000000000000e-1 4.500000000000000e-1 0.000000000000000e0
3.000000000000000e-1 4.500000000000000e-1 0.000000000000000e0
3.500000000000000e-1 4.500000000000000e-1 0.000000000000000e0
4.000000000000000e-1 4.500000000000000e-1 0.000000000000000e0
4.500000000000000e-1 4.500000000000000e-1 0.000000000000000e0
5.000000000000000e-1 4.500000000000000e-1 0.000000000000000e0
5.500000000000000e-1 4.500000000000000e-1 0.000000000000000e0
6.000000000000000e-1 4.500000000000000e-1 0.000000000000000e0
6.500000000000000e-1 4.500000000000000e-1 0.000000000000000e0
7.000000000000000e-1 4.500000000000000e-1 0.000000000000000e0
7.500000000000000e-1 4.500000000000000e-1 0.000000000000000e0
8.000000000000000e-1 4.500000000000000e-1 0.000000000000000e0
8.500000000000000e-1 4.500000000000000e-1 0.000000000000000e0
9.000000000000000e-1 4.500000000000000e-1 0.000000000000000e0
9.500000000000000e-1 4.500000000000000e-1 0.000000000000000e0
1.000000000000000e0 4.500000000000000e-1 0.000000000000000e0
0.000000000000000e0 5.000000000000000e-1 0.000000000000000e0
5.000000000000000e-2 5.000000000000000e-1 0.000000000000000e0
1.000000000000000e-1 5.000000000000000e-1 0.000000000000000e0
1.500000000000000e-1 5.000000000000000e-1 0.000000000000000e0
2.000000000000000e-1 5.000000000000000e-1 0.000000000000000e0
2.500000000000000e-1 5.000000000000000e-1 0.000000000000000e0
3.000000000000000e-1 5.000000000000000e-1 0.000000000000000e0
3.500000000000000e-1 5.000000000000000e-1 0.000000000000000e0
4.000000000000000e-1 5.000000000000000e-1 0.000000000000000e0
4.500000000000000e-1 5.000000000000000e-1 0.000000000000000e0
5.000000000000000e-1 5.000000000000000e-1 0.000000000000000e0
5.500000000000000e-1 5.000000000000000e-1 0.000000000000000e0
6.000000000000000e-1 5.000000000000000e-1 0.000000000000000e0
6.500000000000000e-1 5.000000000000000e-1 0.000000000000000e0
7.000000000000000e-1 5.000000000000000e-1 0.000000000000000e0
7.500000000000000e-1 5.000000000000000e-1 0.000000000000000e0
8.000000000000000e-1 5.000000000000000e-1 0.000000000000000e0
8.500000000000000e-1 5.000000000000000e-1 0.000000000000000e0
9.000000000000000e-1 5.000000000000000e-1 0.000000000000000e0
9.500000000000000e-1 5.000000000000000e-1 0.000000000000000e0
1.000000000000000e0 5.000000000000000e-1 0.000000000000000e0
0.000000000000000e0 5.500000000000000e-1 0.000000000000000e0
5.000000000000000e-2 5.500000000000000e-1 0.000000000000000e0
1.000000000000000e-1 5.500000000000000e-1 0.000000000000000e0
1.500000000000000e-1 5.500000000000000e-1 0.000000000000000e0
2.000000000000000e-1 5.500000000000000e-1 0.000000000000000e0
2.500000000000000e-1 5.500000000000000e-1 0.000000000000000e0
3.000000000000000e-1 5.500000000000000e-1 0.000000000000000e0
3.500000000000000e-1 5.500000000000000e-1 0.000000000000000e0
4.000000000000000e-1 5.500000000000000e-1 0.000000000000000e0
4.500000000000000e-1 5.500000000000000e-1 0.000000000000000e0
5.000000000000000e-1 5.500000000000000e-1 0.000000000000000e0
5.500000000000000e-1 5.500000000000000e-1 0.000000000000000e0
6.000000000000000e-1 5.500000000000000e-1 0.000000000000000e0
6.500000000000000e-1 5.500000000000000e-1 0.000000000000000e0
7.000000000000000e-1 5.500000000000000e-1 0.000000000000000e0
7.500000000000000e-1 5.500000000000000e-1 0.000000000000000e0
8.000000000000000e-1 5.500000000000000e-1 0.000000000000000e0
8.500000000000000e-1 5.500000000000000e-1 0.000000000000000e0
9.000000000000000e-1 5.500000000000000e-1 0.000000000000000e0
9.500000000000000e-1 5.500000000000000e-1 0.000000000000000e0
1.000000000000000e0 5.500000000000000e-1 0.000000000000000e0
0.000000000000000e0 6.000000000000000e-1 0.000000000000000e0
5.000000000000000e-2 6.000000000000000e-1 0.000000000000000e0
1.000000000000000e-1 6.000000000000000e-1 0.000000000000000e0
1.500000000000000e-1 6.000000000000000e-1 0.000000000000000e0
2.000000000000000e-1 6.000000000000000e-1 0.000000000000000e0
2.500000000000000e-1 6.000000000000000e-1 0.000000000000000e0
3.000000000000000e-1 6.000000000000000e-1 0.000000000000000e0
3.500000000000000e-1 6.000000000000000e-1 0.000000000000000e0
4.000000000000000e-1 6.000000000000000e-1 0.000000000000000e0
4.500000000000000e-1 6.000000000000000e-1 0.000000000000000e0
5.000000000000000e-1 6.000000000000000e-1 0.000000000000000e0
5.500000000000000e-1 6.000000000000000e-1 0.000000000000000e0
6.000000000000000e-1 6.000000000000000e-1 0.000000000000000e0
6.500000000000000e-1 6.000000000000000e-1 0.000000000000000e0
7.000000000000000e-1 6.000000000000000e-1 0.000000000000000e0
7.500000000000000e-1 6.000000000000000e-1 0.000000000000000e0
8.000000000000000e-1 6.000000000000000e-1 0.000000000000000e0
8.500000000000000e-1 6.000000000000000e-1 0.000000000000000e0
9.000000000000000e-1 6.000000000000000e-1 0.000000000000000e0
9.500000000000000e-1 6.000000000000000e-1 0.000000000000000e0
1.000000000000000e0 6.000000000000000e-1 0.000000000000000e0
0.000000000000000e0 6.500000000000000e-1 0.000000000000000e0
5.000000000000000e-2 6.500000000000000e-1 0.000000000000000e0
1.000000000000000e-1 6.500000000000000e-1 0.000000000000000e0
1.500000000000000e-1 6.500000000000000e-1 0.000000000000000e0
2.000000000000000e-1 6.500000000000000e-1 0.000000000000000e0
2.500000000000000e-1 6.500000000000000e-1 0.000000000000000e0
3.000000000000000e-1 6.500000000000000e-1 0.000000000000000e0
3.500000000000000e-1 6.500000000000000e-1 0.000000000000000e0
4.000000000000000e-1 6.500000000000000e-1 0.000000000000000e0
4.500000000000000e-1 6.500000000000000e-1 0.000000000000000e0
5.000000000000000e-1 6.500000000000000e-1 0.000000000000000e0
5.500000000000000e-1 6.500000000000000e-1 0.000000000000000e0
6.000000000000000e-1 6.500000000000000e-1 0.000000000000000e0
6.500000000000000e-1 6.500000000000000e-1 0.000000000000000e0
7.000000000000000e-1 6.500000000000000e-1 0.000000000000000e0
7.500000000000000e-1 6.500000000000000e-1 0.000000000000000e0
8.000000000000000e-1 6.500000000000000e-1 0.000000000000000e0
8.500000000000000e-1 6.500000000000000e-1 0.000000000000000e0
9.000000000000000e-1 6.500000000000000e-1 0.000000000000000e0
9.500000000000000e-1 6.500000000000000e-1 0.000000000000000e0
1.000000000000000e0 6.500000000000000e-1 0.000000000000000e0
0.000000000000000e0 7.000000000000000e-1 0.000000000000000e0
5.000000000000000e-2 7.000000000000000e-1 0.000000000000000e0
1.000000000000000e-1 7.000000000000000e-1 0.000000000000000e0
1.500000000000000e-1 7.000000000000000e-1 0.000000000000000e0
2.000000000000000e-1 7.000000000000000e-1 0.000000000000000e0
2.500000000000000e-1 7.000000000000000e-1 0.000000000000000e0
3.000000000000000e-1 7.000000000000000e-1 0.000000000000000e0
3.500000000000000e-1 7.000000000000000e-1 0.000000000000000e0
4.000000000000000e-1 7.000000000000000e-1 0.000000000000000e0
4.500000000000000e-1 7.000000000000000e-1 0.000000000000000e0
5.000000000000000e-1 7.000000000000000e-1 0.000000000000000e0
5.500000000000000e-1 7.000000000000000e-1 0.000000000000000e0
6.000000000000000e-1 7.000000000000000e-1 0.000000000000000e0
6.500000000000000e-1 7.000000000000000e-1 0.000000000000000e0
7.000000000000000e-1 7.000000000000000e-1 0.000000000000000e0
7.500000000000000e-1 7.000000000000000e-1 0.000000000000000e0
8.000000000000000e-1 7.000000000000000e-1 0.000000000000000e0
8.500000000000000e-1 7.000000000000000e-1 0.000000000000000e0
9.000000000000000e-1 7.000000000000000e-1 0.000000000000000e0
9.500000000000000e-1 7.000000000000000e-1 0.000000000000000e0
1.000000000000000e0 7.000000000000000e-1 0.000000000000000e0
0.000000000000000e0 7.500000000000000e-1 0.000000000000000e0
5.000000000000000e-2 7.500000000000000e-1 0.000000000000000e0
1.000000000000000e-1 7.500000000000000e-1 0.000000000000000e0
1.500000000000000e-1 7.500000000000000e-1 0.000000000000000e0
2.000000000000000e-1 7.500000000000000e-1 0.000000000000000e0
2.500000000000000e-1 7.500000000000000e-1 0.000000000000000e0
3.000000000000000e-1 7.500000000000000e-1 0.000000000000000e0
3.500000000000000e-1 7.500000000000000e-1 0.000000000000000e0
4.000000000000000e-1 7.500000000000000e-1 0.000000000000000e0
4.500000000000000e-1 7.500000000000000e-1 0.000000000000000e0
5.000000000000000e-1 7.500000000000000e-1 0.000000000000000e0
5.500000000000000e-1 7.500000000000000e-1 0.000000000000000e0
6.000000000000000e-1 7.500000000000000e-1 0.000000000000000e0
6.500000000000000e-1 7.500000000000000e-1 0.000000000000000e0
7.000000000000000e-1 7.500000000000000e-1 0.000000000000000e0
7.500000000000000e-1 7.500000000000000e-1 0.000000000000000e0
8.000000000000000e-1 7.500000000000000e-1 0.000000000000000e0
8.500000000000000e-1 7.500000000000000e-1 0.000000000000000e0
9.000000000000000e-1 7.500000000000000e-1 0.000000000000000e0
9.500000000000000e-1 7.500000000000000e-1 0.000000000000000e0
1.000000000000000e0 7.500000000000000e-1 0.000000000000000e0
0.000000000000000e0 8.000000000000000e-1 0.000000000000000e0
5.000000000000000e-2 8.000000000000000e-1 0.000000000000000e0
1.000000000000000e-1 8.000000000000000e-1 0.000000000000000e0
1.500000000000000e-1 8.000000000000000e-1 0.000000000000000e0
2.000000000000000e-1 8.000000000000000e-1 0.000000000000000e0
2.500000000000000e-1 8.000000000000000e-1 0.000000000000000e0
3.000000000000000e-1 8.000000000000000e-1 0.000000000000000e0
3.500000000000000e-1 8.000000000000000e-1 0.000000000000000e0
4.000000000000000e-1 8.000000000000000e-1 0.000000000000000e0
4.500000000000000e-1 8.000000000000000e-1 0.000000000000000e0
5.000000000000000e-1 8.000000000000000e-1 0.000000000000000e0
5.500000000000000e-1 8.000000000000000e-1 0.000000000000000e0
6.000000000000000e-1 8.000000000000000e-1 0.000000000000000e0
6.500000000000000e-1 8.000000000000000e-1 0.000000000000000e0
7.000000000000000e-1 8.000000000000000e-1 0.000000000000000e0
7.500000000000000e-1 8.000000000000000e-1 0.000000000000000e0
8.000000000000000e-1 8.000000000000000e-1 0.000000000000000e0
8.500000000000000e-1 8.000000000000000e-1 0.000000000000000e0
9.000000000000000e-1 8.000000000000000e-1 0.000000000000000e0
9.500000000000000e-1 8.000000000000000e-1 0.000000000000000e0
1.000000000000000e0 8.000000000000000e-1 0.000000000000000e0
0.000000000000000e0 8.500000000000000e-1 0.000000000000000e0
5.000000000000000e-2 8.500000000000000e-1 0.000000000000000e0
1.000000000000000e-1 8.500000000000000e-1 0.000000000000000e0
1.500000000000000e-1 8.500000000000000e-1 0.000000000000000e0
2.000000000000000e-1 8.500000000000000e-1 0.000000000000000e0
2.500000000000000e-1 8.500000000000000e-1 0.000000000000000e0
3.000000000000000e-1 8.500000000000000e-1 0.000000000000000e0
3.500000000000000e-1 8.500000000000000e-1 0.000000000000000e0
4.000000000000000e-1 8.500000000000000e-1 0.000000000000000e0
4.500000000000000e-1 8.500000000000000e-1 0.000000000000000e0
5.000000000000000e-1 8.500000000000000e-1 0.000000000000000e0
5.500000000000000e-1 8.500000000000000e-1 0.000000000000000e0
6.000000000000000e-1 8.500000000000000e-1 0.000000000000000e0
6.500000000000000e-1 8.500000000000000e-1 0.000000000000000e0
7.000000000000000e-1 8.500000000000000e-1 0.000000000000000e0
7.500000000000000e-1 8.500000000000000e-1 0.000000000000000e0
8.000000000000000e-1 8.500000000000000e-1 0.000000000000000e0
8.500000000000000e-1 8.500000000000000e-1 0.000000000000000e0
9.000000000000000e-1 8.500000000000000e-1 0.000000000000000e0
9.500000000000000e-1 8.500000000000000e-1 0.000000000000000e0
1.000000000000000e0 8.500000000000000e-1 0.000000000000000e0
0.000000000000000e0 9.000000000000000e-1 0.000000000000000e0
5.000000000000000e-2 9.000000000000000e-1 0.000000000000000e0
1.000000000000000e-1 9.000000000000000e-1 0.000000000000000e0
1.500000000000000e-1 9.000000000000000e-1 0.000000000000000e0
2.000000000000000e-1 9.000000000000000e-1 0.000000000000000e0
2.500000000000000e-1 9.000000000000000e-1 0.000000000000000e0
3.000000000000000e-1 9.000000000000000e-1 0.000000000000000e0
3.500000000000000e-1 9.000000000000000e-1 0.000000000000000e0
4.000000000000000e-1 9.000000000000000e-1 0.000000000000000e0
4.500000000000000e-1 9.000000000000000e-1 0.000000000000000e0
5.000000000000000e-1 9.000000000000000e-1 0.000000000000000e0
5.500000000000000e-1 9.000000000000000e-1 0.000000000000000e0
6.000000000000000e-1 9.000000000000000e-1 0.000000000000000e0
6.500000000000000e-1 9.000000000000000e-1 0.000000000000000e0
7.000000000000000e-1 9.000000000000000e-1 0.000000000000000e0
7.500000000000000e-1 9.000000000000000e-1 0.000000000000000e0
8.000000000000000e-1 9.000000000000000e-1 0.000000000000000e0
8.500000000000000e-1 9.000000000000000e-1 0.000000000000000e0
9.000000000000000e-1 9.000000000000000e-1 0.000000000000000e0
9.500000000000000e-1 9.000000000000000e-1 0.000000000000000e0
1.000000000000000e0 9.000000000000000e-1 0.000000000000000e0
0.000000000000000e0 9.500000000000000e-1 0.000000000000000e0
5.000000000000000e-2 9.500000000000000e-1 0.000000000000000e0
1.000000000000000e-1 9.500000000000000e-1 0.000000000000000e0
1.500000000000000e-1 9.500000000000000e-1 0.000000000000000e0
2.000000000000000e-1 9.500000000000000e-1 0.000000000000000e0
2.500000000000000e-1 9.500000000000000e-1 0.000000000000000e0
3.000000000000000e-1 9.500000000000000e-1 0.000000000000000e0
3.500000000000000e-1 9.500000000000000e-1 0.000000000000000e0
4.000000000000000e-1 9.500000000000000e-1 0.000000000000000e0
4.500000000000000e-1 9.500000000000000e-1 0.000000000000000e0
5.000000000000000e-1 9.500000000000000e-1 0.000000000000000e0
5.500000000000000e-1 9.500000000000000e-1 0.000000000000000e0
6.000000000000000e-1 9.500000000000000e-1 0.000000000000000e0
6.500000000000000e-1 9.500000000000000e-1 0.000000000000000e0
7.000000000000000e-1 9.500000000000000e-1 0.000000000000000e0
7.500000000000000e-1 9.500000000000000e-1 0.000000000000000e0
8.000000000000000e-1 9.500000000000000e-1 0.000000000000000e0
8.500000000000000e-1 9.500000000000000e-1 0.000000000000000e0
9.000000000000000e-1 9.500000000000000e-1 0.000000000000000e0
9.500000000000000e-1 9.500000000000000e-1 0.000000000000000e0
1.000000000000000e0 9.500000000000000e-1 0.000000000000000e0
0.000000000000000e0 1.000000000000000e0 0.000000000000000e0
5.000000000000000e-2 1.000000000000000e0 0.000000000000000e0
1.000000000000000e-1 1.000000000000000e0 0.000000000000000e0
1.500000000000000e-1 1.000000000000000e0 0.000000000000000e0
2.000000000000000e-1 1.000000000000000e0 0.000000000000000e0
2.500000000000000e-1 1.000000000000000e0 0.000000000000000e0
3.000000000000000e-1 1.000000000000000e0 0.000000000000000e0
3.500000000000000e-1 1.000000000000000e0 0.000000000000000e0
4.000000000000000e-1 1.000000000000000e0 0.000000000000000e0
4.500000000000000e-1 1.000000000000000e0 0.000000000000000e0
5.000000000000000e-1 1.000000000000000e0 0.000000000000000e0
5.500000000000000e-1 1.000000000000000e0 0.000000000000000e0
6.000000000000000e-1 1.000000000000000e0 0.000000000000000e0
6.500000000000000e-1 1.000000000000000e0 0.000000000000000e0
7.000000000000000e-1 1.000000000000000e0 0.000000000000000e0
7.500000000000000e-1 1.000000000000000e0 0.000000000000000e0
8.000000000000000e-1 1.000000000000000e0 0.000000000000000e0
8.500000000000000e-1 1.000000000000000e0 0.000000000000000e0
9.000000000000000e-1 1.000000000000000e0 0.000000000000000e0
9.500000000000000e-1 1.000000000000000e0 0.000000000000000e0
1.000000000000000e0 1.000000000000000e0 0.000000000000000e0
$EndNodes
$Elements
4 840 1 840
1 1 1 20
1 1 2
2 2 3
3 3 4
4 4 5
5 5 6
6 6 7
7 7 8
8 8 9
9 9 10
10 10 11
11 11 12
12 12 13
13 13 14
14 14 15
15 15 16
16 16 17
17 17 18
18 18 19
19 19 20
20 20 21
1 2 1 20
21 421 422
22 422 423
23 423 424
24 424 425
25 425 426
26 426 427
27 427 428
28 428 429
29 429 430
30 430 431
31 431 432
32 432 433
33 433 434
34 434 435
35 435 436
36 436 437
37 437 438
38 438 439
39 439 440
40 440 441
2 10 2 400
41 1 2 23
42 1 23 22
43 2 3 24
44 2 24 23
45 3 4 25
46 3 25 24
47 4 5 26
48 4 26 25
49 5 6 27
50 5 27 26
51 6 7 28
52 6 28 27
53 7 8 29
54 7 29 28
55 8 9 30
56 8 30 29
57 9 10 31
58 9 31 30
59 10 11 32
60 10 32 31
61 11 12 33
62 11 33 32
63 12 13 34
64 12 34 33
65 13 14 35
66 13 35 34
67 14 15 36
68 14 36 35
69 15 16 37
70 15 37 36
71 16 17 38
72 16 38 37
73 17 18 39
74 17 39 38
75 18 19 40
76 18 40 39
77 19 20 41
78 19 41 40
79 20 21 42
80 20 42 41
81 22 23 44
82 22 44 43
83 23 24 45
84 23 45 44
85 24 25 46
86 24 46 45
87 25 26 47
88 25 47 46
89 26 27 48
90 26 48 47
91 27 28 49
92 27 49 48
93 28 29 50
94 28 50 49
95 29 30 51
96 29 51 50
97 30 31 52
98 30 52 51
99 31 32 53
100 31 53 52
101 32 33 54
102 32 54 53
103 33 34 55
104 33 55 54
105 34 35 56
106 34 56 55
107 35 36 57
108 35 57 56
109 36 37 58
110 36 58 57
111 37 38 59
112 37 59 58
113 38 39 60
114 38 60 59
115 39 40 61
116 39 61 60
117 40 41 62
118 40 62 61
119 41 42 63
120 41 63 62
121 43 44 65
122 43 65 64
123 44 45 66
124 44 66 65
125 45 46 67
126 45 67 66
127 46 47 68
128 46 68 67
129 47 48 69
130 47 69 68
131 48 49 70
132 48 70 69
133 49 50 71
134 49 71 70
135 50 51 72
136 50 72 71
137 51 52 73
138 51 73 72
139 52 53 74
140 52 74 73
141 53 54 75
142 53 75 74
143 54 55 76
144 54 76 75
145 55 56 77
146 55 77 76
147 56 57 78
148 56 78 77
149 57 58 79
150 57 79 78
151 58 59 80
152 58 80 79
153 59 60 81
154 59 81 80
155 60 61 82
156 60 82 81
157 61 62 83
158 61 83 82
159 62 63 84
160 62 84 83
161 64 65 86
162 64 86 85
163 65 66 87
164 65 87 86
165 66 67 88
166 66 88 87
167 67 68 89
168 67 89 88
169 68 69 90
170 68 90 89
171 69 70 91
172 69 91 90
173 70 71 92
174 70 92 91
175 71 72 93
176 71 93 92
177 72 73 94
178 72 94 93
179 73 74 95
180 73 95 94
181 74 75 96
182 74 96 95
183 75 76 97
184 75 97 96
185 76 77 98
186 76 98 97
187 77 78 99
188 77 99 98
189 78 79 100
190 78 100 99
191 79 80 101
192 79 101 100
193 80 81 102
194 80 102 101
195 81 82 103
196 81 103 102
197 82 83 104
198 82 104 103
199 83 84 105
200 83 105 104
201 85 86 107
202 85 107 106
203 86 87 108
204 86 108 107
205 87 88 109
206 87 109 108
207 88 89 110
208 88 110 109
209 89 90 111
210 89 111 110
211 90 91 112
212 90 112 111
213 91 92 113
214 91 113 112
215 92 93 114
216 92 114 113
217 93 94 115
218 93 115 114
219 94 95 116
220 94 116 115
221 95 96 117
222 95 117 116
223 96 97 118
224 96 118 117
225 97 98 119
226 97 119 118
227 98 99 120
228 98 120 119
229 99 100 121
230 99 121 120
231 100 101 122
232 100 122 121
233 101 102 123
234 101 123 122
235 102 103 124
236 102 124 123
237 103 104 125
238 103 125 124
239 104 105 126
240 104 126 125
241 106 107 128
242 106 128 127
243 107 108 129
244 107 129 128
245 108 109 130
246 108 130 129
247 109 110 131
248 109 131 130
249 110 111 132
250 110 132 131
251 111 112 133
252 111 133 132
253 112 113 134
254 112 134 133
255 113 114 135
256 113 135 134
257 114 115 136
258 114 136 135
259 115 116 137
260 115 137 136
261 116 117 138
262 116 138 137
263 117 118 139
264 117 139 138
265 118 119 140
266 118 140 139
267 119 120 141
268 119 141 140
269 120 121 142
270 120 142 141
271 121 122 143
272 121 143 142
273 122 123 144
274 122 144 143
275 123 124 145
276 123 145 144
277 124 125 146
278 124 146 145
279 125 126 147
280 125 147 146
281 127 128 149
282 127 149 148
283 128 129 150
284 128 150 149
285 129 130 151
286 129 151 150
287 130 131 152
288 130 152 151
289 131 132 153
290 131 153 152
291 132 133 154
292 132 154 153
293 133 134 155
294 133 155 154
295 134 135 156
296 134 156 155
297 135 136 157
298 135 157 156
299 136 137 158
300 136 158 157
301 137 138 159
302 137 159 158
303 138 139 160
304 138 160 159
305 139 140 161
306 139 161 160
307 140 141 162
308 140 162 161
309 141 142 163
310 141 163 162
311 142 143 164
312 142 164 163
313 143 144 165
314 143 165 164
315 144 145 166
316 144 166 165
317 145 146 167
318 145 167 166
319 146 147 168
320 146 168 167
321 148 149 170
322 148 170 169
323 149 150 171
324 149 171 170
325 150 151 172
326 150 172 171
327 151 152 173
328 151 173 172
329 152 153 174
330 152 174 173
331 153 154 175
332 153 175 174
333 154 155 176
334 154 176 175
335 155 156 177
336 155 177 176
337 156 157 178
338 156 178 177
339 157 158 179
340 157 179 178
341 158 159 180
342 158 180 179
343 159 160 181
344 159 181 180
345 160 161 182
346 160 182 181
347 161 162 183
348 161 183 182
349 162 163 184
350 162 184 183
351 163 164 185
352 163 185 184
353 164 165 186
354 164 186 185
355 165 166 187
356 165 187 186
357 166 167 188
358 166 188 187
359 167 168 189
360 167 189 188
361 169 170 191
362 169 191 190
363 170 171 192
364 170 192 191
365 171 172 193
366 171 193 192
367 172 173 194
368 172 194 193
369 173 174 195
370 173 195 194
371 174 175 196
372 174 196 195
373 175 176 197
374 175 197 196
375 176 177 198
376 176 198 197
377 177 178 199
378 177 199 198
379 178 179 200
380 178 200 199
381 179 180 201
382 179 201 200
383 180 181 202
384 180 202 201
385 181 182 203
386 181 203 202
387 182 183 204
388 182 204 203
389 183 184 205
390 183 205 204
391 184 185 206
392 184 206 205
393 185 186 207
394 185 207 206
395 186 187 208
396 186 208 207
397 187 188 209
398 187 209 208
399 188 189 210
400 188 210 209
401 190 191 212
402 190 212 211
403 191 192 213
404 191 213 212
405 192 193 214
406 192 214 213
407 193 194 215
408 193 215 214
409 194 195 216
410 194 216 215
411 195 196 217
412 195 217 216
413 196 197 218
414 196 218 217
415 197 198 219
416 197 219 218
417 198 199 220
418 198 220 219
419 199 200 221
420 199 221 220
421 200 201 222
422 200 222 221
423 201 202 223
424 201 223 222
425 202 203 224
426 202 224 223
427 203 204 225
428 203 225 224
429 204 205 226
430 204 226 225
431 205 206 227
432 205 227 226
433 206 207 228
434 206 228 227
435 207 208 229
436 207 229 228
437 208 209 230
438 208 230 229
439 209 210 231
440 209 231 230
2 20 2 400
441 211 212 233
442 211 233 232
443 212 213 234
444 212 234 233
445 213 214 235
446 213 235 234
447 214 215 236
448 214 236 235
449 215 216 237
450 215 237 236
451 216 217 238
452 216 238 237
453 217 218 239
454 217 239 238
455 218 219 240
456 218 240 239
457 219 220 241
458 219 241 240
459 220 221 242
460 220 242 241
461 221 222 243
462 221 243 242
463 222 223 244
464 222 244 243
465 223 224 245
466 223 245 244
467 224 225 246
468 224 246 245
469 225 226 247
470 225 247 246
471 226 227 248
472 226 248 247
473 227 228 249
474 227 249 248
475 228 229 250
476 228 250 249
477 229 230 251
478 229 251 250
479 230 231 252
480 230 252 251
481 232 233 254
482 232 254 253
483 233 234 255
484 233 255 254
485 234 235 256
486 234 256 255
487 235 236 257
488 235 257 256
489 236 237 258
490 236 258 257
491 237 238 259
492 237 259 258
493 238 239 260
494 238 260 259
495 239 240 261
496 239 261 260
497 240 241 262
498 240 262 261
499 241 242 263
500 241 263 262
501 242 243 264
502 242 264 263
503 243 244 265
504 243 265 264
505 244 245 266
506 244 266 265
507 245 246 267
508 245 267 266
509 246 247 268
510 246 268 267
511 247 248 269
512 247 269 268
513 248 249 270
514 248 270 269
515 249 250 271
516 249 271 270
517 250 251 272
518 250 272 271
519 251 252 273
520 251 273 272
521 253 254 275
522 253 275 274
523 254 255 276
524 254 276 275
525 255 256 277
526 255 277 276
527 256 257 278
528 256 278 277
529 257 258 279
530 257 279 278
531 258 259 280
532 258 280 279
533 259 260 281
534 259 281 280
535 260 261 282
536 260 282 281
537 261 262 283
538 261 283 282
539 262 263 284
540 262 284 283
541 263 264 285
542 263 285 284
543 264 265 286
544 264 286 285
545 265 266 287
546 265 287 286
547 266 267 288
548 266 288 287
549 267 268 289
550 267 289 288
551 268 269 290
552 268 290 289
553 269 270 291
554 269 291 290
555 270 271 292
556 270 292 291
557 271 272 293
558 271 293 292
559 272 273 294
560 272 294 293
561 274 275 296
562 274 296 295
563 275 276 297
564 275 297 296
565 276 277 298
566 276 298 297
567 277 278 299
568 277 299 298
569 278 279 300
570 278 300 299
571 279 280 301
572 279 301 300
573 280 281 302
574 280 302 301
575 281 282 303
576 281 303 302
577 282 283 304
578 282 304 303
579 283 284 305
580 283 305 304
581 284 285 306
582 284 306 305
583 285 286 307
584 285 307 306
585 286 287 308
586 286 308 307
587 287 288 309
588 287 309 308
589 288 289 310
590 288 310 309
591 289 290 311
592 289 311 310
593 290 291 312
594 290 312 311
595 291 292 313
596 291 313 312
597 292 293 314
598 292 314 313
599 293 294 315
600 293 315 314
601 295 296 317
602 295 317 316
603 296 297 318
604 296 318 317
605 297 298 319
606 297 319 318
607 298 299 320
608 298 320 319
609 299 300 321
610 299 321 320
611 300 301 322
612 300 322 321
613 301 302 323
614 301 323 322
615 302 303 324
616 302 324 323
617 303 304 325
618 303 325 324
619 304 305 326
620 304 326 325
621 305 306 327
622 305 327 326
623 306 307 328
624 306 328 327
625 307 308 329
626 307 329 328
627 308 309 330
628 308 330 329
629 309 310 331
630 309 331 330
631 310 311 332
632 310 332 331
633 311 312 333
634 311 333 332
635 312 313 334
636 312 334 333
637 313 314 335
638 313 335 334
639 314 315 336
640 314 336 335
641 316 317 338
642 316 338 337
643 317 318 339
644 317 339 338
645 318 319 340
646 318 340 339
647 319 320 341
648 319 341 340
649 320 321 342
650 320 342 341
651 321 322 343
652 321 343 342
653 322 323 344
654 322 344 343
655 323 324 345
656 323 345 344
657 324 325 346
658 324 346 345
659 325 326 347
660 325 347 346
661 326 327 348
662 326 348 347
663 327 328 349
664 327 349 348
665 328 329 350
666 328 350 349
667 329 330 351
668 329 351 350
669 330 331 352
670 330 352 351
671 331 332 353
672 331 353 352
673 332 333 354
674 332 354 353
675 333 334 355
676 333 355 354
677 334 335 356
678 334 356 355
679 335 336 357
680 335 357 356
681 337 338 359
682 337 359 358
683 338 339 360
684 338 360 359
685 339 340 361
686 339 361 360
687 340 341 362
688 340 362 361
689 341 342 363
690 341 363 362
691 342 343 364
692 342 364 363
693 343 344 365
694 343 365 364
695 344 345 366
696 344 366 365
697 345 346 367
698 345 367 366
699 346 347 368
700 346 368 367
701 347 348 369
702 347 369 368
703 348 349 370
704 348 370 369
705 349 350 371
706 349 371 370
707 350 351 372
708 350 372 371
709 351 352 373
710 351 373 372
711 352 353 374
712 352 374 373
713 353 354 375
714 353 375 374
715 354 355 376
716 354 376 375
717 355 356 377
718 355 377 376
719 356 357 378
720 356 378 377
721 358 359 380
722 358 380 379
723 359 360 381
724 359 381 380
725 360 361 382
726 360 382 381
727 361 362 383
728 361 383 382
729 362 363 384
730 362 384 383
731 363 364 385
732 363 385 384
733 364 365 386
734 364 386 385
735 365 366 387
736 365 387 386
737 366 367 388
738 366 388 387
739 367 368 389
740 367 389 388
741 368 369 390
742 368 390 389
743 369 370 391
744 369 391 390
745 370 371 392
746 370 392 391
747 371 372 393
748 371 393 392
749 372 373 394
750 372 394 393
751 373 374 395
752 373 395 394
753 374 375 396
754 374 396 395
755 375 376 397
756 375 397 396
757 376 377 398
758 376 398 397
759 377 378 399
760 377 399 398
761 379 380 401
762 379 401 400
763 380 381 402
764 380 402 401
765 381 382 403
766 381 403 402
767 382 383 404
768 382 404 403
769 383 384 405
770 383 405 404
771 384 385 406
772 384 406 405
773 385 386 407
774 385 407 406
775 386 387 408
776 386 408 407
777 387 388 409
778 387 409 408
779 388 389 410
780 388 410 409
781 389 390 411
782 389 411 410
783 390 391 412
784 390 412 411
785 391 392 413
786 391 413 412
787 392 393 414
788 392 414 413
789 393 394 415
790 393 415 414
791 394 395 416
792 394 416 415
793 395 396 417
794 395 417 416
795 396 397 418
796 396 418 417
797 397 398 419
798 397 419 418
799 398 399 420
800 398 420 419
801 400 401 422
802 400 422 421
803 401 402 423
804 401 423 422
805 402 403 424
806 402 424 423
807 403 404 425
808 403 425 424
809 404 405 426
810 404 426 425
811 405 406 427
812 405 427 426
813 406 407 428
814 406 428 427
815 407 408 429
816 407 429 428
817 408 409 430
818 408 430 429
819 409 410 431
820 409 431 430
821 410 411 432
822 410 432 431
823 411 412 433
824 411 433 432
825 412 413 434
826 412 434 433
827 413 414 435
828 413 435 434
829 414 415 436
830 414 436 435
831 415 416 437
832 415 437 436
833 416 417 438
834 416 438 437
835 417 418 439
836 417 439 438
837 418 419 440
838 418 440 439
839 419 420 441
840 419 441 440
$EndElements
