$MeshFormat
4.1 0 8
$EndMeshFormat
$Nodes
1 352 1 352
2 1 0 352
1
2
3
4
5
6
7
8
9
10
11
12
13
14
15
16
17
18
19
20
21
22
23
24
25
26
27
28
29
30
31
32
33
34
35
36
37
38
39
40
41
42
43
44
45
46
47
48
49
50
51
52
53
54
55
56
57
58
59
60
61
62
63
64
65
66
67
68
69
70
71
72
73
74
75
76
77
78
79
80
81
82
83
84
85
86
87
88
89
90
91
92
93
94
95
96
97
98
99
100
101
102
103
104
105
106
107
108
109
110
111
112
113
114
115
116
117
118
119
120
121
122
123
124
125
126
127
128
129
130
131
132
133
134
135
136
137
138
139
140
141
142
143
144
145
146
147
148
149
150
151
152
153
154
155
156
157
158
159
160
161
162
163
164
165
166
167
168
169
170
171
172
173
174
175
176
177
178
179
180
181
182
183
184
185
186
187
188
189
190
191
192
193
194
195
196
197
198
199
200
201
202
203
204
205
206
207
208
209
210
211
212
213
214
215
216
217
218
219
220
221
222
223
224
225
226
227
228
229
230
231
232
233
234
235
236
237
238
239
240
241
242
243
244
245
246
247
248
249
250
251
252
253
254
255
256
257
258
259
260
261
262
263
264
265
266
267
268
269
270
271
272
273
274
275
276
277
278
279
280
281
282
283
284
285
286
287
288
289
290
291
292
293
294
295
296
297
298
299
300
301
302
303
304
305
306
307
308
309
310
311
312
313
314
315
316
317
318
319
320
321
322
323
324
325
326
327
328
329
330
331
332
333
334
335
336
337
338
339
340
341
342
343
344
345
346
347
348
349
350
351
352
1.000000000000000e0 0.000000000000000e0 0.000000000000000e0
9.807852804032304e-1 1.950903220161282e-1 0.000000000000000e0
9.238795325112867e-1 3.826834323650898e-1 0.000000000000000e0
8.314696123025452e-1 5.555702330196022e-1 0.000000000000000e0
7.071067811865476e-1 7.071067811865476e-1 0.000000000000000e0
5.555702330196023e-1 8.314696123025452e-1 0.000000000000000e0
3.826834323650898e-1 9.238795325112867e-1 0.000000000000000e0
1.950903220161283e-1 9.807852804032304e-1 0.000000000000000e0
6.123233995736766e-17 1.000000000000000e0 0.000000000000000e0
-1.950903220161282e-1 9.807852804032304e-1 0.000000000000000e0
-3.826834323650897e-1 9.238795325112867e-1 0.000000000000000e0
-5.555702330196020e-1 8.314696123025453e-1 0.000000000000000e0
-7.071067811865475e-1 7.071067811865476e-1 0.000000000000000e0
-8.314696123025453e-1 5.555702330196022e-1 0.000000000000000e0
-9.238795325112867e-1 3.826834323650899e-1 0.000000000000000e0
-9.807852804032304e-1 1.950903220161286e-1 0.000000000000000e0
-1.000000000000000e0 1.224646799147353e-16 0.000000000000000e0
-9.807852804032304e-1 -1.950903220161284e-1 0.000000000000000e0
-9.238795325112868e-1 -3.826834323650897e-1 0.000000000000000e0
-8.314696123025455e-1 -5.555702330196020e-1 0.000000000000000e0
-7.071067811865477e-1 -7.071067811865475e-1 0.000000000000000e0
-5.555702330196022e-1 -8.314696123025452e-1 0.000000000000000e0
-3.826834323650903e-1 -9.238795325112865e-1 0.000000000000000e0
-1.950903220161287e-1 -9.807852804032303e-1 0.000000000000000e0
-1.836970198721030e-16 -1.000000000000000e0 0.000000000000000e0
1.950903220161283e-1 -9.807852804032304e-1 0.000000000000000e0
3.826834323650900e-1 -9.238795325112866e-1 0.000000000000000e0
5.555702330196018e-1 -8.314696123025455e-1 0.000000000000000e0
7.071067811865474e-1 -7.071067811865477e-1 0.000000000000000e0
8.314696123025452e-1 -5.555702330196022e-1 0.000000000000000e0
9.238795325112865e-1 -3.826834323650904e-1 0.000000000000000e0
9.807852804032303e-1 -1.950903220161287e-1 0.000000000000000e0
1.300000000000000e0 0.000000000000000e0 0.000000000000000e0
1.275020864524200e0 2.536174186209667e-1 0.000000000000000e0
1.201043392264673e0 4.974884620746167e-1 0.000000000000000e0
1.080910495993309e0 7.222413029254828e-1 0.000000000000000e0
9.192388155425119e-1 9.192388155425119e-1 0.000000000000000e0
7.222413029254831e-1 1.080910495993309e0 0.000000000000000e0
4.974884620746168e-1 1.201043392264673e0 0.000000000000000e0
2.536174186209668e-1 1.275020864524200e0 0.000000000000000e0
7.960204194457797e-17 1.300000000000000e0 0.000000000000000e0
-2.536174186209667e-1 1.275020864524200e0 0.000000000000000e0
-4.974884620746167e-1 1.201043392264673e0 0.000000000000000e0
-7.222413029254826e-1 1.080910495993309e0 0.000000000000000e0
-9.192388155425117e-1 9.192388155425119e-1 0.000000000000000e0
-1.080910495993309e0 7.222413029254828e-1 0.000000000000000e0
-1.201043392264673e0 4.974884620746169e-1 0.000000000000000e0
-1.275020864524200e0 2.536174186209672e-1 0.000000000000000e0
-1.300000000000000e0 1.592040838891559e-16 0.000000000000000e0
-1.275020864524200e0 -2.536174186209669e-1 0.000000000000000e0
-1.201043392264673e0 -4.974884620746166e-1 0.000000000000000e0
-1.080910495993309e0 -7.222413029254826e-1 0.000000000000000e0
-9.192388155425120e-1 -9.192388155425117e-1 0.000000000000000e0
-7.222413029254828e-1 -1.080910495993309e0 0.000000000000000e0
-4.974884620746174e-1 -1.201043392264673e0 0.000000000000000e0
-2.536174186209673e-1 -1.275020864524199e0 0.000000000000000e0
-2.388061258337339e-16 -1.300000000000000e0 0.000000000000000e0
2.536174186209668e-1 -1.275020864524200e0 0.000000000000000e0
4.974884620746170e-1 -1.201043392264673e0 0.000000000000000e0
7.222413029254824e-1 -1.080910495993309e0 0.000000000000000e0
9.192388155425116e-1 -9.192388155425120e-1 0.000000000000000e0
1.080910495993309e0 -7.222413029254828e-1 0.000000000000000e0
1.201043392264673e0 -4.974884620746176e-1 0.000000000000000e0
1.275020864524199e0 -2.536174186209674e-1 0.000000000000000e0
1.600000000000000e0 0.000000000000000e0 0.000000000000000e0
1.569256448645169e0 3.121445152258052e-1 0.000000000000000e0
1.478207252018059e0 6.122934917841437e-1 0.000000000000000e0
1.330351379684072e0 8.889123728313635e-1 0.000000000000000e0
1.131370849898476e0 1.131370849898476e0 0.000000000000000e0
8.889123728313637e-1 1.330351379684072e0 0.000000000000000e0
6.122934917841438e-1 1.478207252018059e0 0.000000000000000e0
3.121445152258053e-1 1.569256448645169e0 0.000000000000000e0
9.797174393178826e-17 1.600000000000000e0 0.000000000000000e0
-3.121445152258051e-1 1.569256448645169e0 0.000000000000000e0
-6.122934917841436e-1 1.478207252018059e0 0.000000000000000e0
-8.889123728313632e-1 1.330351379684073e0 0.000000000000000e0
-1.131370849898476e0 1.131370849898476e0 0.000000000000000e0
-1.330351379684073e0 8.889123728313635e-1 0.000000000000000e0
-1.478207252018059e0 6.122934917841438e-1 0.000000000000000e0
-1.569256448645169e0 3.121445152258058e-1 0.000000000000000e0
-1.600000000000000e0 1.959434878635765e-16 0.000000000000000e0
-1.569256448645169e0 -3.121445152258054e-1 0.000000000000000e0
-1.478207252018059e0 -6.122934917841435e-1 0.000000000000000e0
-1.330351379684073e0 -8.889123728313632e-1 0.000000000000000e0
-1.131370849898476e0 -1.131370849898476e0 0.000000000000000e0
-8.889123728313635e-1 -1.330351379684072e0 0.000000000000000e0
-6.122934917841446e-1 -1.478207252018058e0 0.000000000000000e0
-3.121445152258059e-1 -1.569256448645169e0 0.000000000000000e0
-2.939152317953648e-16 -1.600000000000000e0 0.000000000000000e0
3.121445152258053e-1 -1.569256448645169e0 0.000000000000000e0
6.122934917841441e-1 -1.478207252018059e0 0.000000000000000e0
8.889123728313630e-1 -1.330351379684073e0 0.000000000000000e0
1.131370849898476e0 -1.131370849898476e0 0.000000000000000e0
1.330351379684072e0 -8.889123728313635e-1 0.000000000000000e0
1.478207252018058e0 -6.122934917841447e-1 0.000000000000000e0
1.569256448645169e0 -3.121445152258060e-1 0.000000000000000e0
1.900000000000000e0 0.000000000000000e0 0.000000000000000e0
1.863492032766138e0 3.706716118306437e-1 0.000000000000000e0
1.755371111771445e0 7.270985214936706e-1 0.000000000000000e0
1.579792263374836e0 1.055583442737244e0 0.000000000000000e0
1.343502884254440e0 1.343502884254440e0 0.000000000000000e0
1.055583442737244e0 1.579792263374836e0 0.000000000000000e0
7.270985214936706e-1 1.755371111771445e0 0.000000000000000e0
3.706716118306438e-1 1.863492032766138e0 0.000000000000000e0
1.163414459189985e-16 1.900000000000000e0 0.000000000000000e0
-3.706716118306436e-1 1.863492032766138e0 0.000000000000000e0
-7.270985214936705e-1 1.755371111771445e0 0.000000000000000e0
-1.055583442737244e0 1.579792263374836e0 0.000000000000000e0
-1.343502884254440e0 1.343502884254440e0 0.000000000000000e0
-1.579792263374836e0 1.055583442737244e0 0.000000000000000e0
-1.755371111771445e0 7.270985214936707e-1 0.000000000000000e0
-1.863492032766138e0 3.706716118306443e-1 0.000000000000000e0
-1.900000000000000e0 2.326828918379971e-16 0.000000000000000e0
-1.863492032766138e0 -3.706716118306438e-1 0.000000000000000e0
-1.755371111771445e0 -7.270985214936704e-1 0.000000000000000e0
-1.579792263374836e0 -1.055583442737244e0 0.000000000000000e0
-1.343502884254441e0 -1.343502884254440e0 0.000000000000000e0
-1.055583442737244e0 -1.579792263374836e0 0.000000000000000e0
-7.270985214936716e-1 -1.755371111771444e0 0.000000000000000e0
-3.706716118306445e-1 -1.863492032766138e0 0.000000000000000e0
-3.490243377569956e-16 -1.900000000000000e0 0.000000000000000e0
3.706716118306437e-1 -1.863492032766138e0 0.000000000000000e0
7.270985214936709e-1 -1.755371111771445e0 0.000000000000000e0
1.055583442737243e0 -1.579792263374836e0 0.000000000000000e0
1.343502884254440e0 -1.343502884254441e0 0.000000000000000e0
1.579792263374836e0 -1.055583442737244e0 0.000000000000000e0
1.755371111771444e0 -7.270985214936717e-1 0.000000000000000e0
1.863492032766138e0 -3.706716118306446e-1 0.000000000000000e0
2.200000000000000e0 0.000000000000000e0 0.000000000000000e0
2.157727616887107e0 4.291987084354822e-1 0.000000000000000e0
2.032534971524831e0 8.419035512031976e-1 0.000000000000000e0
1.829233147065600e0 1.222254512643125e0 0.000000000000000e0
1.555634918610405e0 1.555634918610405e0 0.000000000000000e0
1.222254512643125e0 1.829233147065600e0 0.000000000000000e0
8.419035512031977e-1 2.032534971524831e0 0.000000000000000e0
4.291987084354824e-1 2.157727616887107e0 0.000000000000000e0
1.347111479062089e-16 2.200000000000000e0 0.000000000000000e0
-4.291987084354821e-1 2.157727616887107e0 0.000000000000000e0
-8.419035512031975e-1 2.032534971524831e0 0.000000000000000e0
-1.222254512643124e0 1.829233147065600e0 0.000000000000000e0
-1.555634918610405e0 1.555634918610405e0 0.000000000000000e0
-1.829233147065600e0 1.222254512643125e0 0.000000000000000e0
-2.032534971524831e0 8.419035512031978e-1 0.000000000000000e0
-2.157727616887107e0 4.291987084354830e-1 0.000000000000000e0
-2.200000000000000e0 2.694222958124177e-16 0.000000000000000e0
-2.157727616887107e0 -4.291987084354824e-1 0.000000000000000e0
-2.032534971524831e0 -8.419035512031974e-1 0.000000000000000e0
-1.829233147065600e0 -1.222254512643124e0 0.000000000000000e0
-1.555634918610405e0 -1.555634918610405e0 0.000000000000000e0
-1.222254512643125e0 -1.829233147065600e0 0.000000000000000e0
-8.419035512031988e-1 -2.032534971524830e0 0.000000000000000e0
-4.291987084354831e-1 -2.157727616887107e0 0.000000000000000e0
-4.041334437186266e-16 -2.200000000000000e0 0.000000000000000e0
4.291987084354823e-1 -2.157727616887107e0 0.000000000000000e0
8.419035512031980e-1 -2.032534971524831e0 0.000000000000000e0
1.222254512643124e0 -1.829233147065600e0 0.000000000000000e0
1.555634918610404e0 -1.555634918610405e0 0.000000000000000e0
1.829233147065600e0 -1.222254512643125e0 0.000000000000000e0
2.032534971524830e0 -8.419035512031989e-1 0.000000000000000e0
2.157727616887107e0 -4.291987084354832e-1 0.000000000000000e0
2.500000000000000e0 0.000000000000000e0 0.000000000000000e0
2.451963201008076e0 4.877258050403206e-1 0.000000000000000e0
2.309698831278217e0 9.567085809127245e-1 0.000000000000000e0
2.078674030756363e0 1.388925582549005e0 0.000000000000000e0
1.767766952966369e0 1.767766952966369e0 0.000000000000000e0
1.388925582549006e0 2.078674030756363e0 0.000000000000000e0
9.567085809127246e-1 2.309698831278217e0 0.000000000000000e0
4.877258050403208e-1 2.451963201008076e0 0.000000000000000e0
1.530808498934192e-16 2.500000000000000e0 0.000000000000000e0
-4.877258050403205e-1 2.451963201008076e0 0.000000000000000e0
-9.567085809127243e-1 2.309698831278217e0 0.000000000000000e0
-1.388925582549005e0 2.078674030756363e0 0.000000000000000e0
-1.767766952966369e0 1.767766952966369e0 0.000000000000000e0
-2.078674030756363e0 1.388925582549005e0 0.000000000000000e0
-2.309698831278217e0 9.567085809127247e-1 0.000000000000000e0
-2.451963201008076e0 4.877258050403215e-1 0.000000000000000e0
-2.500000000000000e0 3.061616997868383e-16 0.000000000000000e0
-2.451963201008076e0 -4.877258050403209e-1 0.000000000000000e0
-2.309698831278217e0 -9.567085809127241e-1 0.000000000000000e0
-2.078674030756364e0 -1.388925582549005e0 0.000000000000000e0
-1.767766952966369e0 -1.767766952966369e0 0.000000000000000e0
-1.388925582549005e0 -2.078674030756363e0 0.000000000000000e0
-9.567085809127258e-1 -2.309698831278216e0 0.000000000000000e0
-4.877258050403216e-1 -2.451963201008076e0 0.000000000000000e0
-4.592425496802574e-16 -2.500000000000000e0 0.000000000000000e0
4.877258050403208e-1 -2.451963201008076e0 0.000000000000000e0
9.567085809127250e-1 -2.309698831278217e0 0.000000000000000e0
1.388925582549005e0 -2.078674030756364e0 0.000000000000000e0
1.767766952966368e0 -1.767766952966369e0 0.000000000000000e0
2.078674030756363e0 -1.388925582549005e0 0.000000000000000e0
2.309698831278216e0 -9.567085809127260e-1 0.000000000000000e0
2.451963201008076e0 -4.877258050403218e-1 0.000000000000000e0
2.800000000000000e0 0.000000000000000e0 0.000000000000000e0
2.746198785129045e0 5.462529016451591e-1 0.000000000000000e0
2.586862691031603e0 1.071513610622251e0 0.000000000000000e0
2.328114914447127e0 1.555596652454886e0 0.000000000000000e0
1.979898987322333e0 1.979898987322333e0 0.000000000000000e0
1.555596652454886e0 2.328114914447127e0 0.000000000000000e0
1.071513610622251e0 2.586862691031603e0 0.000000000000000e0
5.462529016451593e-1 2.746198785129045e0 0.000000000000000e0
1.714505518806294e-16 2.800000000000000e0 0.000000000000000e0
-5.462529016451589e-1 2.746198785129045e0 0.000000000000000e0
-1.071513610622251e0 2.586862691031603e0 0.000000000000000e0
-1.555596652454885e0 2.328114914447127e0 0.000000000000000e0
-1.979898987322333e0 1.979898987322333e0 0.000000000000000e0
-2.328114914447127e0 1.555596652454886e0 0.000000000000000e0
-2.586862691031603e0 1.071513610622252e0 0.000000000000000e0
-2.746198785129045e0 5.462529016451600e-1 0.000000000000000e0
-2.800000000000000e0 3.429011037612589e-16 0.000000000000000e0
-2.746198785129045e0 -5.462529016451594e-1 0.000000000000000e0
-2.586862691031603e0 -1.071513610622251e0 0.000000000000000e0
-2.328114914447127e0 -1.555596652454885e0 0.000000000000000e0
-1.979898987322333e0 -1.979898987322333e0 0.000000000000000e0
-1.555596652454886e0 -2.328114914447127e0 0.000000000000000e0
-1.071513610622253e0 -2.586862691031602e0 0.000000000000000e0
-5.462529016451603e-1 -2.746198785129045e0 0.000000000000000e0
-5.143516556418883e-16 -2.800000000000000e0 0.000000000000000e0
5.462529016451592e-1 -2.746198785129045e0 0.000000000000000e0
1.071513610622252e0 -2.586862691031603e0 0.000000000000000e0
1.555596652454885e0 -2.328114914447127e0 0.000000000000000e0
1.979898987322332e0 -1.979898987322333e0 0.000000000000000e0
2.328114914447127e0 -1.555596652454886e0 0.000000000000000e0
2.586862691031602e0 -1.071513610622253e0 0.000000000000000e0
2.746198785129045e0 -5.462529016451604e-1 0.000000000000000e0
3.100000000000000e0 0.000000000000000e0 0.000000000000000e0
3.040434369250014e0 6.047799982499976e-1 0.000000000000000e0
2.864026550784989e0 1.186318640331778e0 0.000000000000000e0
2.577555798137890e0 1.722267722360767e0 0.000000000000000e0
2.192031021678297e0 2.192031021678297e0 0.000000000000000e0
1.722267722360767e0 2.577555798137890e0 0.000000000000000e0
1.186318640331778e0 2.864026550784989e0 0.000000000000000e0
6.047799982499978e-1 3.040434369250014e0 0.000000000000000e0
1.898202538678397e-16 3.100000000000000e0 0.000000000000000e0
-6.047799982499974e-1 3.040434369250014e0 0.000000000000000e0
-1.186318640331778e0 2.864026550784989e0 0.000000000000000e0
-1.722267722360766e0 2.577555798137891e0 0.000000000000000e0
-2.192031021678297e0 2.192031021678297e0 0.000000000000000e0
-2.577555798137891e0 1.722267722360767e0 0.000000000000000e0
-2.864026550784989e0 1.186318640331779e0 0.000000000000000e0
-3.040434369250014e0 6.047799982499987e-1 0.000000000000000e0
-3.100000000000000e0 3.796405077356795e-16 0.000000000000000e0
-3.040434369250014e0 -6.047799982499980e-1 0.000000000000000e0
-2.864026550784989e0 -1.186318640331778e0 0.000000000000000e0
-2.577555798137891e0 -1.722267722360766e0 0.000000000000000e0
-2.192031021678298e0 -2.192031021678297e0 0.000000000000000e0
-1.722267722360767e0 -2.577555798137890e0 0.000000000000000e0
-1.186318640331780e0 -2.864026550784988e0 0.000000000000000e0
-6.047799982499988e-1 -3.040434369250014e0 0.000000000000000e0
-5.694607616035192e-16 -3.100000000000000e0 0.000000000000000e0
6.047799982499977e-1 -3.040434369250014e0 0.000000000000000e0
1.186318640331779e0 -2.864026550784989e0 0.000000000000000e0
1.722267722360766e0 -2.577555798137891e0 0.000000000000000e0
2.192031021678297e0 -2.192031021678298e0 0.000000000000000e0
2.577555798137890e0 -1.722267722360767e0 0.000000000000000e0
2.864026550784988e0 -1.186318640331780e0 0.000000000000000e0
3.040434369250014e0 -6.047799982499991e-1 0.000000000000000e0
3.400000000000000e0 0.000000000000000e0 0.000000000000000e0
3.334669953370983e0 6.633070948548361e-1 0.000000000000000e0
3.141190410538375e0 1.301123670041305e0 0.000000000000000e0
2.826996681828654e0 1.888938792266647e0 0.000000000000000e0
2.404163056034262e0 2.404163056034262e0 0.000000000000000e0
1.888938792266648e0 2.826996681828654e0 0.000000000000000e0
1.301123670041305e0 3.141190410538375e0 0.000000000000000e0
6.633070948548363e-1 3.334669953370983e0 0.000000000000000e0
2.081899558550500e-16 3.400000000000000e0 0.000000000000000e0
-6.633070948548359e-1 3.334669953370983e0 0.000000000000000e0
-1.301123670041305e0 3.141190410538375e0 0.000000000000000e0
-1.888938792266647e0 2.826996681828654e0 0.000000000000000e0
-2.404163056034261e0 2.404163056034262e0 0.000000000000000e0
-2.826996681828654e0 1.888938792266647e0 0.000000000000000e0
-3.141190410538375e0 1.301123670041306e0 0.000000000000000e0
-3.334669953370983e0 6.633070948548373e-1 0.000000000000000e0
-3.400000000000000e0 4.163799117101001e-16 0.000000000000000e0
-3.334669953370983e0 -6.633070948548364e-1 0.000000000000000e0
-3.141190410538375e0 -1.301123670041305e0 0.000000000000000e0
-2.826996681828654e0 -1.888938792266647e0 0.000000000000000e0
-2.404163056034262e0 -2.404163056034261e0 0.000000000000000e0
-1.888938792266647e0 -2.826996681828654e0 0.000000000000000e0
-1.301123670041307e0 -3.141190410538374e0 0.000000000000000e0
-6.633070948548374e-1 -3.334669953370983e0 0.000000000000000e0
-6.245698675651501e-16 -3.400000000000000e0 0.000000000000000e0
6.633070948548362e-1 -3.334669953370983e0 0.000000000000000e0
1.301123670041306e0 -3.141190410538374e0 0.000000000000000e0
1.888938792266646e0 -2.826996681828654e0 0.000000000000000e0
2.404163056034261e0 -2.404163056034262e0 0.000000000000000e0
2.826996681828654e0 -1.888938792266647e0 0.000000000000000e0
3.141190410538374e0 -1.301123670041307e0 0.000000000000000e0
3.334669953370983e0 -6.633070948548376e-1 0.000000000000000e0
3.700000000000000e0 0.000000000000000e0 0.000000000000000e0
3.628905537491953e0 7.218341914596745e-1 0.000000000000000e0
3.418354270291761e0 1.415928699750832e0 0.000000000000000e0
3.076437565519417e0 2.055609862172528e0 0.000000000000000e0
2.616295090390226e0 2.616295090390226e0 0.000000000000000e0
2.055609862172529e0 3.076437565519417e0 0.000000000000000e0
1.415928699750832e0 3.418354270291761e0 0.000000000000000e0
7.218341914596749e-1 3.628905537491953e0 0.000000000000000e0
2.265596578422604e-16 3.700000000000000e0 0.000000000000000e0
-7.218341914596743e-1 3.628905537491953e0 0.000000000000000e0
-1.415928699750832e0 3.418354270291761e0 0.000000000000000e0
-2.055609862172527e0 3.076437565519418e0 0.000000000000000e0
-2.616295090390226e0 2.616295090390226e0 0.000000000000000e0
-3.076437565519418e0 2.055609862172528e0 0.000000000000000e0
-3.418354270291761e0 1.415928699750833e0 0.000000000000000e0
-3.628905537491953e0 7.218341914596759e-1 0.000000000000000e0
-3.700000000000000e0 4.531193156845207e-16 0.000000000000000e0
-3.628905537491953e0 -7.218341914596750e-1 0.000000000000000e0
-3.418354270291761e0 -1.415928699750832e0 0.000000000000000e0
-3.076437565519418e0 -2.055609862172527e0 0.000000000000000e0
-2.616295090390226e0 -2.616295090390226e0 0.000000000000000e0
-2.055609862172528e0 -3.076437565519417e0 0.000000000000000e0
-1.415928699750834e0 -3.418354270291760e0 0.000000000000000e0
-7.218341914596761e-1 -3.628905537491952e0 0.000000000000000e0
-6.796789735267810e-16 -3.700000000000000e0 0.000000000000000e0
7.218341914596748e-1 -3.628905537491953e0 0.000000000000000e0
1.415928699750833e0 -3.418354270291761e0 0.000000000000000e0
2.055609862172527e0 -3.076437565519418e0 0.000000000000000e0
2.616295090390225e0 -2.616295090390226e0 0.000000000000000e0
3.076437565519417e0 -2.055609862172528e0 0.000000000000000e0
3.418354270291760e0 -1.415928699750834e0 0.000000000000000e0
3.628905537491952e0 -7.218341914596763e-1 0.000000000000000e0
4.000000000000000e0 0.000000000000000e0 0.000000000000000e0
3.923141121612922e0 7.803612880645130e-1 0.000000000000000e0
3.695518130045147e0 1.530733729460359e0 0.000000000000000e0
3.325878449210181e0 2.222280932078409e0 0.000000000000000e0
2.828427124746190e0 2.828427124746190e0 0.000000000000000e0
2.222280932078409e0 3.325878449210181e0 0.000000000000000e0
1.530733729460359e0 3.695518130045147e0 0.000000000000000e0
7.803612880645133e-1 3.923141121612922e0 0.000000000000000e0
2.449293598294706e-16 4.000000000000000e0 0.000000000000000e0
-7.803612880645128e-1 3.923141121612922e0 0.000000000000000e0
-1.530733729460359e0 3.695518130045147e0 0.000000000000000e0
-2.222280932078408e0 3.325878449210181e0 0.000000000000000e0
-2.828427124746190e0 2.828427124746190e0 0.000000000000000e0
-3.325878449210181e0 2.222280932078409e0 0.000000000000000e0
-3.695518130045147e0 1.530733729460360e0 0.000000000000000e0
-3.923141121612922e0 7.803612880645144e-1 0.000000000000000e0
-4.000000000000000e0 4.898587196589413e-16 0.000000000000000e0
-3.923141121612922e0 -7.803612880645134e-1 0.000000000000000e0
-3.695518130045147e0 -1.530733729460359e0 0.000000000000000e0
-3.325878449210182e0 -2.222280932078408e0 0.000000000000000e0
-2.828427124746191e0 -2.828427124746190e0 0.000000000000000e0
-2.222280932078409e0 -3.325878449210181e0 0.000000000000000e0
-1.530733729460361e0 -3.695518130045146e0 0.000000000000000e0
-7.803612880645147e-1 -3.923141121612921e0 0.000000000000000e0
-7.347880794884119e-16 -4.000000000000000e0 0.000000000000000e0
7.803612880645132e-1 -3.923141121612922e0 0.000000000000000e0
1.530733729460360e0 -3.695518130045147e0 0.000000000000000e0
2.222280932078407e0 -3.325878449210182e0 0.000000000000000e0
2.828427124746189e0 -2.828427124746191e0 0.000000000000000e0
3.325878449210181e0 -2.222280932078409e0 0.000000000000000e0
3.695518130045146e0 -1.530733729460362e0 0.000000000000000e0
3.923141121612921e0 -7.803612880645149e-1 0.000000000000000e0
$EndNodes
$Elements
3 704 1 704
1 1 1 32
1 1 2
2 2 3
3 3 4
4 4 5
5 5 6
6 6 7
7 7 8
8 8 9
9 9 10
10 10 11
11 11 12
12 12 13
13 13 14
14 14 15
15 15 16
16 16 17
17 17 18
18 18 19
19 19 20
20 20 21
21 21 22
22 22 23
23 23 24
24 24 25
25 25 26
26 26 27
27 27 28
28 28 29
29 29 30
30 30 31
31 31 32
32 32 1
1 2 1 32
33 321 322
34 322 323
35 323 324
36 324 325
37 325 326
38 326 327
39 327 328
40 328 329
41 329 330
42 330 331
43 331 332
44 332 333
45 333 334
46 334 335
47 335 336
48 336 337
49 337 338
50 338 339
51 339 340
52 340 341
53 341 342
54 342 343
55 343 344
56 344 345
57 345 346
58 346 347
59 347 348
60 348 349
61 349 350
62 350 351
63 351 352
64 352 321
2 10 2 640
65 1 33 34
66 1 34 2
67 2 34 35
68 2 35 3
69 3 35 36
70 3 36 4
71 4 36 37
72 4 37 5
73 5 37 38
74 5 38 6
75 6 38 39
76 6 39 7
77 7 39 40
78 7 40 8
79 8 40 41
80 8 41 9
81 9 41 42
82 9 42 10
83 10 42 43
84 10 43 11
85 11 43 44
86 11 44 12
87 12 44 45
88 12 45 13
89 13 45 46
90 13 46 14
91 14 46 47
92 14 47 15
93 15 47 48
94 15 48 16
95 16 48 49
96 16 49 17
97 17 49 50
98 17 50 18
99 18 50 51
100 18 51 19
101 19 51 52
102 19 52 20
103 20 52 53
104 20 53 21
105 21 53 54
106 21 54 22
107 22 54 55
108 22 55 23
109 23 55 56
110 23 56 24
111 24 56 57
112 24 57 25
113 25 57 58
114 25 58 26
115 26 58 59
116 26 59 27
117 27 59 60
118 27 60 28
119 28 60 61
120 28 61 29
121 29 61 62
122 29 62 30
123 30 62 63
124 30 63 31
125 31 63 64
126 31 64 32
127 32 64 33
128 32 33 1
129 33 65 66
130 33 66 34
131 34 66 67
132 34 67 35
133 35 67 68
134 35 68 36
135 36 68 69
136 36 69 37
137 37 69 70
138 37 70 38
139 38 70 71
140 38 71 39
141 39 71 72
142 39 72 40
143 40 72 73
144 40 73 41
145 41 73 74
146 41 74 42
147 42 74 75
148 42 75 43
149 43 75 76
150 43 76 44
151 44 76 77
152 44 77 45
153 45 77 78
154 45 78 46
155 46 78 79
156 46 79 47
157 47 79 80
158 47 80 48
159 48 80 81
160 48 81 49
161 49 81 82
162 49 82 50
163 50 82 83
164 50 83 51
165 51 83 84
166 51 84 52
167 52 84 85
168 52 85 53
169 53 85 86
170 53 86 54
171 54 86 87
172 54 87 55
173 55 87 88
174 55 88 56
175 56 88 89
176 56 89 57
177 57 89 90
178 57 90 58
179 58 90 91
180 58 91 59
181 59 91 92
182 59 92 60
183 60 92 93
184 60 93 61
185 61 93 94
186 61 94 62
187 62 94 95
188 62 95 63
189 63 95 96
190 63 96 64
191 64 96 65
192 64 65 33
193 65 97 98
194 65 98 66
195 66 98 99
196 66 99 67
197 67 99 100
198 67 100 68
199 68 100 101
200 68 101 69
201 69 101 102
202 69 102 70
203 70 102 103
204 70 103 71
205 71 103 104
206 71 104 72
207 72 104 105
208 72 105 73
209 73 105 106
210 73 106 74
211 74 106 107
212 74 107 75
213 75 107 108
214 75 108 76
215 76 108 109
216 76 109 77
217 77 109 110
218 77 110 78
219 78 110 111
220 78 111 79
221 79 111 112
222 79 112 80
223 80 112 113
224 80 113 81
225 81 113 114
226 81 114 82
227 82 114 115
228 82 115 83
229 83 115 116
230 83 116 84
231 84 116 117
232 84 117 85
233 85 117 118
234 85 118 86
235 86 118 119
236 86 119 87
237 87 119 120
238 87 120 88
239 88 120 121
240 88 121 89
241 89 121 122
242 89 122 90
243 90 122 123
244 90 123 91
245 91 123 124
246 91 124 92
247 92 124 125
248 92 125 93
249 93 125 126
250 93 126 94
251 94 126 127
252 94 127 95
253 95 127 128
254 95 128 96
255 96 128 97
256 96 97 65
257 97 129 130
258 97 130 98
259 98 130 131
260 98 131 99
261 99 131 132
262 99 132 100
263 100 132 133
264 100 133 101
265 101 133 134
266 101 134 102
267 102 134 135
268 102 135 103
269 103 135 136
270 103 136 104
271 104 136 137
272 104 137 105
273 105 137 138
274 105 138 106
275 106 138 139
276 106 139 107
277 107 139 140
278 107 140 108
279 108 140 141
280 108 141 109
281 109 141 142
282 109 142 110
283 110 142 143
284 110 143 111
285 111 143 144
286 111 144 112
287 112 144 145
288 112 145 113
289 113 145 146
290 113 146 114
291 114 146 147
292 114 147 115
293 115 147 148
294 115 148 116
295 116 148 149
296 116 149 117
297 117 149 150
298 117 150 118
299 118 150 151
300 118 151 119
301 119 151 152
302 119 152 120
303 120 152 153
304 120 153 121
305 121 153 154
306 121 154 122
307 122 154 155
308 122 155 123
309 123 155 156
310 123 156 124
311 124 156 157
312 124 157 125
313 125 157 158
314 125 158 126
315 126 158 159
316 126 159 127
317 127 159 160
318 127 160 128
319 128 160 129
320 128 129 97
321 129 161 162
322 129 162 130
323 130 162 163
324 130 163 131
325 131 163 164
326 131 164 132
327 132 164 165
328 132 165 133
329 133 165 166
330 133 166 134
331 134 166 167
332 134 167 135
333 135 167 168
334 135 168 136
335 136 168 169
336 136 169 137
337 137 169 170
338 137 170 138
339 138 170 171
340 138 171 139
341 139 171 172
342 139 172 140
343 140 172 173
344 140 173 141
345 141 173 174
346 141 174 142
347 142 174 175
348 142 175 143
349 143 175 176
350 143 176 144
351 144 176 177
352 144 177 145
353 145 177 178
354 145 178 146
355 146 178 179
356 146 179 147
357 147 179 180
358 147 180 148
359 148 180 181
360 148 181 149
361 149 181 182
362 149 182 150
363 150 182 183
364 150 183 151
365 151 183 184
366 151 184 152
367 152 184 185
368 152 185 153
369 153 185 186
370 153 186 154
371 154 186 187
372 154 187 155
373 155 187 188
374 155 188 156
375 156 188 189
376 156 189 157
377 157 189 190
378 157 190 158
379 158 190 191
380 158 191 159
381 159 191 192
382 159 192 160
383 160 192 161
384 160 161 129
385 161 193 194
386 161 194 162
387 162 194 195
388 162 195 163
389 163 195 196
390 163 196 164
391 164 196 197
392 164 197 165
393 165 197 198
394 165 198 166
395 166 198 199
396 166 199 167
397 167 199 200
398 167 200 168
399 168 200 201
400 168 201 169
401 169 201 202
402 169 202 170
403 170 202 203
404 170 203 171
405 171 203 204
406 171 204 172
407 172 204 205
408 172 205 173
409 173 205 206
410 173 206 174
411 174 206 207
412 174 207 175
413 175 207 208
414 175 208 176
415 176 208 209
416 176 209 177
417 177 209 210
418 177 210 178
419 178 210 211
420 178 211 179
421 179 211 212
422 179 212 180
423 180 212 213
424 180 213 181
425 181 213 214
426 181 214 182
427 182 214 215
428 182 215 183
429 183 215 216
430 183 216 184
431 184 216 217
432 184 217 185
433 185 217 218
434 185 218 186
435 186 218 219
436 186 219 187
437 187 219 220
438 187 220 188
439 188 220 221
440 188 221 189
441 189 221 222
442 189 222 190
443 190 222 223
444 190 223 191
445 191 223 224
446 191 224 192
447 192 224 193
448 192 193 161
449 193 225 226
450 193 226 194
451 194 226 227
452 194 227 195
453 195 227 228
454 195 228 196
455 196 228 229
456 196 229 197
457 197 229 230
458 197 230 198
459 198 230 231
460 198 231 199
461 199 231 232
462 199 232 200
463 200 232 233
464 200 233 201
465 201 233 234
466 201 234 202
467 202 234 235
468 202 235 203
469 203 235 236
470 203 236 204
471 204 236 237
472 204 237 205
473 205 237 238
474 205 238 206
475 206 238 239
476 206 239 207
477 207 239 240
478 207 240 208
479 208 240 241
480 208 241 209
481 209 241 242
482 209 242 210
483 210 242 243
484 210 243 211
485 211 243 244
486 211 244 212
487 212 244 245
488 212 245 213
489 213 245 246
490 213 246 214
491 214 246 247
492 214 247 215
493 215 247 248
494 215 248 216
495 216 248 249
496 216 249 217
497 217 249 250
498 217 250 218
499 218 250 251
500 218 251 219
501 219 251 252
502 219 252 220
503 220 252 253
504 220 253 221
505 221 253 254
506 221 254 222
507 222 254 255
508 222 255 223
509 223 255 256
510 223 256 224
511 224 256 225
512 224 225 193
513 225 257 258
514 225 258 226
515 226 258 259
516 226 259 227
517 227 259 260
518 227 260 228
519 228 260 261
520 228 261 229
521 229 261 262
522 229 262 230
523 230 262 263
524 230 263 231
525 231 263 264
526 231 264 232
527 232 264 265
528 232 265 233
529 233 265 266
530 233 266 234
531 234 266 267
532 234 267 235
533 235 267 268
534 235 268 236
535 236 268 269
536 236 269 237
537 237 269 270
538 237 270 238
539 238 270 271
540 238 271 239
541 239 271 272
542 239 272 240
543 240 272 273
544 240 273 241
545 241 273 274
546 241 274 242
547 242 274 275
548 242 275 243
549 243 275 276
550 243 276 244
551 244 276 277
552 244 277 245
553 245 277 278
554 245 278 246
555 246 278 279
556 246 279 247
557 247 279 280
558 247 280 248
559 248 280 281
560 248 281 249
561 249 281 282
562 249 282 250
563 250 282 283
564 250 283 251
565 251 283 284
566 251 284 252
567 252 284 285
568 252 285 253
569 253 285 286
570 253 286 254
571 254 286 287
572 254 287 255
573 255 287 288
574 255 288 256
575 256 288 257
576 256 257 225
577 257 289 290
578 257 290 258
579 258 290 291
580 258 291 259
581 259 291 292
582 259 292 260
583 260 292 293
584 260 293 261
585 261 293 294
586 261 294 262
587 262 294 295
588 262 295 263
589 263 295 296
590 263 296 264
591 264 296 297
592 264 297 265
593 265 297 298
594 265 298 266
595 266 298 299
596 266 299 267
597 267 299 300
598 267 300 268
599 268 300 301
600 268 301 269
601 269 301 302
602 269 302 270
603 270 302 303
604 270 303 271
605 271 303 304
606 271 304 272
607 272 304 305
608 272 305 273
609 273 305 306
610 273 306 274
611 274 306 307
612 274 307 275
613 275 307 308
614 275 308 276
615 276 308 309
616 276 309 277
617 277 309 310
618 277 310 278
619 278 310 311
620 278 311 279
621 279 311 312
622 279 312 280
623 280 312 313
624 280 313 281
625 281 313 314
626 281 314 282
627 282 314 315
628 282 315 283
629 283 315 316
630 283 316 284
631 284 316 317
632 284 317 285
633 285 317 318
634 285 318 286
635 286 318 319
636 286 319 287
637 287 319 320
638 287 320 288
639 288 320 289
640 288 289 257
641 289 321 322
642 289 322 290
643 290 322 323
644 290 323 291
645 291 323 324
646 291 324 292
647 292 324 325
648 292 325 293
649 293 325 326
650 293 326 294
651 294 326 327
652 294 327 295
653 295 327 328
654 295 328 296
655 296 328 329
656 296 329 297
657 297 329 330
658 297 330 298
659 298 330 331
660 298 331 299
661 299 331 332
662 299 332 300
663 300 332 333
664 300 333 301
665 301 333 334
666 301 334 302
667 302 334 335
668 302 335 303
669 303 335 336
670 303 336 304
671 304 336 337
672 304 337 305
673 305 337 338
674 305 338 306
675 306 338 339
676 306 339 307
677 307 339 340
678 307 340 308
679 308 340 341
680 308 341 309
681 309 341 342
682 309 342 310
683 310 342 343
684 310 343 311
685 311 343 344
686 311 344 312
687 312 344 345
688 312 345 313
689 313 345 346
690 313 346 314
691 314 346 347
692 314 347 315
693 315 347 348
694 315 348 316
695 316 348 349
696 316 349 317
697 317 349 350
698 317 350 318
699 318 350 351
700 318 351 319
701 319 351 352
702 319 352 320
703 320 352 321
704 320 321 289
$EndElements
